<?xml version="1.0" standalone="no"?>
<!DOCTYPE svg PUBLIC "-//W3C//DTD SVG 1.1//EN" "http://www.w3.org/Graphics/SVG/1.1/DTD/svg11.dtd" >
<svg xmlns="http://www.w3.org/2000/svg" xmlns:xlink="http://www.w3.org/1999/xlink" version="1.1">
<metadata>
Created by FontForge 20170731 at Mon Aug  9 11:49:37 2021
 By Aleksey,,,
Copyright (c) 2016 by Martin Va'cha, Displaay Type Foundry. All rights reserved.
</metadata>
<defs>
<font id="RecklessNeue-RegularItalic" horiz-adv-x="764" >
  <font-face 
    font-family="Reckless Neue"
    font-weight="400"
    font-style="italic"
    font-stretch="normal"
    units-per-em="1000"
    panose-1="0 0 0 0 0 0 0 0 0 0"
    ascent="800"
    descent="-200"
    x-height="501"
    cap-height="668"
    bbox="-137 -219.186 1133 1046"
    underline-thickness="50"
    underline-position="-175"
    slope="-9"
    unicode-range="U+000D-F8FF"
  />
<missing-glyph horiz-adv-x="1099" 
d="M119 530.5q64 112.5 173.5 182t239.5 75.5v-1000q-131 6 -240.5 74.5t-173 181t-63.5 243.5t64 243.5zM578 781q39 -18 71 -90t51 -178.5t19 -225.5t-18.5 -225t-51 -177.5t-71.5 -90.5v987zM739 12q27 126 27 275t-27 275t-74 199q67 -34 119.5 -105.5t81.5 -167.5
t29 -201q0 -106 -29 -201.5t-81 -166t-120 -104.5q47 71 74 197zM899 35.5q44 118.5 44 251.5t-44 252t-121 196q84 -42 146.5 -111t96.5 -156t34 -181t-34 -181t-97 -156t-146 -110q77 77 121 195.5z" />
    <glyph glyph-name="f_f" unicode="ff" horiz-adv-x="571" 
d="M203.5 676.5q64.5 44.5 148.5 44.5q78 0 119 -34q49 34 119 34q95 0 118 -52l-72 -48q-3 32 -18 52t-43 20q-39 0 -64.5 -36t-34.5 -94l-10 -62h138l-4 -28h-139l-75 -473h-83l76 473h-183l-74 -473h-83l75 473h-84l4 28h84l6 36q15 95 79.5 139.5zM383 501l8 50
q7 47 31 85q-13 28 -35.5 42.5t-48.5 14.5q-47 0 -82.5 -36.5t-45.5 -95.5l-9 -60h182z" />
    <glyph glyph-name="f_f_i" unicode="ffi" horiz-adv-x="828" 
d="M204 677q64 44 148 44q86 0 126 -40q61 40 149 40q127 0 164 -69l-80 -52q-3 43 -33 68t-71 25q-47 0 -84 -34.5t-47 -97.5l-10 -60h218l72 16h14l-65 -417q-4 -19 -4 -35t7.5 -24.5t21.5 -8.5q12 0 24.5 7t30.5 26l10 -10q-22 -32 -48 -50.5t-59 -18.5t-52 17.5
t-19 50.5q0 19 6 51l58 368h-219l-75 -473h-83l75 473h-183l-73 -470h-83l75 470h-85l4 28h85l6 36q15 96 79 140zM383 501l6 36q8 52 36 93q-13 31 -36 47t-50 16q-45 0 -82 -35.5t-47 -96.5l-9 -60h182z" />
    <glyph glyph-name="f_f_l" unicode="ffl" horiz-adv-x="816" 
d="M204 677.5q64 43.5 148 43.5q80 0 119 -36q60 36 139 36q80 0 123 -32l41 17h14l-97 -605q-4 -28 -4 -36q0 -15 8 -23.5t21 -8.5t25.5 6.5t29.5 25.5l10 -10q-45 -69 -106 -69q-33 0 -52.5 17.5t-19.5 50.5q0 19 6 51l80 498q1 44 -27.5 67t-71.5 23q-44 0 -81.5 -36
t-46.5 -95l-10 -61h133l-5 -28h-132l-75 -473h-83l77 473h-171l-74 -473h-83l76 473h-85l4 28h85l6 36q15 97 79 140.5zM371 501l6 36q9 60 42 101q-13 27 -34.5 41t-45.5 14q-48 0 -83.5 -35t-45.5 -97l-9 -60h170z" />
    <glyph glyph-name="f_i" unicode="fi" horiz-adv-x="563" 
d="M206 676.5q67 44.5 156 44.5q127 0 164 -69l-80 -52q-3 43 -33 68t-71 25q-47 0 -84 -34.5t-47 -97.5l-10 -60h218l72 16h14l-65 -417q-4 -19 -4 -35t7.5 -24.5t21.5 -8.5q12 0 24.5 7t30.5 26l10 -10q-22 -32 -48 -50.5t-59 -18.5t-52 17.5t-19 50.5q0 19 6 51l58 368
h-219l-75 -473h-83l75 473h-84l4 28h84l6 36q15 95 82 139.5z" />
    <glyph glyph-name="f_l" unicode="fl" horiz-adv-x="566" 
d="M207 676.5q66 44.5 152 44.5q80 0 123 -32l41 17h14l-97 -605q-4 -28 -4 -36q0 -15 8 -23.5t21 -8.5t25.5 6.5t29.5 25.5l10 -10q-45 -69 -106 -69q-33 0 -52.5 17.5t-19.5 50.5q0 19 6 51l80 498q1 44 -27.5 67t-71.5 23q-44 0 -81.5 -36t-46.5 -95l-10 -61h133l-5 -28
h-132l-75 -473h-83l77 473h-86l4 28h86l6 36q15 95 81 139.5z" />
    <glyph glyph-name=".notdef" horiz-adv-x="1099" 
d="M119 530.5q64 112.5 173.5 182t239.5 75.5v-1000q-131 6 -240.5 74.5t-173 181t-63.5 243.5t64 243.5zM578 781q39 -18 71 -90t51 -178.5t19 -225.5t-18.5 -225t-51 -177.5t-71.5 -90.5v987zM739 12q27 126 27 275t-27 275t-74 199q67 -34 119.5 -105.5t81.5 -167.5
t29 -201q0 -106 -29 -201.5t-81 -166t-120 -104.5q47 71 74 197zM899 35.5q44 118.5 44 251.5t-44 252t-121 196q84 -42 146.5 -111t96.5 -156t34 -181t-34 -181t-97 -156t-146 -110q77 77 121 195.5z" />
    <glyph glyph-name=".null" horiz-adv-x="0" 
 />
    <glyph glyph-name="nonmarkingreturn" unicode="&#xd;" horiz-adv-x="600" 
 />
    <glyph glyph-name="space" unicode=" " horiz-adv-x="234" 
 />
    <glyph glyph-name="exclam" unicode="!" horiz-adv-x="244" 
d="M136 668h98l-117 -467h-13zM48.5 91q19.5 19 46.5 19q25 0 40.5 -16.5t15.5 -39.5q0 -28 -19.5 -47t-46.5 -19q-24 0 -40 16.5t-16 40.5q0 27 19.5 46z" />
    <glyph glyph-name="quotedbl" unicode="&#x22;" horiz-adv-x="254" 
d="M91 668h74l-70 -251h-14zM214 668h74l-70 -251h-14z" />
    <glyph glyph-name="numbersign" unicode="#" horiz-adv-x="594" 
d="M350 218h-187l-112 -255h-40l112 255h-109l6 36h119l80 181h-130l5 35h140l114 258h40l-114 -258h187l114 258h40l-114 -258h108l-5 -35h-118l-80 -181h129l-6 -36h-139l-112 -255h-40zM366 254l80 181h-187l-80 -181h187z" />
    <glyph glyph-name="dollar" unicode="$" horiz-adv-x="530" 
d="M213 -13q-86 4 -143.5 46t-64.5 112l92 27q0 -62 34 -103.5t87 -51.5l46 286q-67 32 -99 50.5t-57 52.5t-25 85q0 54 29.5 97.5t84 68.5t125.5 25h2l15 93h31l-15 -95q70 -8 120 -45.5t59 -95.5l-89 -28q-2 46 -29 83t-66 52l-41 -257q62 -29 96.5 -50t60 -56t25.5 -87
q0 -59 -31.5 -106t-87.5 -74.5t-128 -29.5l-16 -103h-31zM196 457q29 -29 84 -55l40 251q-4 1 -12 1q-62 0 -101.5 -35.5t-39.5 -87.5q0 -45 29 -74zM356 54q42 40 42 100q0 48 -27.5 78.5t-77.5 56.5l-44 -275q65 0 107 40z" />
    <glyph glyph-name="percent" unicode="%" horiz-adv-x="716" 
d="M593 668h30l-474 -668h-31zM91 589.5q19 42.5 53.5 67.5t79.5 25q50 0 80 -34.5t30 -93.5q0 -49 -19.5 -91.5t-54 -67.5t-79.5 -25q-50 0 -79.5 34.5t-29.5 93.5q0 49 19 91.5zM154.5 416.5q12.5 -25.5 34.5 -25.5q34 0 54.5 54.5t20.5 116.5q0 44 -13 71.5t-35 27.5
q-32 0 -53 -54.5t-21 -117.5q0 -47 12.5 -72.5zM427 204.5q19 42.5 53.5 67.5t79.5 25q50 0 80 -34.5t30 -93.5q0 -49 -19.5 -91.5t-54 -67.5t-79.5 -25q-50 0 -79.5 34.5t-29.5 93.5q0 49 19 91.5zM490.5 31.5q12.5 -25.5 34.5 -25.5q34 0 54.5 54.5t20.5 116.5
q0 44 -13 71.5t-35 27.5q-32 0 -53 -54.5t-21 -117.5q0 -47 12.5 -72.5z" />
    <glyph glyph-name="ampersand" unicode="&#x26;" horiz-adv-x="693" 
d="M79 27q-50 42 -50 116q0 17 3 36q10 65 59.5 112.5t126.5 68.5q-27 37 -43 70.5t-16 72.5q0 51 26 92.5t72.5 64.5t105.5 23q71 0 111.5 -33t40.5 -85q0 -57 -48 -107t-142 -77l157 -214q57 71 85 212l79 -9q-51 -123 -148 -224l53 -72q23 -31 46 -44.5t50 -15.5l-3 -14
h-161l-56 76q-45 -44 -99.5 -67.5t-111.5 -23.5q-87 0 -137 42zM123 162q0 -59 35.5 -94.5t100.5 -35.5q39 0 79 16t75 48l-180 244q-44 -24 -71.5 -61t-35.5 -84q-3 -16 -3 -33zM267.5 468.5q14.5 -28.5 44.5 -69.5q49 23 78.5 60t37.5 82q2 16 2 24q0 40 -20.5 65
t-57.5 25q-42 0 -70.5 -34.5t-28.5 -87.5q0 -36 14.5 -64.5z" />
    <glyph glyph-name="quotesingle" unicode="'" horiz-adv-x="131" 
d="M91 668h74l-70 -251h-14z" />
    <glyph glyph-name="parenleft" unicode="(" horiz-adv-x="314" 
d="M81 -44q-51 106 -51 249q0 186 90 328.5t242 228.5l9 -9q-127 -107 -192 -244t-65 -322q0 -131 30 -231t76 -159l-12 -10q-76 63 -127 169z" />
    <glyph glyph-name="parenright" unicode=")" horiz-adv-x="310" 
d="M141 40.5q65 137.5 65 322.5q0 130 -29.5 230.5t-75.5 159.5l12 9q76 -62 127 -168t51 -249q0 -186 -89.5 -329t-242.5 -229l-10 10q127 106 192 243.5z" />
    <glyph glyph-name="asterisk" unicode="*" horiz-adv-x="375" 
d="M74 425l140 115l-153 27l31 63l133 -74l-4 157h74l-54 -157l156 74l11 -63l-163 -27l104 -115l-60 -42l-61 146l-107 -146z" />
    <glyph glyph-name="plus" unicode="+" horiz-adv-x="491" 
d="M303 527l-30 -192h192l-5 -32h-193l-30 -192h-32l30 192h-191l5 32h192l30 192h32z" />
    <glyph glyph-name="comma" unicode="," horiz-adv-x="238" 
d="M77.5 -67q28.5 27 32.5 68q-6 -5 -15.5 -9t-18.5 -4q-23 0 -40 16.5t-17 40.5q0 28 19.5 46.5t48.5 18.5q27 0 45.5 -19.5t18.5 -53.5q0 -38 -18 -72t-50 -56t-73 -25l1 14q38 8 66.5 35z" />
    <glyph glyph-name="hyphen" unicode="-" horiz-adv-x="305" 
d="M36 307h250l-6 -42h-250z" />
    <glyph glyph-name="period" unicode="." horiz-adv-x="223" 
d="M35 4.5q-16 16.5 -16 40.5q0 27 19.5 46t46.5 19q25 0 40.5 -16.5t15.5 -39.5q0 -28 -19.5 -47t-46.5 -19q-24 0 -40 16.5z" />
    <glyph glyph-name="slash" unicode="/" horiz-adv-x="370" 
d="M370 686h44l-392 -731h-44z" />
    <glyph glyph-name="zero" unicode="0" horiz-adv-x="621" 
d="M108.5 59q-52.5 74 -52.5 201q0 119 43 215.5t117.5 152t165.5 55.5q105 0 157 -74.5t52 -200.5q0 -119 -42.5 -215.5t-117 -152t-165.5 -55.5q-105 0 -157.5 74zM183.5 80.5q28.5 -67.5 98.5 -67.5q58 0 106 57t76 150t28 197q0 98 -29 168t-99 70q-58 0 -106 -58
t-75.5 -153t-27.5 -199q0 -97 28.5 -164.5z" />
    <glyph glyph-name="one" unicode="1" horiz-adv-x="393" 
d="M89.5 21.5q23.5 5.5 36.5 21t17 46.5l76 479h-109l2 14q65 12 111 33.5t90 56.5h13l-92 -583q-2 -16 -2 -22q0 -30 18.5 -40.5t61.5 -12.5l-3 -14h-289l2 14q44 2 67.5 7.5z" />
    <glyph glyph-name="two" unicode="2" horiz-adv-x="500" 
d="M-25 14l198 186q66 60 107.5 103.5t72.5 97t31 108.5q0 53 -28.5 82.5t-78.5 29.5q-52 0 -103.5 -31.5t-83.5 -83.5l-10 5q34 76 96 123.5t143 47.5q76 0 120 -43t44 -117q0 -72 -43.5 -137t-108.5 -119.5t-177 -135.5l-71 -52h229q40 0 61.5 7.5t37 28t34.5 64.5h14
l-56 -178h-430z" />
    <glyph glyph-name="three" unicode="3" horiz-adv-x="510" 
d="M421.5 312q50.5 -36 50.5 -105q0 -66 -33 -116t-92.5 -77.5t-135.5 -27.5q-63 0 -110 20.5t-73.5 57t-26.5 83.5l97 27q-5 -68 30 -114t99 -46q43 0 77.5 27.5t53 70t18.5 86.5q0 67 -49 103.5t-140 35.5l3 16q64 7 110.5 32t71 61t24.5 76q0 44 -30 71.5t-80 27.5
q-54 0 -105.5 -31t-79.5 -84l-10 5q26 71 91 121t152 50q76 0 118.5 -37t42.5 -96q0 -76 -56.5 -126.5t-155.5 -69.5q88 -5 138.5 -41z" />
    <glyph glyph-name="four" unicode="4" horiz-adv-x="552" 
d="M247.5 22q23.5 6 36.5 21t18 46l15 99h-313l3 18l408 462h69l-72 -450h115l-5 -30h-115l-15 -99q-2 -16 -2 -22q0 -30 18.5 -40.5t61.5 -12.5l-2 -14h-291l2 14q45 2 68.5 8zM322 218l59 369l-326 -369h267z" />
    <glyph glyph-name="five" unicode="5" horiz-adv-x="521" 
d="M98.5 6q-48.5 20 -75.5 56.5t-27 84.5l96 27q-5 -68 32 -114t104 -46q46 0 82.5 27.5t56.5 74.5t20 102q0 69 -38.5 111.5t-105.5 42.5q-38 0 -80.5 -14t-77.5 -37l-8 4l111 343h333l-12 -80h-318l-76 -228q80 70 181 70q57 0 100 -24.5t66.5 -68t23.5 -98.5
q0 -73 -36 -131t-99 -90t-141 -32q-63 0 -111.5 20z" />
    <glyph glyph-name="six" unicode="6" horiz-adv-x="569" 
d="M109 52q-56 67 -56 194q0 104 38 205t113.5 166.5t183.5 65.5q68 0 120 -31.5t62 -90.5l-99 -35q-2 54 -31 91.5t-73 37.5q-85 0 -137 -97t-70 -228q41 51 93.5 75t103.5 24q79 0 126.5 -50.5t47.5 -132.5q0 -72 -35.5 -131.5t-97 -94.5t-133.5 -35q-100 0 -156 67z
M186 70.5q33 -57.5 90 -57.5q42 0 78 31.5t57 81.5t21 103q0 67 -34.5 108t-91.5 41q-36 0 -76.5 -17t-71.5 -51q-5 -35 -5 -80q0 -102 33 -159.5z" />
    <glyph glyph-name="seven" unicode="7" horiz-adv-x="521" 
d="M196.5 226.5q54.5 105.5 125.5 189t165 172.5h-252q-53 0 -84.5 -27.5t-58.5 -95.5h-14l62 203h438l-2 -14q-91 -98 -160 -192t-120 -210.5t-69 -251.5h-101q16 121 70.5 226.5z" />
    <glyph glyph-name="eight" unicode="8" horiz-adv-x="534" 
d="M74.5 27q-57.5 42 -57.5 114q0 74 56 122t149 74q-55 32 -85 67t-30 91q0 52 30.5 95t84 68t120.5 25q83 0 132.5 -37.5t49.5 -100.5t-48.5 -107t-129.5 -67q45 -24 74.5 -47t49 -57.5t19.5 -83.5q0 -59 -33 -104t-91 -69.5t-133 -24.5q-100 0 -157.5 42zM146 47
q33 -34 92 -34q66 0 109 41t43 104q0 41 -19.5 70.5t-47.5 49t-77 45.5q-65 -30 -99 -73.5t-34 -107.5q0 -61 33 -95zM230.5 446.5q30.5 -29.5 90.5 -61.5q52 27 82.5 67.5t30.5 94.5q0 49 -28 78.5t-75 29.5q-36 0 -66 -18t-47.5 -47.5t-17.5 -64.5q0 -49 30.5 -78.5z" />
    <glyph glyph-name="nine" unicode="9" horiz-adv-x="572" 
d="M489 616q56 -67 56 -194q0 -104 -38 -205t-113.5 -166.5t-183.5 -65.5q-68 0 -120 31.5t-62 90.5l99 35q2 -54 31 -91.5t73 -37.5q85 0 137 97t70 228q-41 -51 -93.5 -75t-103.5 -24q-79 0 -126.5 50.5t-47.5 132.5q0 72 35.5 131.5t97 94.5t133.5 35q100 0 156 -67z
M200.5 331q34.5 -41 91.5 -41q36 0 76.5 17t71.5 51q5 35 5 80q0 102 -33 159.5t-90 57.5q-42 0 -78 -31.5t-57 -81.5t-21 -103q0 -67 34.5 -108z" />
    <glyph glyph-name="colon" unicode=":" horiz-adv-x="225" 
d="M99 405.5q-16 16.5 -16 40.5q0 27 19.5 46t46.5 19q25 0 40.5 -16.5t15.5 -39.5q0 -28 -19.5 -47t-46.5 -19q-24 0 -40 16.5zM36 4.5q-16 16.5 -16 40.5q0 27 19.5 46t46.5 19q25 0 40.5 -16.5t15.5 -39.5q0 -28 -19.5 -47t-46.5 -19q-24 0 -40 16.5z" />
    <glyph glyph-name="semicolon" unicode=";" horiz-adv-x="238" 
d="M77.5 -67q28.5 27 32.5 68q-6 -5 -15.5 -9t-18.5 -4q-23 0 -40 16.5t-17 40.5q0 28 19.5 46.5t48.5 18.5q27 0 45.5 -19.5t18.5 -53.5q0 -38 -18 -72t-50 -56t-73 -25l1 14q38 8 66.5 35zM102 405.5q-16 16.5 -16 40.5q0 27 19.5 46t46.5 19q25 0 40.5 -16.5t15.5 -39.5
q0 -28 -19.5 -47t-46.5 -19q-24 0 -40 16.5z" />
    <glyph glyph-name="less" unicode="&#x3c;" horiz-adv-x="447" 
d="M38 298l7 45l402 189l11 -29l-392 -185l332 -184l-17 -27z" />
    <glyph glyph-name="equal" unicode="=" horiz-adv-x="492" 
d="M64 427h416l-5 -32h-416zM39 265h416l-5 -32h-416z" />
    <glyph glyph-name="greater" unicode="&#x3e;" horiz-adv-x="446" 
d="M9 137l393 185l-332 184l17 27l342 -190l-6 -45l-404 -190z" />
    <glyph glyph-name="question" unicode="?" horiz-adv-x="451" 
d="M190 208q0 50 23.5 86.5t71.5 85.5q44 45 68 78.5t31 78.5q2 18 2 24q0 43 -24.5 68t-65.5 25q-50 0 -91.5 -44.5t-59.5 -110.5l-82 24q14 42 47.5 78.5t82.5 58.5t106 22q83 0 129.5 -35t46.5 -96q0 -8 -2 -26q-6 -39 -27 -71.5t-48 -56.5t-70 -57q-59 -45 -89 -78.5
t-34 -76.5h-14q-1 8 -1 23zM147.5 91q19.5 19 46.5 19q25 0 40.5 -16.5t15.5 -39.5q0 -28 -19.5 -47t-46.5 -19q-24 0 -40 16.5t-16 40.5q0 27 19.5 46z" />
    <glyph glyph-name="at" unicode="@" horiz-adv-x="907" 
d="M239.5 -97.5q-95.5 49.5 -146.5 138.5t-51 207q0 126 57.5 224.5t161.5 154t238 55.5q116 0 203.5 -42.5t135 -119t47.5 -175.5q0 -83 -33.5 -147t-90 -98.5t-124.5 -34.5q-58 0 -91 26.5t-33 72.5q0 10 4 32q-28 -68 -71 -99t-87 -31q-54 0 -87 42t-33 113
q0 77 37.5 145t96.5 108t120 40q39 0 65.5 -16.5t37.5 -49.5l35 52h47l-88 -280q-8 -27 -8 -48q0 -34 18 -54.5t52 -20.5q45 0 81 30.5t56.5 85t20.5 122.5q0 95 -39 167.5t-111 112.5t-166 40q-108 0 -194 -52t-134 -144t-48 -207q0 -112 46 -195t130.5 -128t195.5 -45
q143 0 258 76l11 -17q-51 -42 -128.5 -66t-167.5 -24q-128 0 -223.5 49.5zM333.5 137q17.5 -28 49.5 -28q41 0 77 42t57 101l15 42q22 61 29 84t7 38q0 30 -19.5 47.5t-50.5 17.5q-46 0 -88.5 -38t-68 -99t-25.5 -126q0 -53 17.5 -81z" />
    <glyph glyph-name="A" unicode="A" horiz-adv-x="735" 
d="M634 34.5q19 -17.5 59 -20.5l-3 -14h-257l3 14q39 2 55.5 12t16.5 33q0 12 -7 38l-33 123h-286l-72 -123q-20 -35 -20 -52q0 -15 15 -22t47 -9l-3 -14h-185l3 14q40 4 63 21t50 62l344 586h16l163 -586q12 -45 31 -62.5zM461 248l-83 310l-180 -310h263z" />
    <glyph glyph-name="B" unicode="B" horiz-adv-x="632" 
d="M68.5 32.5q23.5 15.5 29.5 56.5l79 491q2 12 2 18q0 28 -19 41.5t-62 14.5l2 14h275q102 0 159.5 -40t57.5 -114q0 -64 -50 -110.5t-133 -53.5q84 -4 131 -44.5t47 -109.5q0 -60 -33.5 -104.5t-94 -68t-141.5 -23.5h-324l2 14q49 3 72.5 18.5zM187 77q0 -24 18.5 -36.5
t51.5 -12.5h51q81 0 131 47t50 121q0 65 -42 101t-119 36h-101l-39 -246q-1 -4 -1 -10zM332 361q46 0 83 22t58 57.5t21 75.5q0 59 -36.5 91.5t-103.5 32.5h-78l-44 -279h100z" />
    <glyph glyph-name="C" unicode="C" horiz-adv-x="659" 
d="M181 23q-60 38 -93.5 105t-33.5 152q0 110 50.5 202.5t137.5 146.5t190 54q96 0 156 -39t70 -108l-93 -28q-5 68 -44.5 108t-104.5 40q-72 0 -132 -47.5t-95 -126t-35 -166.5q0 -75 27 -133.5t75.5 -90.5t110.5 -32q81 0 145.5 38.5t96.5 109.5l12 -3
q-38 -105 -120 -162.5t-185 -57.5q-75 0 -135 38z" />
    <glyph glyph-name="D" unicode="D" horiz-adv-x="722" 
d="M615.5 593q80.5 -75 80.5 -203q0 -111 -52 -200t-143 -139.5t-203 -50.5h-304l2 14q50 3 73 18t29 57l78 491q1 6 1 17q0 31 -18 43t-62 14l3 14h286q149 0 229.5 -75zM187 75q0 -30 27 -38.5t85 -8.5q85 0 153 49.5t107 131.5t39 176q0 71 -26 128.5t-78.5 92
t-129.5 34.5h-89l-87 -553q-1 -4 -1 -12z" />
    <glyph glyph-name="E" unicode="E" horiz-adv-x="620" 
d="M68.5 32q23.5 16 29.5 57l78 491q2 14 2 19q0 28 -18.5 41t-61.5 14l2 14h506l26 -179h-14q-18 81 -56 116t-114 35h-172l-45 -283h137q45 0 64.5 22t29.5 73h14l-35 -219h-14q2 24 2 34q0 32 -14 47t-51 15h-137l-38 -240q-2 -16 -2 -21q0 -40 37 -40h150q68 0 112 33
t74 114h14l-53 -175h-527l2 14q49 2 72.5 18z" />
    <glyph glyph-name="F" unicode="F" horiz-adv-x="588" 
d="M68 32q23 16 30 57l78 491q2 14 2 20q0 27 -18.5 40t-61.5 14l2 14h505l26 -179h-14q-18 81 -56 116t-114 35h-171l-45 -283h136q45 0 64 21.5t30 73.5h14l-35 -219h-14q3 20 3 36q0 31 -14.5 45.5t-51.5 14.5h-137l-38 -240q-2 -14 -2 -19q0 -32 23 -43t78 -13l-2 -14
h-291l2 14q49 2 72 18z" />
    <glyph glyph-name="G" unicode="G" horiz-adv-x="734" 
d="M187.5 22q-64.5 36 -99 102.5t-34.5 156.5q0 112 50.5 204t138.5 145t194 53q99 0 162.5 -39.5t73.5 -108.5l-93 -27q-5 67 -48.5 107t-110.5 40q-72 0 -133 -49t-97 -131.5t-36 -177.5q0 -85 27 -148.5t76 -98t115 -34.5q38 0 77.5 13t68.5 39l26 170q2 18 2 25
q0 31 -19 44.5t-63 15.5l2 14h275l-2 -14q-51 -4 -74.5 -24.5t-29.5 -60.5l-20 -133q-45 -51 -119 -85t-155 -34q-90 0 -154.5 36z" />
    <glyph glyph-name="H" unicode="H" horiz-adv-x="777" 
d="M507 32q23 16 30 57l38 239h-349l-38 -239q-2 -14 -2 -19q0 -29 19 -41.5t61 -14.5l-2 -14h-270l2 14q49 2 72 18t30 57l78 491q2 16 2 21q0 27 -18.5 39.5t-61.5 13.5l2 14h270l-2 -14q-49 -2 -72 -16.5t-29 -55.5l-36 -226h348l36 224q2 16 2 21q0 27 -18.5 39.5
t-61.5 13.5l2 14h270l-2 -14q-49 -2 -72 -16.5t-29 -55.5l-79 -493q-2 -14 -2 -19q0 -29 19 -41.5t61 -14.5l-2 -14h-270l2 14q49 2 72 18z" />
    <glyph glyph-name="I" unicode="I" horiz-adv-x="338" 
d="M68 32q23 16 30 57l78 491q2 16 2 21q0 27 -18.5 39.5t-61.5 13.5l2 14h270l-2 -14q-49 -2 -72 -16.5t-29 -55.5l-79 -493q-2 -14 -2 -19q0 -29 19 -41.5t61 -14.5l-2 -14h-270l2 14q49 2 72 18z" />
    <glyph glyph-name="J" unicode="J" horiz-adv-x="511" 
d="M41 25.5q-49 40.5 -54 111.5l97 26q-4 -69 21.5 -109.5t73.5 -40.5q56 0 81.5 43.5t35.5 105.5l65 418q2 14 2 21q0 25 -17.5 38.5t-61.5 14.5l2 14h269l-2 -14q-51 -3 -72.5 -18t-28.5 -54l-63 -400q-15 -94 -63 -145.5t-151 -51.5q-85 0 -134 40.5z" />
    <glyph glyph-name="K" unicode="K" horiz-adv-x="711" 
d="M501.5 28.5q-6.5 14.5 -17.5 35.5l-164 298l-102 -84l-30 -189q-2 -14 -2 -19q0 -29 19 -41.5t61 -14.5l-2 -14h-270l2 14q49 2 72 18t30 57l78 491q2 16 2 21q0 27 -18.5 39.5t-61.5 13.5l2 14h270l-2 -14q-49 -2 -72 -16.5t-29 -55.5l-42 -262l338 275q30 25 30 38
q0 20 -69 21l2 14h213l-3 -14q-38 -2 -63 -13t-60 -40l-223 -182l190 -343q19 -34 39.5 -47.5t58.5 -14.5l-2 -14h-167q-1 14 -7.5 28.5z" />
    <glyph glyph-name="L" unicode="L" horiz-adv-x="567" 
d="M-4 14q50 3 73 18.5t29 56.5l78 491q2 14 2 20q0 28 -19 40t-62 14l3 14h270l-3 -14q-50 -3 -72 -18.5t-29 -55.5l-78 -491q-2 -14 -2 -20q0 -22 10.5 -31.5t33.5 -9.5h109q66 0 112 38t75 114h14l-54 -180h-492z" />
    <glyph glyph-name="M" unicode="M" horiz-adv-x="916" 
d="M874 637.5q-22 -14.5 -28 -52.5l-80 -503q-1 -6 -1 -16q0 -25 18.5 -36t61.5 -16l-2 -14h-269l2 14q50 5 72.5 19.5t27.5 48.5l75 473l-356 -555h-23l-171 563l-76 -481q-1 -6 -1 -16q0 -25 18.5 -36t62.5 -16l-3 -14h-208l3 14q50 5 72 19.5t28 48.5l80 503q2 14 2 18
q0 27 -19 38t-63 13l3 14h168l169 -554l356 554h156l-3 -14q-50 -2 -72 -16.5z" />
    <glyph glyph-name="N" unicode="N" horiz-adv-x="736" 
d="M77 35q22 17 29 62l80 508q-17 25 -37 36.5t-52 12.5l3 14h165l302 -528l69 431q2 16 2 22q0 32 -21 45.5t-73 15.5l3 14h222l-3 -14q-52 -3 -73.5 -20t-28.5 -63l-93 -586h-24l-338 585l-75 -473q-2 -16 -2 -23q0 -31 21 -44t73 -16l-3 -14h-222l2 14q52 4 74 21z" />
    <glyph glyph-name="O" unicode="O" horiz-adv-x="758" 
d="M187 24q-65 38 -99 105.5t-34 154.5q0 109 52 200.5t141 144.5t197 53q89 0 154 -38t99 -105t34 -154q0 -109 -51.5 -200.5t-140.5 -145t-197 -53.5q-90 0 -155 38zM178 146q25 -62 71.5 -97t106.5 -35q80 0 143 52.5t98 138t35 178.5q0 76 -24.5 138t-70.5 97.5
t-108 35.5q-80 0 -143 -53t-98 -138t-35 -178q0 -77 25 -139z" />
    <glyph glyph-name="P" unicode="P" horiz-adv-x="605" 
d="M68.5 32.5q23.5 15.5 29.5 56.5l78 491q2 12 2 17q0 29 -20.5 42t-59.5 15l2 14h284q107 0 167 -45.5t60 -127.5q0 -61 -35 -107t-101 -71t-157 -25h-97l-33 -203q-2 -14 -2 -20q0 -29 20 -41t60 -14l-2 -14h-270l2 14q49 3 72.5 18.5zM310 320q63 0 109 23t70 62t24 88
q0 69 -39.5 108t-113.5 39h-83l-52 -320h85z" />
    <glyph glyph-name="Q" unicode="Q" horiz-adv-x="740" 
d="M490 66.5q63 52.5 98 138t35 178.5q0 76 -24.5 138t-70.5 97.5t-108 35.5q-80 0 -143 -53t-98 -138t-35 -178q0 -77 25 -139t71.5 -97t106.5 -35q80 0 143 52.5zM97 484.5q52 91.5 141 144.5t197 53q89 0 154 -38t99 -105t34 -154q0 -107 -49.5 -197t-135 -144
t-189.5 -58q14 -70 65 -98.5t119 -28.5q39 0 74 7l-30 -85q-91 -3 -164 42.5t-85 162.5q-88 1 -151.5 39.5t-97 105.5t-33.5 153q0 109 52 200.5z" />
    <glyph glyph-name="R" unicode="R" horiz-adv-x="663" 
d="M450 51l-139 241h-90l-33 -203q-2 -14 -2 -20q0 -29 20 -41t60 -14l-2 -14h-270l2 14q49 3 72.5 18.5t29.5 56.5l78 491q2 12 2 17q0 29 -20.5 42t-59.5 15l2 14h284q107 0 167 -45.5t60 -127.5q0 -76 -53 -127.5t-150 -68.5l136 -231q14 -23 39 -38t52 -16l-2 -14h-163
q-3 17 -20 51zM310 320q63 0 109 23t70 62t24 88q0 69 -39.5 108t-113.5 39h-83l-52 -320h85z" />
    <glyph glyph-name="S" unicode="S" horiz-adv-x="530" 
d="M76.5 28.5q-63.5 42.5 -71.5 116.5l92 27q0 -47 20.5 -83t55 -55.5t75.5 -19.5q66 0 108 40t42 100q0 40 -20 68.5t-50 46.5t-80 41q-55 27 -87.5 47t-55 53t-22.5 81q0 54 29.5 97.5t84 68.5t125.5 25q80 0 141 -39t71 -104l-89 -28q-2 39 -21.5 71.5t-50 52t-65.5 19.5
q-62 0 -101.5 -35.5t-39.5 -87.5q0 -36 19.5 -62t49 -43t79.5 -40q58 -27 92.5 -48.5t59 -56.5t24.5 -85q0 -61 -33 -108.5t-91.5 -74.5t-133.5 -27q-93 0 -156.5 42.5z" />
    <glyph glyph-name="T" unicode="T" horiz-adv-x="633" 
d="M216.5 32q23.5 16 29.5 57l87 551h-74q-76 0 -119.5 -35t-75.5 -116h-14l55 179h554l-3 -179h-14q-5 81 -37.5 116t-108.5 35h-72l-88 -551q-2 -14 -2 -19q0 -29 18.5 -41.5t61.5 -14.5l-2 -14h-270l2 14q49 2 72.5 18z" />
    <glyph glyph-name="U" unicode="U" horiz-adv-x="724" 
d="M772 668l-3 -14q-49 -3 -72 -18t-29 -56l-55 -342q-12 -77 -50 -134t-95 -87.5t-125 -30.5q-116 0 -178.5 53t-62.5 148q0 15 4 51l55 342q1 7 1 18q0 30 -17.5 42t-61.5 14l2 14h270l-3 -14q-49 -3 -71.5 -18t-29.5 -56l-54 -342q-4 -20 -4 -44q0 -77 46.5 -120.5
t130.5 -43.5t141.5 55.5t73.5 152.5l55 342q1 7 1 18q0 30 -18 42t-62 14l3 14h208z" />
    <glyph glyph-name="V" unicode="V" horiz-adv-x="741" 
d="M130 633.5q-19 17.5 -59 20.5l3 14h257l-3 -14q-39 -2 -55.5 -12t-16.5 -33q0 -12 7 -38l124 -461l267 461q20 35 20 52q0 15 -15 22t-47 9l3 14h185l-3 -14q-40 -4 -63 -21t-50 -62l-343 -586h-16l-163 586q-13 45 -32 62.5z" />
    <glyph glyph-name="W" unicode="W" horiz-adv-x="1008" 
d="M492 632q-16 19 -55 22l3 14h224l-3 -14q-33 -3 -46.5 -13.5t-13.5 -32.5q0 -14 5 -37l91 -451l233 451q19 36 19 51t-13.5 23t-44.5 9l3 14h173l-3 -14q-38 -6 -58 -21.5t-44 -61.5l-307 -586h-15l-101 480l-251 -480h-14l-123 586q-6 28 -13 44t-22.5 26.5t-44.5 12.5
l3 14h224l-3 -14q-34 -3 -47 -13t-13 -32q0 -13 5 -38l90 -451l201 387l-14 64q-9 42 -25 61z" />
    <glyph glyph-name="X" unicode="X" horiz-adv-x="680" 
d="M438 23.5q15 7.5 15 23.5q0 17 -18 50l-109 205l-182 -205q-20 -22 -29.5 -36.5t-9.5 -23.5q0 -11 12.5 -16t40.5 -7l-2 -14h-190l2 14q42 4 71 21t70 62l205 228l-131 246q-25 46 -45 62.5t-54 20.5l2 14h251l-3 -14q-33 -2 -47.5 -9.5t-14.5 -22.5q0 -18 18 -51
l96 -179l159 179q38 43 38 60q0 11 -12.5 16t-40.5 7l3 14h190l-3 -14q-42 -4 -70.5 -21t-69.5 -62l-182 -202l145 -272q24 -45 44 -62t54 -21l-2 -14h-251l2 14q33 2 48 9.5z" />
    <glyph glyph-name="Y" unicode="Y" horiz-adv-x="639" 
d="M218.5 32q22.5 15 28.5 57l35 221l-124 261q-22 45 -40.5 62t-49.5 21l2 14h246l-3 -14q-36 -2 -51 -9.5t-15 -24.5t15 -49l106 -225l177 225q30 38 30 55q0 13 -16.5 19.5t-50.5 8.5l3 14h190l-3 -14q-35 -4 -59.5 -20.5t-60.5 -62.5l-207 -261l-34 -221q-2 -16 -2 -21
q0 -29 18 -40.5t59 -13.5l-2 -14h-264l2 14q48 3 70.5 18z" />
    <glyph glyph-name="Z" unicode="Z" horiz-adv-x="551" 
d="M440.5 21q-41.5 -34 -107.5 -34q-25 0 -93 8q-82 10 -134 10q-60 0 -122 -13l-7 10l515 586h-259q-54 0 -93 -26.5t-70 -100.5h-14l61 207h477v-13l-522 -596q56 24 120 24q35 0 93 -8q46 -7 74 -7q51 0 87 29.5t63 109.5l13 -3l-15 -56q-25 -93 -66.5 -127z" />
    <glyph glyph-name="bracketleft" unicode="[" horiz-adv-x="258" 
d="M147 756h171l-4 -25h-98l-140 -892h98l-4 -25h-172z" />
    <glyph glyph-name="backslash" unicode="\" horiz-adv-x="370" 
d="M96 686h39l160 -731h-39z" />
    <glyph glyph-name="bracketright" unicode="]" horiz-adv-x="258" 
d="M-50 -186l4 25h98l142 892h-98l4 25h171l-150 -942h-171z" />
    <glyph glyph-name="asciicircum" unicode="^" horiz-adv-x="407" 
d="M257 692h30l128 -254h-37l-110 222l-180 -222h-41z" />
    <glyph glyph-name="underscore" unicode="_" horiz-adv-x="388" 
d="M-14 -9h333l-4 -32h-334z" />
    <glyph glyph-name="grave" unicode="`" horiz-adv-x="285" 
d="M272 566l-146 162h94l66 -162h-14z" />
    <glyph glyph-name="a" unicode="a" horiz-adv-x="501" 
d="M328 108q-31 -59 -77 -91t-103 -32q-55 0 -87.5 32.5t-32.5 88.5q0 81 63.5 120.5t173.5 60.5l94 17l5 34q3 20 3 38q0 52 -25 82t-71 30q-51 0 -82.5 -33.5t-31.5 -80.5q0 -22 5 -37l-82 -27q-6 23 -6 43q0 46 28.5 83.5t76.5 58.5t105 21q78 0 122 -38.5t44 -106.5
q0 -17 -3 -35l-38 -243q-1 -5 -1 -13q0 -20 11 -28.5t33 -10.5l24 -1l-2 -14l-151 -41h-14zM138 64.5q21 -22.5 57 -22.5q40 0 76.5 27.5t62.5 73.5l20 132l-91 -17q-59 -12 -102.5 -43.5t-43.5 -91.5q0 -36 21 -58.5z" />
    <glyph glyph-name="b" unicode="b" horiz-adv-x="557" 
d="M170.5 4.5q-38.5 19.5 -56.5 53.5l-68 -73h-14l98 614q1 5 1 13q0 19 -10.5 28t-34.5 11h-24l2 14l152 41h14l-50 -311q29 57 77 89t103 32q75 0 120.5 -58.5t45.5 -155.5q0 -84 -34 -157t-96 -116.5t-142 -43.5q-45 0 -83.5 19.5zM141 142q0 -50 31 -86.5t83 -36.5
q51 0 91.5 40t63 103.5t22.5 132.5q0 75 -30 121t-82 46q-44 0 -82.5 -27t-62.5 -73l-32 -198q-2 -14 -2 -22z" />
    <glyph glyph-name="c" unicode="c" horiz-adv-x="489" 
d="M125 13q-44 27 -68.5 76.5t-24.5 114.5q0 90 36.5 161.5t100 111t141.5 39.5q51 0 88 -17.5t57 -45.5t22 -58l-83 -25q-2 45 -24.5 81.5t-74.5 36.5q-48 0 -87.5 -33.5t-62 -90t-22.5 -122.5q0 -84 39 -134t109 -50q51 0 96 23t77 73l11 -4q-32 -81 -91 -122.5
t-137 -41.5q-58 0 -102 27z" />
    <glyph glyph-name="d" unicode="d" horiz-adv-x="550" 
d="M116.5 10.5q-40.5 25.5 -63 73t-22.5 109.5q0 92 35 166t97 115.5t139 41.5q92 0 131 -64l23 147q1 5 1 14q0 19 -11 27.5t-34 10.5l-24 1l2 14l153 41h14l-100 -614q-1 -5 -1 -14q0 -19 11 -27.5t34 -10.5l24 -1l-2 -14l-152 -41h-14l19 118q-29 -57 -72.5 -87.5
t-95.5 -30.5q-51 0 -91.5 25.5zM158 87.5q33 -44.5 87 -44.5q42 0 78.5 27t58.5 68l33 207q1 6 1 19q0 47 -29 83t-83 36q-52 0 -92.5 -38.5t-63.5 -102t-23 -133.5q0 -77 33 -121.5z" />
    <glyph glyph-name="e" unicode="e" horiz-adv-x="497" 
d="M85 47q-53 61 -53 160q0 86 36 156.5t100 111.5t144 41q76 0 117.5 -30.5t41.5 -77.5t-36 -77.5t-93.5 -48.5t-149.5 -37l-70 -15q1 -80 39.5 -127t105.5 -47q49 0 93.5 21.5t75.5 64.5l11 -6q-29 -72 -86 -111t-132 -39q-91 0 -144 61zM191 273q88 21 140 51.5t52 85.5
q0 31 -24 54.5t-64 23.5q-47 0 -84.5 -31.5t-60.5 -84.5t-27 -114z" />
    <glyph glyph-name="f" unicode="f" horiz-adv-x="306" 
d="M115 473h-85l4 28h85l8 50q13 80 66 125t133 45q95 0 118 -52l-72 -48q-3 32 -18 52t-43 20q-39 0 -64.5 -36t-34.5 -94l-10 -62h138l-4 -28h-139l-75 -473h-83z" />
    <glyph glyph-name="g" unicode="g" horiz-adv-x="497" 
d="M208.5 464q-29.5 -23 -46.5 -61t-17 -82q0 -54 27.5 -88t76.5 -34q35 0 64.5 23t46.5 61.5t17 82.5q0 54 -27.5 87.5t-75.5 33.5q-36 0 -65.5 -23zM-6.5 -19q36.5 32 81.5 46q-21 12 -31 30t-10 39q0 33 22.5 60t61.5 47q-61 42 -61 120q0 55 30 99t82 69t116 25
q49 0 86 -15h158l-5 -28h-106q47 -42 47 -111q0 -55 -30 -99t-81.5 -68.5t-114.5 -24.5q-64 0 -108 25q-19 -14 -30 -31.5t-11 -33.5q0 -18 16 -32t47 -16l156 -11q139 -11 139 -112q0 -52 -36.5 -90.5t-103.5 -59.5t-155 -21q-87 0 -141.5 30.5t-54.5 84.5q0 46 36.5 78z
M77 -157q44 -29 114 -29q47 0 91.5 13t73 38t28.5 60q0 31 -22 49.5t-76 22.5l-147 12q-30 3 -47 10q-26 -21 -42.5 -43.5t-16.5 -53.5q0 -50 44 -79z" />
    <glyph glyph-name="h" unicode="h" horiz-adv-x="582" 
d="M389 4q-19 18 -19 51q0 11 6 50l40 253q2 18 2 24q0 36 -19.5 56t-54.5 20q-76 0 -159 -82l-61 -376h-83l97 599q1 6 1 15q0 18 -10 26t-32 10l-26 1l2 14l151 41h14l-49 -301q50 54 98.5 82.5t99.5 28.5q55 0 85.5 -30.5t30.5 -84.5q0 -17 -3 -35l-41 -265
q-4 -26 -4 -35q0 -33 30 -33q12 0 24 6.5t29 25.5l10 -10q-45 -69 -106 -69q-34 0 -53 18z" />
    <glyph glyph-name="i" unicode="i" horiz-adv-x="267" 
d="M75 3.5q-19 17.5 -19 50.5q0 11 5 51l49 304q1 5 1 14q0 18 -11 27t-34 11h-24l2 14l152 41h14l-67 -416q-4 -28 -4 -35q0 -15 8 -24t21 -9t25.5 7t29.5 26l10 -10q-45 -69 -106 -69q-33 0 -52 17.5zM134 693q20 19 48 19q25 0 41.5 -16t16.5 -40q0 -26 -20 -45t-48 -19
q-25 0 -41.5 16t-16.5 39q0 27 20 46z" />
    <glyph glyph-name="j" unicode="j" horiz-adv-x="233" 
d="M5.5 -107.5q32.5 53.5 48.5 151.5l58 364q1 5 1 14q0 19 -11 28t-34 11h-23l2 14l151 41h14l-70 -441q-17 -115 -66.5 -181.5t-157.5 -105.5l-4 11q59 40 91.5 93.5zM138 694q20 19 48 19q25 0 41.5 -16t16.5 -40q0 -26 -20 -45t-48 -19q-25 0 -41.5 16t-16.5 39
q0 27 20 46z" />
    <glyph glyph-name="k" unicode="k" horiz-adv-x="531" 
d="M139 612q0 19 -11 28t-34 11h-23l2 14l151 41h14l-71 -450l230 192l18 15q29 24 47.5 35.5t37.5 11.5q9 0 18 -3l-18 -75q-12 6 -32 6q-40 0 -68 -24l-101 -84l133 -266q14 -27 29.5 -37.5t47.5 -12.5l-2 -14l-131 -10l-142 286l-74 -62l-34 -214h-83l95 599q1 5 1 13z
" />
    <glyph glyph-name="l" unicode="l" horiz-adv-x="268" 
d="M73.5 3.5q-19.5 17.5 -19.5 50.5q0 19 6 51l78 494l2 16q0 18 -10 25.5t-33 9.5l-26 1l2 14l151 41h14l-95 -605q-4 -19 -4 -36q0 -16 7.5 -24t21.5 -8q13 0 25 6.5t29 25.5l10 -10q-45 -69 -106 -69q-33 0 -52.5 17.5z" />
    <glyph glyph-name="m" unicode="m" horiz-adv-x="905" 
d="M712 4q-19 18 -19 51q0 11 6 50l40 253q2 18 2 24q0 36 -19.5 56t-54.5 20q-77 0 -161 -84l-1 -8l-58 -366h-83l56 358q2 16 2 24q0 36 -19.5 56t-54.5 20q-77 0 -160 -83l-60 -375h-83l65 409q1 5 1 14q0 18 -10 26.5t-32 10.5l-27 1l2 14l152 41h14l-18 -112
q101 112 199 112q55 0 86 -30.5t31 -85.5q50 57 99.5 86.5t102.5 29.5q55 0 86 -30.5t31 -85.5q0 -16 -3 -34l-42 -265q-4 -22 -4 -35q0 -33 30 -33q12 0 24 6.5t29 25.5l10 -10q-45 -69 -106 -69q-34 0 -53 18z" />
    <glyph glyph-name="n" unicode="n" horiz-adv-x="586" 
d="M393 4q-19 18 -19 51q0 11 6 50l40 253q2 18 2 24q0 36 -19.5 56t-54.5 20q-77 0 -160 -83l-60 -375h-83l65 409q1 5 1 14q0 18 -10 26.5t-32 10.5l-27 1l2 14l152 41h14l-18 -112q101 112 199 112q55 0 85.5 -30.5t30.5 -84.5q0 -17 -3 -35l-41 -265q-4 -22 -4 -35
q0 -33 30 -33q12 0 24 6.5t29 25.5l10 -10q-45 -69 -106 -69q-34 0 -53 18z" />
    <glyph glyph-name="o" unicode="o" horiz-adv-x="544" 
d="M85.5 46q-53.5 60 -53.5 164q0 84 37 154t101.5 111t143.5 41q91 0 144.5 -60t53.5 -164q0 -83 -36 -153t-100.5 -111.5t-145.5 -41.5q-91 0 -144.5 60zM157 70.5q33 -56.5 93 -56.5q51 0 89.5 39.5t59.5 102.5t21 130q0 89 -33 145.5t-91 56.5q-49 0 -88.5 -39
t-61.5 -101.5t-22 -130.5q0 -90 33 -146.5z" />
    <glyph glyph-name="p" unicode="p" horiz-adv-x="567" 
d="M111 423q0 19 -10.5 27t-31.5 10l-27 1l2 14l152 41h14l-18 -116q29 53 76.5 84.5t100.5 31.5q75 0 121 -58.5t46 -157.5q0 -83 -33.5 -155.5t-94 -116t-137.5 -43.5q-47 0 -83.5 19t-50.5 51l-40 -252h-83l96 606q1 5 1 14zM154 140q0 -51 29.5 -86t81.5 -35
q51 0 91.5 39.5t63 103.5t22.5 134q0 73 -30 117.5t-83 44.5q-45 0 -82.5 -25.5t-60.5 -69.5l-30 -197q-2 -18 -2 -26z" />
    <glyph glyph-name="q" unicode="q" horiz-adv-x="545" 
d="M300.5 16q-46.5 -31 -99.5 -31q-78 0 -124.5 56t-46.5 151q0 91 35.5 165t98.5 116.5t143 42.5q93 0 140 -68l63 68h14l-113 -713h-83l48 300q-29 -56 -75.5 -87zM155 87.5q30 -44.5 83 -44.5q43 0 82.5 27.5t60.5 67.5l34 211l1 13q0 48 -29.5 84.5t-83.5 36.5
q-51 0 -92 -38.5t-63.5 -101.5t-22.5 -134q0 -77 30 -121.5z" />
    <glyph glyph-name="r" unicode="r" horiz-adv-x="361" 
d="M111 422q0 19 -11 28t-34 11h-24l2 14l152 41h14l-21 -135q36 68 78 102t84 34q20 0 39 -9l-18 -81q-18 14 -50 14q-35 0 -72 -24t-67 -69l-55 -348h-83l65 409q1 5 1 13z" />
    <glyph glyph-name="s" unicode="s" horiz-adv-x="437" 
d="M66.5 17.5q-52.5 31.5 -68.5 80.5l78 41q5 -56 38 -90.5t85 -34.5q48 0 79.5 29.5t31.5 75.5q0 30 -15.5 50t-38.5 32t-63 27q-45 18 -72 32.5t-46 40.5t-19 67q0 67 53 107.5t133 40.5q67 0 114 -26t61 -70l-71 -39q-8 48 -39 77.5t-75 29.5q-46 0 -74 -26.5t-28 -66.5
q0 -37 27.5 -56.5t84.5 -40.5q48 -18 76 -33t48 -42.5t20 -70.5q0 -49 -26.5 -87t-71 -58.5t-98.5 -20.5q-71 0 -123.5 31.5z" />
    <glyph glyph-name="t" unicode="t" horiz-adv-x="323" 
d="M135 100q0 -32 16.5 -51t48.5 -19q23 0 37 7.5t33 22.5l6 -5q-17 -27 -48 -48.5t-75 -21.5q-48 0 -75 28t-27 78q0 19 2 30l56 352h-54l2 14l143 125h14l-17 -111h148l-4 -28h-149l-55 -350q-2 -16 -2 -23z" />
    <glyph glyph-name="u" unicode="u" horiz-adv-x="555" 
d="M99.5 18.5q-33.5 33.5 -33.5 87.5q0 19 2 29l44 266q4 22 4 35q0 34 -30 34q-12 0 -24 -7t-30 -25l-10 9q46 69 107 69q33 0 52 -17.5t19 -51.5q0 -17 -5 -50l-42 -254q-2 -16 -2 -22q0 -36 21 -57t58 -21q79 0 154 79l60 379h83l-64 -408q-1 -6 -1 -16q0 -18 10 -26
t31 -10l27 -1l-2 -14l-146 -41h-14l12 108q-43 -53 -91.5 -80.5t-99.5 -27.5q-56 0 -89.5 33.5z" />
    <glyph glyph-name="v" unicode="v" horiz-adv-x="457" 
d="M53 474q-14 12 -46 13l2 14l132 11l103 -410l151 267q10 16 10 33q0 21 -13.5 40t-35.5 34l50 43q47 -27 47 -76q0 -33 -20 -66l-229 -392h-13l-117 449q-7 28 -21 40z" />
    <glyph glyph-name="w" unicode="w" horiz-adv-x="752" 
d="M348 474q-14 12 -46 13l2 14l132 11l104 -410l150 267q10 16 10 34q0 20 -13.5 39t-34.5 34l49 43q47 -27 47 -76q0 -33 -20 -66l-229 -392h-13l-87 334l-195 -334h-13l-117 449q-7 28 -21 40t-46 13l2 14l132 11l103 -410l145 254l-20 78q-7 28 -21 40z" />
    <glyph glyph-name="x" unicode="x" horiz-adv-x="483" 
d="M69.5 474.5q-16.5 11.5 -48.5 12.5l2 14l146 11l101 -205l100 126q32 40 54.5 58.5t52.5 18.5q12 0 24 -3l-20 -73q-13 6 -31 6q-40 0 -65 -32l-102 -127l107 -217q12 -24 29 -36t47 -14l-2 -14l-141 -10l-111 222l-111 -138q-33 -40 -56 -58.5t-52 -18.5q-11 0 -23 3
l20 73q18 -6 30 -6q39 0 66 32l114 138l-101 202q-13 24 -29.5 35.5z" />
    <glyph glyph-name="y" unicode="y" horiz-adv-x="456" 
d="M35 -142q41 0 70.5 28t64.5 90l16 28l-112 430q-8 28 -22 40t-45 13l2 14l135 11l102 -413l150 270q9 14 9 33q0 21 -13.5 40t-35.5 34l50 43q46 -25 46 -75q0 -33 -20 -67l-234 -403q-38 -66 -63.5 -102t-62.5 -60t-87 -24q-27 0 -56 12l41 81q26 -23 65 -23z" />
    <glyph glyph-name="z" unicode="z" horiz-adv-x="451" 
d="M-20 9l384 426h-195q-39 0 -60.5 -20.5t-41.5 -77.5h-13l35 164h364l2 -11l-389 -430q40 22 89 22q30 0 80 -10q40 -9 62 -9q35 0 60 22t43 80l13 -4l-10 -37q-18 -73 -46 -100t-71 -27q-24 0 -73 9q-66 12 -111 12q-59 0 -115 -19z" />
    <glyph glyph-name="braceleft" unicode="{" horiz-adv-x="301" 
d="M57 -67q0 11 2 27l31 196q4 34 4 47q0 32 -17.5 48.5t-54.5 25.5l2 14q49 11 73 38t34 85l31 200q12 73 64 110t136 39l-2 -14q-52 -8 -83 -39t-40 -92l-32 -202q-9 -54 -38.5 -87.5t-91.5 -45.5q92 -18 92 -92q0 -15 -4 -37l-31 -198q-3 -15 -3 -35q0 -87 84 -100
l-2 -14q-154 5 -154 126z" />
    <glyph glyph-name="bar" unicode="|" horiz-adv-x="167" 
d="M152 788h33l-158 -1000h-33z" />
    <glyph glyph-name="braceright" unicode="}" horiz-adv-x="301" 
d="M35.5 -137q32.5 35 41.5 93l31 198q10 57 38.5 89.5t91.5 43.5q-90 19 -90 102q0 7 2 27l32 202q2 18 2 25q0 43 -22 71t-62 35l2 14q72 -1 113 -34.5t41 -89.5q0 -7 -2 -25l-31 -200q-4 -30 -4 -40q0 -37 17 -56t54 -27l-2 -14q-52 -10 -75 -37t-31 -84l-31 -196
q-11 -71 -63.5 -111t-137.5 -42l3 14q50 7 82.5 42z" />
    <glyph glyph-name="asciitilde" unicode="~" horiz-adv-x="368" 
d="M214 285q-16 7 -37 21q-22 14 -35 20t-27 6q-38 0 -61 -52l-13 1q12 50 39.5 78.5t63.5 28.5q17 0 32.5 -7t38.5 -21q21 -13 35 -19.5t27 -6.5q38 0 60 51h14q-12 -49 -40 -78t-64 -29q-17 0 -33 7z" />
    <glyph glyph-name="uni00A0" unicode="&#xa0;" horiz-adv-x="200" 
 />
    <glyph glyph-name="exclamdown" unicode="&#xa1;" horiz-adv-x="244" 
d="M103 -164h-98l117 467h13zM107.5 497q19.5 19 46.5 19q24 0 40 -16.5t16 -40.5q0 -27 -19.5 -46t-46.5 -19q-25 0 -40.5 16.5t-15.5 39.5q0 28 19.5 47z" />
    <glyph glyph-name="cent" unicode="&#xa2;" horiz-adv-x="489" 
d="M66.5 362q34.5 70 95.5 110.5t136 43.5l15 97h31l-15 -98q67 -5 106 -40t42 -80l-83 -25q-2 45 -24.5 81.5t-74.5 36.5q-48 0 -87.5 -33.5t-62 -90t-22.5 -122.5q0 -84 39 -134t109 -50q51 0 96 23t77 73l11 -4q-30 -75 -84 -116.5t-125 -46.5l-17 -104h-31l17 103
q-83 5 -133 64.5t-50 153.5q0 88 34.5 158z" />
    <glyph glyph-name="sterling" unicode="&#xa3;" horiz-adv-x="554" 
d="M283 -7q-23 7 -58 22q-32 14 -54.5 21t-48.5 7q-56 0 -131 -43l-9 13q81 74 125.5 141t45.5 136q0 23 -2 35h-118l5 32h107l-6 28q-12 54 -12 81q0 64 30.5 113t85.5 76t127 27q71 0 123.5 -35.5t64.5 -107.5l-93 -28q-6 63 -35 103t-79 40q-60 0 -97.5 -40.5
t-37.5 -107.5q0 -17 3.5 -38t8.5 -42q11 -50 13 -69h235l-5 -32h-228q-1 -70 -43.5 -130.5t-117.5 -120.5q70 35 123 35q24 0 43 -6t45 -18q29 -12 46 -17.5t40 -5.5q44 0 78.5 23t55.5 60l12 -3q-23 -77 -75.5 -116.5t-115.5 -39.5q-28 0 -51 7z" />
    <glyph glyph-name="currency" unicode="&#xa4;" horiz-adv-x="573" 
d="M183.5 31q-38.5 16 -67.5 45l-96 -87l-21 22l98 88q-41 57 -41 132q0 50 18.5 94t50.5 78l-76 84l26 22l75 -83q33 27 74.5 42t84.5 15q44 0 82 -15.5t66 -44.5l99 89l19 -22l-99 -90q40 -58 40 -132q0 -50 -18 -94.5t-51 -78.5l77 -87l-24 -22l-77 87q-33 -28 -74 -43
t-84 -15t-81.5 16zM111.5 137.5q23.5 -42.5 65 -67t91.5 -24.5q55 0 105 28.5t80.5 78.5t30.5 112q0 53 -23 96t-64 67t-91 24q-57 0 -107 -28.5t-80.5 -78.5t-30.5 -111q0 -54 23.5 -96.5z" />
    <glyph glyph-name="yen" unicode="&#xa5;" horiz-adv-x="639" 
d="M98 314h182l-122 257q-22 45 -40.5 62t-49.5 21l2 14h246l-3 -14q-36 -2 -51 -9.5t-15 -24.5t15 -49l106 -225l177 225q30 38 30 55q0 13 -16.5 19.5t-50.5 8.5l3 14h190l-3 -14q-35 -4 -59.5 -20.5t-60.5 -62.5l-204 -257h181l-4 -32h-184l-30 -193q-2 -16 -2 -21
q0 -29 18 -40.5t59 -13.5l-2 -14h-264l2 14q48 3 70.5 18t28.5 57l31 193h-184z" />
    <glyph glyph-name="brokenbar" unicode="&#xa6;" horiz-adv-x="167" 
d="M27 -212h-33l62 390h33zM152 788h33l-62 -390h-33z" />
    <glyph glyph-name="section" unicode="&#xa7;" horiz-adv-x="468" 
d="M52.5 -179q-34.5 33 -36.5 86l101 21q-3 -48 13.5 -79.5t50.5 -31.5q32 0 52 27t20 69q0 44 -20 87t-63 113q-35 56 -57 96t-37 89t-15 101q0 77 32.5 142t90 103t128.5 38q68 0 102.5 -33.5t36.5 -84.5l-101 -22q3 45 -14 78t-50 33q-32 0 -53.5 -29.5t-21.5 -75.5
q0 -47 21 -90t64 -108q35 -53 56 -90t36 -84.5t15 -100.5q0 -79 -33 -145t-90.5 -104t-127.5 -38q-65 0 -99.5 33zM120 273.5q27 -62.5 78 -145.5q44 -73 65 -119t21 -92q0 -39 -15 -66q50 38 76 93.5t26 122.5q0 51 -14.5 97.5t-35.5 83.5t-56 90q-44 65 -65 108.5
t-21 91.5q0 26 7.5 52t18.5 40q-53 -39 -82.5 -98t-29.5 -127q0 -69 27 -131.5z" />
    <glyph glyph-name="dieresis" unicode="&#xa8;" horiz-adv-x="395" 
d="M129 606.5q-16 15.5 -16 38.5q0 26 20 45t47 19q25 0 41 -16t16 -39q0 -26 -19.5 -44.5t-47.5 -18.5q-25 0 -41 15.5zM309 690q20 19 47 19q24 0 40.5 -16t16.5 -39q0 -26 -19.5 -44.5t-47.5 -18.5q-25 0 -41 15.5t-16 38.5q0 26 20 45z" />
    <glyph glyph-name="copyright" unicode="&#xa9;" horiz-adv-x="805" 
d="M319 149.5q-44 26.5 -68.5 74.5t-24.5 110q0 63 24.5 111t68.5 74.5t101 26.5q64 0 106.5 -34.5t58.5 -94.5l-30 -8q-9 49 -46 79t-89 30q-76 0 -120 -49.5t-44 -134.5t44 -134t120 -49q50 0 87.5 29.5t49.5 78.5l28 -6q-15 -58 -60.5 -94t-104.5 -36q-57 0 -101 26.5z
M115 508q47 80 126.5 127t173.5 47t174.5 -47t127.5 -127t47 -174t-47 -174t-127.5 -127t-174.5 -47t-173.5 47t-126.5 127t-47 174t47 174zM138 173.5q43 -73.5 117 -117t160 -43.5q87 0 161 43.5t117.5 117t43.5 160.5t-43.5 160.5t-117.5 117t-161 43.5q-86 0 -160 -43.5
t-117 -117t-43 -160.5t43 -160.5z" />
    <glyph glyph-name="ordfeminine" unicode="&#xaa;" horiz-adv-x="323" 
d="M92 638q0 45 41 74.5t99 29.5q53 0 82.5 -25t29.5 -68q0 -13 -1 -19l-23 -137q-2 -16 5 -23.5t23 -9.5h12l-1 -9l-111 -30h-9l8 68q-19 -32 -47 -50t-61 -18q-34 0 -55 19.5t-21 52.5q0 50 41 72.5t96 33.5l66 13l4 24q2 18 2 25q0 29 -12 46.5t-37 17.5q-28 0 -45.5 -20
t-17.5 -49q0 -12 3 -23l-67 -20q-4 16 -4 25zM151.5 477.5q11.5 -12.5 30.5 -12.5q42 0 68 47l13 83l-51 -10q-28 -6 -50 -26t-22 -49q0 -20 11.5 -32.5z" />
    <glyph glyph-name="guillemotleft" unicode="&#xab;" horiz-adv-x="394" 
d="M218 432l7 -7l-100 -120l63 -112l-10 -9l-133 118l2 12zM208 314l172 118l7 -7l-101 -120l63 -112l-10 -9l-133 118z" />
    <glyph glyph-name="logicalnot" unicode="&#xac;" horiz-adv-x="503" 
d="M51 347h416l-5 -33l-41 -261h-34l41 261h-382z" />
    <glyph glyph-name="registered" unicode="&#xae;" horiz-adv-x="805" 
d="M273 543h145q53 0 84.5 -30.5t31.5 -80.5q0 -38 -23 -66t-61 -38l136 -204h-37l-133 199h-113v-199h-30v419zM115 508q47 80 126.5 127t173.5 47t174.5 -47t127.5 -127t47 -174t-47 -174t-127.5 -127t-174.5 -47t-173.5 47t-126.5 127t-47 174t47 174zM138 173.5
q43 -73.5 117 -117t160 -43.5q87 0 161 43.5t117.5 117t43.5 160.5t-43.5 160.5t-117.5 117t-161 43.5q-86 0 -160 -43.5t-117 -117t-43 -160.5t43 -160.5zM417 351q41 0 64 22t23 59q0 38 -23 60.5t-63 22.5h-115v-164h114z" />
    <glyph glyph-name="macron" unicode="&#xaf;" horiz-adv-x="357" 
d="M109 621h256l-4 -33h-257z" />
    <glyph glyph-name="degree" unicode="&#xb0;" horiz-adv-x="303" 
d="M118.5 486.5q-33.5 33.5 -33.5 80.5t34 80t81 33t80.5 -33t33.5 -80q0 -48 -34 -81t-81 -33t-80.5 33.5zM141 508q24 -24 60 -24q35 0 58 24t23 59q0 34 -24.5 58t-59.5 24t-58 -23.5t-23 -58.5t24 -59z" />
    <glyph glyph-name="plusminus" unicode="&#xb1;" horiz-adv-x="492" 
d="M310 569l-30 -192h192l-5 -32h-193l-30 -192h-32l30 192h-191l5 32h192l30 192h32zM0 21h416l-5 -32h-416z" />
    <glyph glyph-name="uni00B2" unicode="&#xb2;" horiz-adv-x="313" 
d="M26 375l133 126q50 47 78.5 85.5t28.5 80.5q0 30 -16.5 47t-45.5 17q-30 0 -59.5 -17.5t-46.5 -48.5l-8 2q17 45 56 77t96 32q49 0 77.5 -26.5t28.5 -73.5q0 -44 -27 -82t-67 -68t-109 -74l-38 -24h135q37 0 52.5 12t32.5 50h9l-37 -123h-274z" />
    <glyph glyph-name="uni00B3" unicode="&#xb3;" horiz-adv-x="321" 
d="M136.5 405.5q16.5 -30.5 49.5 -30.5t55 30t22 74q0 85 -107 89l2 8q56 9 86.5 35t30.5 61q0 27 -17.5 43t-46.5 16q-32 0 -60.5 -17.5t-45.5 -48.5l-6 2q15 44 54 76.5t98 32.5q48 0 77 -24.5t29 -64.5q0 -44 -33.5 -72.5t-90.5 -38.5q52 -3 81.5 -27.5t29.5 -65.5
q0 -59 -49 -91.5t-119 -32.5q-60 0 -97.5 24.5t-37.5 70.5l81 23q-2 -41 14.5 -71.5z" />
    <glyph glyph-name="acute" unicode="&#xb4;" horiz-adv-x="260" 
d="M191 728h95l-172 -162h-14z" />
    <glyph glyph-name="uni00B5" unicode="&#xb5;" horiz-adv-x="527" 
d="M100 502h32l-51 -326q-2 -9 -2 -28q0 -56 33.5 -93.5t95.5 -37.5q57 0 105.5 32.5t82 92t45.5 138.5l35 222h33l-79 -502h-33l21 131q-29 -63 -86 -104t-129 -41q-52 0 -87.5 24t-50.5 61l-43 -269h-33z" />
    <glyph glyph-name="paragraph" unicode="&#xb6;" horiz-adv-x="546" 
d="M113 405q-39 38 -39 100q0 73 52 118t138 45h309l-5 -30h-68l-135 -850h-36l135 848h-170l-134 -848h-36l92 579q-64 0 -103 38z" />
    <glyph glyph-name="periodcentered" unicode="&#xb7;" horiz-adv-x="223" 
d="M82 303.5q-16 16.5 -16 40.5q0 27 19.5 46t46.5 19q25 0 40.5 -16.5t15.5 -39.5q0 -28 -19.5 -47t-46.5 -19q-24 0 -40 16.5z" />
    <glyph glyph-name="cedilla" unicode="&#xb8;" horiz-adv-x="253" 
d="M-22 -207l2 14q10 -1 28 -1q34 2 55 18t21 41q0 38 -52 48l60 87h18l-27 -55q27 -5 43 -21.5t16 -45.5q0 -42 -33 -66t-85 -24q-19 0 -46 5z" />
    <glyph glyph-name="uni00B9" unicode="&#xb9;" horiz-adv-x="249" 
d="M103.5 385q14.5 8 18.5 32l46 284h-65l1 8q46 9 78.5 24t65.5 40h8l-57 -356q-1 -4 -1 -11q0 -16 11 -22.5t37 -8.5l-1 -8h-197l1 8q40 2 54.5 10z" />
    <glyph glyph-name="ordmasculine" unicode="&#xba;" horiz-adv-x="344" 
d="M104 458q-36 37 -36 100q0 52 23.5 94t65 66t92.5 24q59 0 94.5 -36.5t35.5 -99.5q0 -52 -23.5 -94.5t-64.5 -66.5t-92 -24q-59 0 -95 37zM164 471.5q17 -33.5 47 -33.5q28 0 48.5 25.5t31.5 64.5t11 77q0 54 -17 87t-47 33q-27 0 -48 -25.5t-32 -64t-11 -77.5
q0 -53 17 -86.5z" />
    <glyph glyph-name="guillemotright" unicode="&#xbb;" horiz-adv-x="394" 
d="M194 184l-7 7l100 120l-63 112l10 9l133 -118l-2 -12zM33 184l-7 7l100 120l-63 112l10 9l133 -118l-2 -12z" />
    <glyph glyph-name="onequarter" unicode="&#xbc;" horiz-adv-x="761" 
d="M87.5 285q14.5 8 18.5 32l46 284h-65l1 8q46 9 78.5 24t65.5 40h8l-57 -356q-1 -4 -1 -11q0 -16 11 -22.5t37 -8.5l-1 -8h-197l1 8q40 2 54.5 10zM587 668h30l-474 -668h-31zM560 20q13 8 16 30l10 63h-184l2 12l242 276h63l-43 -270h66l-3 -18h-66l-10 -63
q-3 -23 7.5 -31t39.5 -11l-1 -8h-192l1 8q39 4 52 12zM589 131l34 218l-192 -218h158z" />
    <glyph glyph-name="onehalf" unicode="&#xbd;" horiz-adv-x="729" 
d="M87.5 285q14.5 8 18.5 32l46 284h-65l1 8q46 9 78.5 24t65.5 40h8l-57 -356q-1 -4 -1 -11q0 -16 11 -22.5t37 -8.5l-1 -8h-197l1 8q40 2 54.5 10zM587 668h30l-474 -668h-31zM384 8l133 126q50 47 78.5 85.5t28.5 80.5q0 30 -16.5 47t-45.5 17q-30 0 -59.5 -17.5
t-46.5 -48.5l-8 2q17 45 56 77t96 32q49 0 77.5 -26.5t28.5 -73.5q0 -44 -27 -82t-67 -68t-109 -74l-38 -24h135q37 0 52.5 12t32.5 50h9l-37 -123h-274z" />
    <glyph glyph-name="threequarters" unicode="&#xbe;" horiz-adv-x="833" 
d="M120.5 305.5q16.5 -30.5 49.5 -30.5t55 30t22 74q0 85 -107 89l2 8q56 9 86.5 35t30.5 61q0 27 -17.5 43t-46.5 16q-32 0 -60.5 -17.5t-45.5 -48.5l-6 2q15 44 54 76.5t98 32.5q48 0 77 -24.5t29 -64.5q0 -44 -33.5 -72.5t-90.5 -38.5q52 -3 81.5 -27.5t29.5 -65.5
q0 -59 -49 -91.5t-119 -32.5q-60 0 -97.5 24.5t-37.5 70.5l81 23q-2 -41 14.5 -71.5zM659 668h30l-474 -668h-31zM631 20q13 8 16 30l10 63h-184l2 12l242 276h63l-43 -270h66l-3 -18h-66l-10 -63q-3 -23 7.5 -31t39.5 -11l-1 -8h-192l1 8q39 4 52 12zM660 131l34 218
l-192 -218h158z" />
    <glyph glyph-name="questiondown" unicode="&#xbf;" horiz-adv-x="412" 
d="M212 288q0 -50 -23.5 -86.5t-71.5 -85.5q-44 -45 -68 -78.5t-31 -78.5q-2 -18 -2 -24q0 -43 24.5 -68t65.5 -25q50 0 91.5 44.5t59.5 110.5l82 -24q-14 -42 -47.5 -78.5t-82.5 -58.5t-106 -22q-83 0 -129.5 35t-46.5 96q0 8 2 26q6 39 27 71.5t48 56.5t70 57
q59 45 89 78.5t34 76.5h14q1 -8 1 -23zM172.5 489q19.5 19 46.5 19q24 0 40 -16.5t16 -40.5q0 -27 -19.5 -46t-46.5 -19q-25 0 -40.5 16.5t-15.5 39.5q0 28 19.5 47z" />
    <glyph glyph-name="Agrave" unicode="&#xc0;" horiz-adv-x="735" 
d="M634 34.5q19 -17.5 59 -20.5l-3 -14h-257l3 14q39 2 55.5 12t16.5 33q0 12 -7 38l-33 123h-286l-72 -123q-20 -35 -20 -52q0 -15 15 -22t47 -9l-3 -14h-185l3 14q40 4 63 21t50 62l344 586h16l163 -586q12 -45 31 -62.5zM461 248l-83 310l-180 -310h263zM398 895l66 -162
h-14l-146 162h94z" />
    <glyph glyph-name="Aacute" unicode="&#xc1;" horiz-adv-x="735" 
d="M634 34.5q19 -17.5 59 -20.5l-3 -14h-257l3 14q39 2 55.5 12t16.5 33q0 12 -7 38l-33 123h-286l-72 -123q-20 -35 -20 -52q0 -15 15 -22t47 -9l-3 -14h-185l3 14q40 4 63 21t50 62l344 586h16l163 -586q12 -45 31 -62.5zM461 248l-83 310l-180 -310h263zM507 895h95
l-172 -162h-14z" />
    <glyph glyph-name="Acircumflex" unicode="&#xc2;" horiz-adv-x="735" 
d="M634 34.5q19 -17.5 59 -20.5l-3 -14h-257l3 14q39 2 55.5 12t16.5 33q0 12 -7 38l-33 123h-286l-72 -123q-20 -35 -20 -52q0 -15 15 -22t47 -9l-3 -14h-185l3 14q40 4 63 21t50 62l344 586h16l163 -586q12 -45 31 -62.5zM461 248l-83 310l-180 -310h263zM431 896h82
l70 -162h-14l-105 111l-141 -111h-14z" />
    <glyph glyph-name="Atilde" unicode="&#xc3;" horiz-adv-x="735" 
d="M634 34.5q19 -17.5 59 -20.5l-3 -14h-257l3 14q39 2 55.5 12t16.5 33q0 12 -7 38l-33 123h-286l-72 -123q-20 -35 -20 -52q0 -15 15 -22t47 -9l-3 -14h-185l3 14q40 4 63 21t50 62l344 586h16l163 -586q12 -45 31 -62.5zM461 248l-83 310l-180 -310h263zM335.5 826.5
q27.5 28.5 63.5 28.5q17 0 32.5 -7t38.5 -21q21 -13 35 -19.5t27 -6.5q38 0 60 51h14q-12 -49 -40 -78t-64 -29q-17 0 -33 7t-37 21q-22 14 -35 20t-27 6q-38 0 -61 -52l-13 1q12 50 39.5 78.5z" />
    <glyph glyph-name="Adieresis" unicode="&#xc4;" horiz-adv-x="735" 
d="M634 34.5q19 -17.5 59 -20.5l-3 -14h-257l3 14q39 2 55.5 12t16.5 33q0 12 -7 38l-33 123h-286l-72 -123q-20 -35 -20 -52q0 -15 15 -22t47 -9l-3 -14h-185l3 14q40 4 63 21t50 62l344 586h16l163 -586q12 -45 31 -62.5zM461 248l-83 310l-180 -310h263zM326.5 856.5
q19.5 18.5 47.5 18.5q24 0 40.5 -15.5t16.5 -39.5q0 -25 -20 -44t-47 -19q-25 0 -41 16t-16 38q0 27 19.5 45.5zM502 856.5q20 18.5 47 18.5q25 0 41 -15.5t16 -39.5q0 -26 -19.5 -44.5t-47.5 -18.5q-24 0 -40.5 16t-16.5 38q0 27 20 45.5z" />
    <glyph glyph-name="Aring" unicode="&#xc5;" horiz-adv-x="735" 
d="M634 34.5q19 -17.5 59 -20.5l-3 -14h-257l3 14q39 2 55.5 12t16.5 33q0 12 -7 38l-33 123h-286l-72 -123q-20 -35 -20 -52q0 -15 15 -22t47 -9l-3 -14h-185l3 14q40 4 63 21t50 62l344 586h16l163 -586q12 -45 31 -62.5zM461 248l-83 310l-180 -310h263zM387.5 878
q31.5 29 76.5 29q40 0 62.5 -23t22.5 -59q0 -43 -31.5 -72t-76.5 -29q-39 0 -62 23t-23 59q0 43 31.5 72zM406 769.5q15 -16.5 40 -16.5q28 0 48.5 20t20.5 50q0 24 -14.5 39.5t-40.5 15.5q-28 0 -48.5 -19.5t-20.5 -48.5q0 -24 15 -40.5z" />
    <glyph glyph-name="AE" unicode="&#xc6;" horiz-adv-x="981" 
d="M358 14q49 3 72 18t29 57l24 148h-239l-107 -132q-28 -36 -28 -55q0 -27 57 -36l-2 -14h-200l3 14q39 8 71.5 30t64.5 61l381 471q19 23 19 40q0 29 -73 38l3 14h543l-3 -179h-14q-5 75 -39 113t-100 38h-183l-45 -283h137q45 0 64.5 22t29.5 73h14l-35 -219h-14
q2 24 2 34q0 32 -14 47t-51 15h-138l-38 -240q-1 -7 -1 -18q0 -22 10.5 -32.5t32.5 -10.5h144q66 0 112 38t75 114h14l-54 -180h-527zM487 265l54 339l-274 -339h220z" />
    <glyph glyph-name="Ccedilla" unicode="&#xc7;" horiz-adv-x="659" 
d="M308 -15l-20 -40q27 -5 43 -21.5t16 -45.5q0 -42 -33 -66t-85 -24q-19 0 -46 5l2 14q10 -1 28 -1q34 2 55 18t21 41q0 38 -52 48l51 73q-68 7 -121.5 47t-83 104t-29.5 143q0 110 50.5 202.5t137.5 146.5t190 54q96 0 156 -39t70 -108l-93 -28q-5 68 -44.5 108t-104.5 40
q-72 0 -132 -47.5t-95 -126t-35 -166.5q0 -75 27 -133.5t75.5 -90.5t110.5 -32q81 0 145.5 38.5t96.5 109.5l12 -3q-38 -105 -120 -162.5t-185 -57.5h-8z" />
    <glyph glyph-name="Egrave" unicode="&#xc8;" horiz-adv-x="620" 
d="M68.5 32q23.5 16 29.5 57l78 491q2 14 2 19q0 28 -18.5 41t-61.5 14l2 14h506l26 -179h-14q-18 81 -56 116t-114 35h-172l-45 -283h137q45 0 64.5 22t29.5 73h14l-35 -219h-14q2 24 2 34q0 32 -14 47t-51 15h-137l-38 -240q-2 -16 -2 -21q0 -40 37 -40h150q68 0 112 33
t74 114h14l-53 -175h-527l2 14q49 2 72.5 18zM348 895l66 -162h-14l-146 162h94z" />
    <glyph glyph-name="Eacute" unicode="&#xc9;" horiz-adv-x="620" 
d="M68.5 32q23.5 16 29.5 57l78 491q2 14 2 19q0 28 -18.5 41t-61.5 14l2 14h506l26 -179h-14q-18 81 -56 116t-114 35h-172l-45 -283h137q45 0 64.5 22t29.5 73h14l-35 -219h-14q2 24 2 34q0 32 -14 47t-51 15h-137l-38 -240q-2 -16 -2 -21q0 -40 37 -40h150q68 0 112 33
t74 114h14l-53 -175h-527l2 14q49 2 72.5 18zM456 895h95l-172 -162h-14z" />
    <glyph glyph-name="Ecircumflex" unicode="&#xca;" horiz-adv-x="620" 
d="M68.5 32q23.5 16 29.5 57l78 491q2 14 2 19q0 28 -18.5 41t-61.5 14l2 14h506l26 -179h-14q-18 81 -56 116t-114 35h-172l-45 -283h137q45 0 64.5 22t29.5 73h14l-35 -219h-14q2 24 2 34q0 32 -14 47t-51 15h-137l-38 -240q-2 -16 -2 -21q0 -40 37 -40h150q68 0 112 33
t74 114h14l-53 -175h-527l2 14q49 2 72.5 18zM380 896h82l70 -162h-14l-105 111l-141 -111h-14z" />
    <glyph glyph-name="Edieresis" unicode="&#xcb;" horiz-adv-x="620" 
d="M68.5 32q23.5 16 29.5 57l78 491q2 14 2 19q0 28 -18.5 41t-61.5 14l2 14h506l26 -179h-14q-18 81 -56 116t-114 35h-172l-45 -283h137q45 0 64.5 22t29.5 73h14l-35 -219h-14q2 24 2 34q0 32 -14 47t-51 15h-137l-38 -240q-2 -16 -2 -21q0 -40 37 -40h150q68 0 112 33
t74 114h14l-53 -175h-527l2 14q49 2 72.5 18zM275.5 856.5q19.5 18.5 47.5 18.5q24 0 40.5 -15.5t16.5 -39.5q0 -25 -20 -44t-47 -19q-25 0 -41 16t-16 38q0 27 19.5 45.5zM451 856.5q20 18.5 47 18.5q25 0 41 -15.5t16 -39.5q0 -26 -19.5 -44.5t-47.5 -18.5q-24 0 -40.5 16
t-16.5 38q0 27 20 45.5z" />
    <glyph glyph-name="Igrave" unicode="&#xcc;" horiz-adv-x="338" 
d="M68 32q23 16 30 57l78 491q2 16 2 21q0 27 -18.5 39.5t-61.5 13.5l2 14h270l-2 -14q-49 -2 -72 -16.5t-29 -55.5l-79 -493q-2 -14 -2 -19q0 -29 19 -41.5t61 -14.5l-2 -14h-270l2 14q49 2 72 18zM202 895l66 -162h-14l-146 162h94z" />
    <glyph glyph-name="Iacute" unicode="&#xcd;" horiz-adv-x="338" 
d="M68 32q23 16 30 57l78 491q2 16 2 21q0 27 -18.5 39.5t-61.5 13.5l2 14h270l-2 -14q-49 -2 -72 -16.5t-29 -55.5l-79 -493q-2 -14 -2 -19q0 -29 19 -41.5t61 -14.5l-2 -14h-270l2 14q49 2 72 18zM310 895h95l-172 -162h-14z" />
    <glyph glyph-name="Icircumflex" unicode="&#xce;" horiz-adv-x="338" 
d="M68 32q23 16 30 57l78 491q2 16 2 21q0 27 -18.5 39.5t-61.5 13.5l2 14h270l-2 -14q-49 -2 -72 -16.5t-29 -55.5l-79 -493q-2 -14 -2 -19q0 -29 19 -41.5t61 -14.5l-2 -14h-270l2 14q49 2 72 18zM234 896h82l70 -162h-14l-105 111l-141 -111h-14z" />
    <glyph glyph-name="Idieresis" unicode="&#xcf;" horiz-adv-x="338" 
d="M68 32q23 16 30 57l78 491q2 16 2 21q0 27 -18.5 39.5t-61.5 13.5l2 14h270l-2 -14q-49 -2 -72 -16.5t-29 -55.5l-79 -493q-2 -14 -2 -19q0 -29 19 -41.5t61 -14.5l-2 -14h-270l2 14q49 2 72 18zM129.5 856.5q19.5 18.5 47.5 18.5q24 0 40.5 -15.5t16.5 -39.5
q0 -25 -20 -44t-47 -19q-25 0 -41 16t-16 38q0 27 19.5 45.5zM305 856.5q20 18.5 47 18.5q25 0 41 -15.5t16 -39.5q0 -26 -19.5 -44.5t-46.5 -18.5q-25 0 -41.5 16t-16.5 38q0 27 20 45.5z" />
    <glyph glyph-name="Eth" unicode="&#xd0;" horiz-adv-x="722" 
d="M615.5 593q80.5 -75 80.5 -203q0 -111 -52 -200t-143 -139.5t-203 -50.5h-304l2 14q50 3 73 18t29 57l37 230h-110l4 28h110l37 233q1 6 1 17q0 31 -18 43t-62 14l3 14h286q149 0 229.5 -75zM187 75q0 -30 27 -38.5t85 -8.5q85 0 153 49.5t107 131.5t39 176
q0 71 -26 128.5t-78.5 92t-129.5 34.5h-89l-46 -293h115l-4 -28h-116l-36 -232q-1 -4 -1 -12z" />
    <glyph glyph-name="Ntilde" unicode="&#xd1;" horiz-adv-x="736" 
d="M77 35q22 17 29 62l80 508q-17 25 -37 36.5t-52 12.5l3 14h165l302 -528l69 431q2 16 2 22q0 32 -21 45.5t-73 15.5l3 14h222l-3 -14q-52 -3 -73.5 -20t-28.5 -63l-93 -586h-24l-338 585l-75 -473q-2 -16 -2 -23q0 -31 21 -44t73 -16l-3 -14h-222l2 14q52 4 74 21z
M338.5 826.5q27.5 28.5 63.5 28.5q17 0 32.5 -7t38.5 -21q21 -13 35 -19.5t27 -6.5q38 0 60 51h14q-12 -49 -40 -78t-64 -29q-17 0 -33 7t-37 21q-22 14 -35 20t-27 6q-38 0 -61 -52l-13 1q12 50 39.5 78.5z" />
    <glyph glyph-name="Ograve" unicode="&#xd2;" horiz-adv-x="758" 
d="M187 24q-65 38 -99 105.5t-34 154.5q0 109 52 200.5t141 144.5t197 53q89 0 154 -38t99 -105t34 -154q0 -109 -51.5 -200.5t-140.5 -145t-197 -53.5q-90 0 -155 38zM178 146q25 -62 71.5 -97t106.5 -35q80 0 143 52.5t98 138t35 178.5q0 76 -24.5 138t-70.5 97.5
t-108 35.5q-80 0 -143 -53t-98 -138t-35 -178q0 -77 25 -139zM408 895l66 -162h-14l-146 162h94z" />
    <glyph glyph-name="Oacute" unicode="&#xd3;" horiz-adv-x="758" 
d="M187 24q-65 38 -99 105.5t-34 154.5q0 109 52 200.5t141 144.5t197 53q89 0 154 -38t99 -105t34 -154q0 -109 -51.5 -200.5t-140.5 -145t-197 -53.5q-90 0 -155 38zM178 146q25 -62 71.5 -97t106.5 -35q80 0 143 52.5t98 138t35 178.5q0 76 -24.5 138t-70.5 97.5
t-108 35.5q-80 0 -143 -53t-98 -138t-35 -178q0 -77 25 -139zM517 895h95l-172 -162h-14z" />
    <glyph glyph-name="Ocircumflex" unicode="&#xd4;" horiz-adv-x="758" 
d="M187 24q-65 38 -99 105.5t-34 154.5q0 109 52 200.5t141 144.5t197 53q89 0 154 -38t99 -105t34 -154q0 -109 -51.5 -200.5t-140.5 -145t-197 -53.5q-90 0 -155 38zM178 146q25 -62 71.5 -97t106.5 -35q80 0 143 52.5t98 138t35 178.5q0 76 -24.5 138t-70.5 97.5
t-108 35.5q-80 0 -143 -53t-98 -138t-35 -178q0 -77 25 -139zM441 896h82l70 -162h-14l-105 111l-141 -111h-14z" />
    <glyph glyph-name="Otilde" unicode="&#xd5;" horiz-adv-x="758" 
d="M187 24q-65 38 -99 105.5t-34 154.5q0 109 52 200.5t141 144.5t197 53q89 0 154 -38t99 -105t34 -154q0 -109 -51.5 -200.5t-140.5 -145t-197 -53.5q-90 0 -155 38zM178 146q25 -62 71.5 -97t106.5 -35q80 0 143 52.5t98 138t35 178.5q0 76 -24.5 138t-70.5 97.5
t-108 35.5q-80 0 -143 -53t-98 -138t-35 -178q0 -77 25 -139zM345.5 826.5q27.5 28.5 63.5 28.5q17 0 32.5 -7t38.5 -21q21 -13 35 -19.5t27 -6.5q38 0 60 51h14q-12 -49 -40 -78t-64 -29q-17 0 -33 7t-37 21q-22 14 -35 20t-27 6q-38 0 -61 -52l-13 1q12 50 39.5 78.5z" />
    <glyph glyph-name="Odieresis" unicode="&#xd6;" horiz-adv-x="758" 
d="M187 24q-65 38 -99 105.5t-34 154.5q0 109 52 200.5t141 144.5t197 53q89 0 154 -38t99 -105t34 -154q0 -109 -51.5 -200.5t-140.5 -145t-197 -53.5q-90 0 -155 38zM178 146q25 -62 71.5 -97t106.5 -35q80 0 143 52.5t98 138t35 178.5q0 76 -24.5 138t-70.5 97.5
t-108 35.5q-80 0 -143 -53t-98 -138t-35 -178q0 -77 25 -139zM336 856.5q20 18.5 47 18.5q25 0 41 -15.5t16 -39.5q0 -26 -19.5 -44.5t-47.5 -18.5q-24 0 -40.5 16t-16.5 38q0 27 20 45.5zM512 856.5q20 18.5 47 18.5q24 0 40.5 -15.5t16.5 -39.5q0 -25 -20 -44t-47 -19
q-24 0 -40.5 16t-16.5 38q0 27 20 45.5z" />
    <glyph glyph-name="multiply" unicode="&#xd7;" horiz-adv-x="429" 
d="M217 259l-179 -155l-21 26l179 154l-130 154l26 22l129 -154l177 153l21 -26l-176 -152l126 -151l-25 -22z" />
    <glyph glyph-name="Oslash" unicode="&#xd8;" horiz-adv-x="758" 
d="M215 10l-59 -99l-26 12l60 100q-66 37 -101 105t-35 156q0 109 52 200.5t141 144.5t197 53q70 0 128 -25l59 98l25 -11l-59 -99q64 -37 99 -104.5t35 -155.5q0 -109 -51.5 -200.5t-140.5 -145t-197 -53.5q-71 0 -127 24zM171 166q18 -54 51 -91l323 537q-48 42 -116 42
q-80 0 -143 -53t-98 -138t-35 -178q0 -65 18 -119zM356 14q80 0 143 52.5t98 138t35 178.5q0 64 -17.5 118t-49.5 91l-323 -537q50 -41 114 -41z" />
    <glyph glyph-name="Ugrave" unicode="&#xd9;" horiz-adv-x="724" 
d="M772 668l-3 -14q-49 -3 -72 -18t-29 -56l-55 -342q-12 -77 -50 -134t-95 -87.5t-125 -30.5q-116 0 -178.5 53t-62.5 148q0 15 4 51l55 342q1 7 1 18q0 30 -17.5 42t-61.5 14l2 14h270l-3 -14q-49 -3 -71.5 -18t-29.5 -56l-54 -342q-4 -20 -4 -44q0 -77 46.5 -120.5
t130.5 -43.5t141.5 55.5t73.5 152.5l55 342q1 7 1 18q0 30 -18 42t-62 14l3 14h208zM407 895l66 -162h-14l-146 162h94z" />
    <glyph glyph-name="Uacute" unicode="&#xda;" horiz-adv-x="724" 
d="M772 668l-3 -14q-49 -3 -72 -18t-29 -56l-55 -342q-12 -77 -50 -134t-95 -87.5t-125 -30.5q-116 0 -178.5 53t-62.5 148q0 15 4 51l55 342q1 7 1 18q0 30 -17.5 42t-61.5 14l2 14h270l-3 -14q-49 -3 -71.5 -18t-29.5 -56l-54 -342q-4 -20 -4 -44q0 -77 46.5 -120.5
t130.5 -43.5t141.5 55.5t73.5 152.5l55 342q1 7 1 18q0 30 -18 42t-62 14l3 14h208zM515 895h95l-172 -162h-14z" />
    <glyph glyph-name="Ucircumflex" unicode="&#xdb;" horiz-adv-x="724" 
d="M772 668l-3 -14q-49 -3 -72 -18t-29 -56l-55 -342q-12 -77 -50 -134t-95 -87.5t-125 -30.5q-116 0 -178.5 53t-62.5 148q0 15 4 51l55 342q1 7 1 18q0 30 -17.5 42t-61.5 14l2 14h270l-3 -14q-49 -3 -71.5 -18t-29.5 -56l-54 -342q-4 -20 -4 -44q0 -77 46.5 -120.5
t130.5 -43.5t141.5 55.5t73.5 152.5l55 342q1 7 1 18q0 30 -18 42t-62 14l3 14h208zM440 896h82l70 -162h-14l-105 111l-141 -111h-14z" />
    <glyph glyph-name="Udieresis" unicode="&#xdc;" horiz-adv-x="724" 
d="M772 668l-3 -14q-49 -3 -72 -18t-29 -56l-55 -342q-12 -77 -50 -134t-95 -87.5t-125 -30.5q-116 0 -178.5 53t-62.5 148q0 15 4 51l55 342q1 7 1 18q0 30 -17.5 42t-61.5 14l2 14h270l-3 -14q-49 -3 -71.5 -18t-29.5 -56l-54 -342q-4 -20 -4 -44q0 -77 46.5 -120.5
t130.5 -43.5t141.5 55.5t73.5 152.5l55 342q1 7 1 18q0 30 -18 42t-62 14l3 14h208zM334.5 856.5q19.5 18.5 47.5 18.5q24 0 40.5 -15.5t16.5 -39.5q0 -25 -20 -44t-47 -19q-24 0 -40.5 16t-16.5 38q0 27 19.5 45.5zM510.5 856.5q19.5 18.5 47.5 18.5q24 0 40.5 -15.5
t16.5 -39.5q0 -25 -20 -44t-47 -19q-25 0 -41 16t-16 38q0 27 19.5 45.5z" />
    <glyph glyph-name="Yacute" unicode="&#xdd;" horiz-adv-x="639" 
d="M218.5 32q22.5 15 28.5 57l35 221l-124 261q-22 45 -40.5 62t-49.5 21l2 14h246l-3 -14q-36 -2 -51 -9.5t-15 -24.5t15 -49l106 -225l177 225q30 38 30 55q0 13 -16.5 19.5t-50.5 8.5l3 14h190l-3 -14q-35 -4 -59.5 -20.5t-60.5 -62.5l-207 -261l-34 -221q-2 -16 -2 -21
q0 -29 18 -40.5t59 -13.5l-2 -14h-264l2 14q48 3 70.5 18zM464 895h95l-172 -162h-14z" />
    <glyph glyph-name="Thorn" unicode="&#xde;" horiz-adv-x="621" 
d="M68 32q23 16 30 57l78 491q2 16 2 21q0 27 -18.5 39.5t-61.5 13.5l2 14h270l-2 -14q-49 -2 -72 -16.5t-29 -55.5l-9 -56h107q107 0 166.5 -44.5t59.5 -128.5q0 -61 -35 -107t-100.5 -71t-156.5 -25h-101l-10 -61q-2 -14 -2 -19q0 -29 19 -41.5t61 -14.5l-2 -14h-270l2 14
q49 2 72 18zM297 183q91 0 144 46.5t53 124.5q0 65 -39 102t-109 37h-93l-50 -310h94z" />
    <glyph glyph-name="germandbls" unicode="&#xdf;" horiz-adv-x="571" 
d="M251 13q-46 27 -65 80l80 45q3 -58 32 -91t74 -33q42 0 69.5 28t27.5 70q0 41 -26.5 65t-78.5 51q-53 27 -81 52.5t-28 70.5q0 36 17 61t41.5 40t64.5 33q38 17 60 30.5t37 34.5t15 51q0 41 -33 66.5t-89 25.5q-43 0 -77 -20t-54.5 -50t-25.5 -60l-90 -563h-154l2 14
q37 6 57 18.5t24 42.5l64 398h-84l4 28h84l6 35q13 86 84 135.5t177 49.5q84 0 133.5 -33t49.5 -85q0 -35 -18 -58.5t-43.5 -37.5t-67.5 -30q-55 -21 -81.5 -40t-26.5 -55q0 -32 22.5 -51t69.5 -43q39 -20 63.5 -36t41.5 -43t17 -66q0 -46 -24.5 -81.5t-66.5 -55.5t-93 -20
q-64 0 -110 27z" />
    <glyph glyph-name="agrave" unicode="&#xe0;" horiz-adv-x="501" 
d="M328 108q-31 -59 -77 -91t-103 -32q-55 0 -87.5 32.5t-32.5 88.5q0 81 63.5 120.5t173.5 60.5l94 17l5 34q3 20 3 38q0 52 -25 82t-71 30q-51 0 -82.5 -33.5t-31.5 -80.5q0 -22 5 -37l-82 -27q-6 23 -6 43q0 46 28.5 83.5t76.5 58.5t105 21q78 0 122 -38.5t44 -106.5
q0 -17 -3 -35l-38 -243q-1 -5 -1 -13q0 -20 11 -28.5t33 -10.5l24 -1l-2 -14l-151 -41h-14zM138 64.5q21 -22.5 57 -22.5q40 0 76.5 27.5t62.5 73.5l20 132l-91 -17q-59 -12 -102.5 -43.5t-43.5 -91.5q0 -36 21 -58.5zM249 728l66 -162h-14l-146 162h94z" />
    <glyph glyph-name="aacute" unicode="&#xe1;" horiz-adv-x="501" 
d="M328 108q-31 -59 -77 -91t-103 -32q-55 0 -87.5 32.5t-32.5 88.5q0 81 63.5 120.5t173.5 60.5l94 17l5 34q3 20 3 38q0 52 -25 82t-71 30q-51 0 -82.5 -33.5t-31.5 -80.5q0 -22 5 -37l-82 -27q-6 23 -6 43q0 46 28.5 83.5t76.5 58.5t105 21q78 0 122 -38.5t44 -106.5
q0 -17 -3 -35l-38 -243q-1 -5 -1 -13q0 -20 11 -28.5t33 -10.5l24 -1l-2 -14l-151 -41h-14zM138 64.5q21 -22.5 57 -22.5q40 0 76.5 27.5t62.5 73.5l20 132l-91 -17q-59 -12 -102.5 -43.5t-43.5 -91.5q0 -36 21 -58.5zM357 728h95l-172 -162h-14z" />
    <glyph glyph-name="acircumflex" unicode="&#xe2;" horiz-adv-x="501" 
d="M328 108q-31 -59 -77 -91t-103 -32q-55 0 -87.5 32.5t-32.5 88.5q0 81 63.5 120.5t173.5 60.5l94 17l5 34q3 20 3 38q0 52 -25 82t-71 30q-51 0 -82.5 -33.5t-31.5 -80.5q0 -22 5 -37l-82 -27q-6 23 -6 43q0 46 28.5 83.5t76.5 58.5t105 21q78 0 122 -38.5t44 -106.5
q0 -17 -3 -35l-38 -243q-1 -5 -1 -13q0 -20 11 -28.5t33 -10.5l24 -1l-2 -14l-151 -41h-14zM138 64.5q21 -22.5 57 -22.5q40 0 76.5 27.5t62.5 73.5l20 132l-91 -17q-59 -12 -102.5 -43.5t-43.5 -91.5q0 -36 21 -58.5zM282 729h82l70 -162h-14l-105 111l-141 -111h-14z" />
    <glyph glyph-name="atilde" unicode="&#xe3;" horiz-adv-x="501" 
d="M328 108q-31 -59 -77 -91t-103 -32q-55 0 -87.5 32.5t-32.5 88.5q0 81 63.5 120.5t173.5 60.5l94 17l5 34q3 20 3 38q0 52 -25 82t-71 30q-51 0 -82.5 -33.5t-31.5 -80.5q0 -22 5 -37l-82 -27q-6 23 -6 43q0 46 28.5 83.5t76.5 58.5t105 21q78 0 122 -38.5t44 -106.5
q0 -17 -3 -35l-38 -243q-1 -5 -1 -13q0 -20 11 -28.5t33 -10.5l24 -1l-2 -14l-151 -41h-14zM138 64.5q21 -22.5 57 -22.5q40 0 76.5 27.5t62.5 73.5l20 132l-91 -17q-59 -12 -102.5 -43.5t-43.5 -91.5q0 -36 21 -58.5zM185.5 659.5q27.5 28.5 63.5 28.5q17 0 32.5 -7
t38.5 -21q21 -13 35 -19.5t27 -6.5q38 0 60 51h14q-12 -49 -40 -78t-64 -29q-17 0 -33 7t-37 21q-22 14 -35 20t-27 6q-38 0 -61 -52l-13 1q12 50 39.5 78.5z" />
    <glyph glyph-name="adieresis" unicode="&#xe4;" horiz-adv-x="501" 
d="M328 108q-31 -59 -77 -91t-103 -32q-55 0 -87.5 32.5t-32.5 88.5q0 81 63.5 120.5t173.5 60.5l94 17l5 34q3 20 3 38q0 52 -25 82t-71 30q-51 0 -82.5 -33.5t-31.5 -80.5q0 -22 5 -37l-82 -27q-6 23 -6 43q0 46 28.5 83.5t76.5 58.5t105 21q78 0 122 -38.5t44 -106.5
q0 -17 -3 -35l-38 -243q-1 -5 -1 -13q0 -20 11 -28.5t33 -10.5l24 -1l-2 -14l-151 -41h-14zM138 64.5q21 -22.5 57 -22.5q40 0 76.5 27.5t62.5 73.5l20 132l-91 -17q-59 -12 -102.5 -43.5t-43.5 -91.5q0 -36 21 -58.5zM177 690q20 19 47 19q24 0 40.5 -16t16.5 -39
q0 -26 -20 -44.5t-47 -18.5q-25 0 -41 15.5t-16 38.5q0 26 20 45zM352.5 690q19.5 19 47.5 19q24 0 40.5 -16t16.5 -39q0 -26 -20 -44.5t-47 -18.5q-25 0 -41 15.5t-16 38.5q0 26 19.5 45z" />
    <glyph glyph-name="aring" unicode="&#xe5;" horiz-adv-x="501" 
d="M328 108q-31 -59 -77 -91t-103 -32q-55 0 -87.5 32.5t-32.5 88.5q0 81 63.5 120.5t173.5 60.5l94 17l5 34q3 20 3 38q0 52 -25 82t-71 30q-51 0 -82.5 -33.5t-31.5 -80.5q0 -22 5 -37l-82 -27q-6 23 -6 43q0 46 28.5 83.5t76.5 58.5t105 21q78 0 122 -38.5t44 -106.5
q0 -17 -3 -35l-38 -243q-1 -5 -1 -13q0 -20 11 -28.5t33 -10.5l24 -1l-2 -14l-151 -41h-14zM138 64.5q21 -22.5 57 -22.5q40 0 76.5 27.5t62.5 73.5l20 132l-91 -17q-59 -12 -102.5 -43.5t-43.5 -91.5q0 -36 21 -58.5zM238.5 711q31.5 29 76.5 29q40 0 62.5 -23t22.5 -59
q0 -43 -31.5 -72t-76.5 -29q-39 0 -62 23t-23 59q0 43 31.5 72zM257 602.5q15 -16.5 40 -16.5q28 0 48.5 20t20.5 50q0 24 -14.5 39.5t-40.5 15.5q-28 0 -48.5 -19.5t-20.5 -48.5q0 -24 15 -40.5z" />
    <glyph glyph-name="ae" unicode="&#xe6;" horiz-adv-x="816" 
d="M64 17.5q-36 32.5 -36 88.5q0 81 62.5 121t173.5 60l95 17l5 34q3 20 3 36q0 52 -24.5 83t-71.5 31q-51 0 -83 -34t-32 -81q0 -21 5 -36l-82 -27q-6 21 -6 42q0 47 29 84.5t77 58.5t104 21q55 0 94.5 -21t57.5 -59q37 38 86 59t106 21q76 0 117.5 -30.5t41.5 -77.5
t-36 -77.5t-93.5 -48.5t-149.5 -37l-70 -15q1 -80 39.5 -127t105.5 -47q49 0 93.5 21.5t75.5 64.5l11 -6q-29 -72 -86 -111t-132 -39q-68 0 -115.5 35t-68.5 97q-29 -63 -85 -98t-117 -35q-58 0 -94 32.5zM137.5 64q21.5 -22 59.5 -22q43 0 84 28t71 79q-5 30 -5 58
q0 35 6 68l-90 -17q-58 -12 -102.5 -44t-44.5 -91q0 -37 21.5 -59zM506 273q88 21 140 51.5t52 85.5q0 31 -24 54.5t-64 23.5q-47 0 -84.5 -31.5t-60.5 -84.5t-27 -114z" />
    <glyph glyph-name="ccedilla" unicode="&#xe7;" horiz-adv-x="489" 
d="M201 -12l-21 -43q27 -5 43 -21.5t16 -45.5q0 -42 -33 -66t-85 -24q-19 0 -46 5l2 14q10 -1 28 -1q34 2 55 18t21 41q0 38 -52 48l53 78q-69 14 -109.5 71t-40.5 142q0 90 36.5 161.5t100 111t141.5 39.5q51 0 88 -17.5t57 -45.5t22 -58l-83 -25q-2 45 -24.5 81.5
t-74.5 36.5q-48 0 -87.5 -33.5t-62 -90t-22.5 -122.5q0 -84 39 -134t109 -50q51 0 96 23t77 73l11 -4q-32 -81 -91 -122.5t-137 -41.5q-10 0 -26 2z" />
    <glyph glyph-name="egrave" unicode="&#xe8;" horiz-adv-x="497" 
d="M85 47q-53 61 -53 160q0 86 36 156.5t100 111.5t144 41q76 0 117.5 -30.5t41.5 -77.5t-36 -77.5t-93.5 -48.5t-149.5 -37l-70 -15q1 -80 39.5 -127t105.5 -47q49 0 93.5 21.5t75.5 64.5l11 -6q-29 -72 -86 -111t-132 -39q-91 0 -144 61zM191 273q88 21 140 51.5t52 85.5
q0 31 -24 54.5t-64 23.5q-47 0 -84.5 -31.5t-60.5 -84.5t-27 -114zM259 728l66 -162h-14l-146 162h94z" />
    <glyph glyph-name="eacute" unicode="&#xe9;" horiz-adv-x="497" 
d="M85 47q-53 61 -53 160q0 86 36 156.5t100 111.5t144 41q76 0 117.5 -30.5t41.5 -77.5t-36 -77.5t-93.5 -48.5t-149.5 -37l-70 -15q1 -80 39.5 -127t105.5 -47q49 0 93.5 21.5t75.5 64.5l11 -6q-29 -72 -86 -111t-132 -39q-91 0 -144 61zM191 273q88 21 140 51.5t52 85.5
q0 31 -24 54.5t-64 23.5q-47 0 -84.5 -31.5t-60.5 -84.5t-27 -114zM368 728h95l-172 -162h-14z" />
    <glyph glyph-name="ecircumflex" unicode="&#xea;" horiz-adv-x="497" 
d="M85 47q-53 61 -53 160q0 86 36 156.5t100 111.5t144 41q76 0 117.5 -30.5t41.5 -77.5t-36 -77.5t-93.5 -48.5t-149.5 -37l-70 -15q1 -80 39.5 -127t105.5 -47q49 0 93.5 21.5t75.5 64.5l11 -6q-29 -72 -86 -111t-132 -39q-91 0 -144 61zM191 273q88 21 140 51.5t52 85.5
q0 31 -24 54.5t-64 23.5q-47 0 -84.5 -31.5t-60.5 -84.5t-27 -114zM292 729h82l70 -162h-14l-105 111l-141 -111h-14z" />
    <glyph glyph-name="edieresis" unicode="&#xeb;" horiz-adv-x="497" 
d="M85 47q-53 61 -53 160q0 86 36 156.5t100 111.5t144 41q76 0 117.5 -30.5t41.5 -77.5t-36 -77.5t-93.5 -48.5t-149.5 -37l-70 -15q1 -80 39.5 -127t105.5 -47q49 0 93.5 21.5t75.5 64.5l11 -6q-29 -72 -86 -111t-132 -39q-91 0 -144 61zM191 273q88 21 140 51.5t52 85.5
q0 31 -24 54.5t-64 23.5q-47 0 -84.5 -31.5t-60.5 -84.5t-27 -114zM187.5 690q19.5 19 46.5 19q25 0 41 -16t16 -39q0 -26 -19.5 -44.5t-46.5 -18.5q-25 0 -41 15.5t-16 38.5q0 26 19.5 45zM363 690q20 19 47 19q25 0 41 -16t16 -39q0 -26 -19.5 -44.5t-47.5 -18.5
q-25 0 -41 15.5t-16 38.5q0 26 20 45z" />
    <glyph glyph-name="igrave" unicode="&#xec;" horiz-adv-x="267" 
d="M75 3.5q-19 17.5 -19 50.5q0 11 5 51l49 304q1 5 1 14q0 18 -11 27t-34 11h-24l2 14l152 41h14l-67 -416q-4 -28 -4 -35q0 -15 8 -24t21 -9t25.5 7t29.5 26l10 -10q-45 -69 -106 -69q-33 0 -52 17.5zM121 728l66 -162h-14l-146 162h94z" />
    <glyph glyph-name="iacute" unicode="&#xed;" horiz-adv-x="267" 
d="M75 3.5q-19 17.5 -19 50.5q0 11 5 51l49 304q1 5 1 14q0 18 -11 27t-34 11h-24l2 14l152 41h14l-67 -416q-4 -28 -4 -35q0 -15 8 -24t21 -9t25.5 7t29.5 26l10 -10q-45 -69 -106 -69q-33 0 -52 17.5zM230 728h95l-172 -162h-14z" />
    <glyph glyph-name="icircumflex" unicode="&#xee;" horiz-adv-x="267" 
d="M75 3.5q-19 17.5 -19 50.5q0 11 5 51l49 304q1 5 1 14q0 18 -11 27t-34 11h-24l2 14l152 41h14l-67 -416q-4 -28 -4 -35q0 -15 8 -24t21 -9t25.5 7t29.5 26l10 -10q-45 -69 -106 -69q-33 0 -52 17.5zM154 729h82l70 -162h-14l-105 111l-141 -111h-14z" />
    <glyph glyph-name="idieresis" unicode="&#xef;" horiz-adv-x="267" 
d="M75 3.5q-19 17.5 -19 50.5q0 11 5 51l49 304q1 5 1 14q0 18 -11 27t-34 11h-24l2 14l152 41h14l-67 -416q-4 -28 -4 -35q0 -15 8 -24t21 -9t25.5 7t29.5 26l10 -10q-45 -69 -106 -69q-33 0 -52 17.5zM49 690q20 19 47 19q25 0 41 -16t16 -39q0 -26 -19.5 -44.5
t-47.5 -18.5q-25 0 -41 15.5t-16 38.5q0 26 20 45zM224.5 690q19.5 19 47.5 19q24 0 40.5 -16t16.5 -39q0 -26 -20 -44.5t-47 -18.5q-25 0 -41 15.5t-16 38.5q0 26 19.5 45z" />
    <glyph glyph-name="eth" unicode="&#xf0;" horiz-adv-x="536" 
d="M78 36q-52 51 -52 141q0 22 5 54q12 79 51.5 139t99 93.5t129.5 33.5q68 0 118 -33q-23 97 -82 156l-138 -73l-12 25l129 67q-50 43 -120 62l9 20q84 -15 151 -61l118 62l10 -24l-105 -56q59 -50 91 -124.5t32 -166.5q0 -45 -7 -87l-1 1l-1 -9q-12 -78 -51.5 -139.5
t-100 -96.5t-132.5 -35q-89 0 -141 51zM119 201q0 -79 30 -133.5t94 -54.5q60 0 106 57t60 143q5 33 5 65q0 80 -29.5 135.5t-93.5 55.5q-61 0 -107 -58t-60 -147q-5 -33 -5 -63z" />
    <glyph glyph-name="ntilde" unicode="&#xf1;" horiz-adv-x="586" 
d="M393 4q-19 18 -19 51q0 11 6 50l40 253q2 18 2 24q0 36 -19.5 56t-54.5 20q-77 0 -160 -83l-60 -375h-83l65 409q1 5 1 14q0 18 -10 26.5t-32 10.5l-27 1l2 14l152 41h14l-18 -112q101 112 199 112q55 0 85.5 -30.5t30.5 -84.5q0 -17 -3 -35l-41 -265q-4 -22 -4 -35
q0 -33 30 -33q12 0 24 6.5t29 25.5l10 -10q-45 -69 -106 -69q-34 0 -53 18zM227.5 659.5q27.5 28.5 63.5 28.5q17 0 32.5 -7t38.5 -21q21 -13 35 -19.5t27 -6.5q38 0 60 51h14q-12 -49 -40 -78t-64 -29q-17 0 -33 7t-37 21q-22 14 -35 20t-27 6q-38 0 -61 -52l-13 1
q12 50 39.5 78.5z" />
    <glyph glyph-name="ograve" unicode="&#xf2;" horiz-adv-x="544" 
d="M85.5 46q-53.5 60 -53.5 164q0 84 37 154t101.5 111t143.5 41q91 0 144.5 -60t53.5 -164q0 -83 -36 -153t-100.5 -111.5t-145.5 -41.5q-91 0 -144.5 60zM157 70.5q33 -56.5 93 -56.5q51 0 89.5 39.5t59.5 102.5t21 130q0 89 -33 145.5t-91 56.5q-49 0 -88.5 -39
t-61.5 -101.5t-22 -130.5q0 -90 33 -146.5zM275 728l66 -162h-14l-146 162h94z" />
    <glyph glyph-name="oacute" unicode="&#xf3;" horiz-adv-x="544" 
d="M85.5 46q-53.5 60 -53.5 164q0 84 37 154t101.5 111t143.5 41q91 0 144.5 -60t53.5 -164q0 -83 -36 -153t-100.5 -111.5t-145.5 -41.5q-91 0 -144.5 60zM157 70.5q33 -56.5 93 -56.5q51 0 89.5 39.5t59.5 102.5t21 130q0 89 -33 145.5t-91 56.5q-49 0 -88.5 -39
t-61.5 -101.5t-22 -130.5q0 -90 33 -146.5zM383 728h95l-172 -162h-14z" />
    <glyph glyph-name="ocircumflex" unicode="&#xf4;" horiz-adv-x="544" 
d="M85.5 46q-53.5 60 -53.5 164q0 84 37 154t101.5 111t143.5 41q91 0 144.5 -60t53.5 -164q0 -83 -36 -153t-100.5 -111.5t-145.5 -41.5q-91 0 -144.5 60zM157 70.5q33 -56.5 93 -56.5q51 0 89.5 39.5t59.5 102.5t21 130q0 89 -33 145.5t-91 56.5q-49 0 -88.5 -39
t-61.5 -101.5t-22 -130.5q0 -90 33 -146.5zM307 729h82l70 -162h-14l-105 111l-141 -111h-14z" />
    <glyph glyph-name="otilde" unicode="&#xf5;" horiz-adv-x="544" 
d="M85.5 46q-53.5 60 -53.5 164q0 84 37 154t101.5 111t143.5 41q91 0 144.5 -60t53.5 -164q0 -83 -36 -153t-100.5 -111.5t-145.5 -41.5q-91 0 -144.5 60zM157 70.5q33 -56.5 93 -56.5q51 0 89.5 39.5t59.5 102.5t21 130q0 89 -33 145.5t-91 56.5q-49 0 -88.5 -39
t-61.5 -101.5t-22 -130.5q0 -90 33 -146.5zM211.5 659.5q27.5 28.5 63.5 28.5q17 0 32.5 -7t38.5 -21q21 -13 35 -19.5t27 -6.5q38 0 60 51h14q-12 -49 -40 -78t-64 -29q-17 0 -33 7t-37 21q-22 14 -35 20t-27 6q-38 0 -61 -52l-13 1q12 50 39.5 78.5z" />
    <glyph glyph-name="odieresis" unicode="&#xf6;" horiz-adv-x="544" 
d="M85.5 46q-53.5 60 -53.5 164q0 84 37 154t101.5 111t143.5 41q91 0 144.5 -60t53.5 -164q0 -83 -36 -153t-100.5 -111.5t-145.5 -41.5q-91 0 -144.5 60zM157 70.5q33 -56.5 93 -56.5q51 0 89.5 39.5t59.5 102.5t21 130q0 89 -33 145.5t-91 56.5q-49 0 -88.5 -39
t-61.5 -101.5t-22 -130.5q0 -90 33 -146.5zM202.5 690q19.5 19 47.5 19q24 0 40.5 -16t16.5 -39q0 -26 -20 -44.5t-47 -18.5q-25 0 -41 15.5t-16 38.5q0 26 19.5 45zM378 690q20 19 47 19q25 0 41 -16t16 -39q0 -26 -19.5 -44.5t-47.5 -18.5q-25 0 -41 15.5t-16 38.5
q0 26 20 45z" />
    <glyph glyph-name="divide" unicode="&#xf7;" horiz-adv-x="491" 
d="M236.5 429.5q-13.5 13.5 -13.5 33.5q0 22 16 38t38 16t34.5 -13t12.5 -33q0 -23 -15.5 -39t-38.5 -16q-20 0 -33.5 13.5zM49 335h416l-5 -32h-416zM201 206q16 16 38 16t34.5 -13.5t12.5 -33.5q0 -23 -15.5 -38.5t-38.5 -15.5q-20 0 -33.5 13t-13.5 33q0 23 16 39z" />
    <glyph glyph-name="oslash" unicode="&#xf8;" horiz-adv-x="544" 
d="M147 2l-42 -74l-22 10l42 75q-45 26 -69 77t-24 120q0 84 37 154t101.5 111t143.5 41q48 0 84 -16l41 74l23 -10l-42 -75q44 -27 68 -77.5t24 -119.5q0 -83 -36 -153t-100.5 -111.5t-145.5 -41.5q-48 0 -83 16zM157 70l214 383q-30 35 -75 35q-49 0 -88.5 -39
t-61.5 -101.5t-22 -130.5q0 -91 33 -147zM250 14q51 0 89.5 39.5t59.5 102.5t21 130q0 91 -33 145l-214 -382q32 -35 77 -35z" />
    <glyph glyph-name="ugrave" unicode="&#xf9;" horiz-adv-x="555" 
d="M99.5 18.5q-33.5 33.5 -33.5 87.5q0 19 2 29l44 266q4 22 4 35q0 34 -30 34q-12 0 -24 -7t-30 -25l-10 9q46 69 107 69q33 0 52 -17.5t19 -51.5q0 -17 -5 -50l-42 -254q-2 -16 -2 -22q0 -36 21 -57t58 -21q79 0 154 79l60 379h83l-64 -408q-1 -6 -1 -16q0 -18 10 -26
t31 -10l27 -1l-2 -14l-146 -41h-14l12 108q-43 -53 -91.5 -80.5t-99.5 -27.5q-56 0 -89.5 33.5zM285 728l66 -162h-14l-146 162h94z" />
    <glyph glyph-name="uacute" unicode="&#xfa;" horiz-adv-x="555" 
d="M99.5 18.5q-33.5 33.5 -33.5 87.5q0 19 2 29l44 266q4 22 4 35q0 34 -30 34q-12 0 -24 -7t-30 -25l-10 9q46 69 107 69q33 0 52 -17.5t19 -51.5q0 -17 -5 -50l-42 -254q-2 -16 -2 -22q0 -36 21 -57t58 -21q79 0 154 79l60 379h83l-64 -408q-1 -6 -1 -16q0 -18 10 -26
t31 -10l27 -1l-2 -14l-146 -41h-14l12 108q-43 -53 -91.5 -80.5t-99.5 -27.5q-56 0 -89.5 33.5zM393 728h95l-172 -162h-14z" />
    <glyph glyph-name="ucircumflex" unicode="&#xfb;" horiz-adv-x="555" 
d="M99.5 18.5q-33.5 33.5 -33.5 87.5q0 19 2 29l44 266q4 22 4 35q0 34 -30 34q-12 0 -24 -7t-30 -25l-10 9q46 69 107 69q33 0 52 -17.5t19 -51.5q0 -17 -5 -50l-42 -254q-2 -16 -2 -22q0 -36 21 -57t58 -21q79 0 154 79l60 379h83l-64 -408q-1 -6 -1 -16q0 -18 10 -26
t31 -10l27 -1l-2 -14l-146 -41h-14l12 108q-43 -53 -91.5 -80.5t-99.5 -27.5q-56 0 -89.5 33.5zM317 729h82l70 -162h-14l-105 111l-141 -111h-14z" />
    <glyph glyph-name="udieresis" unicode="&#xfc;" horiz-adv-x="555" 
d="M99.5 18.5q-33.5 33.5 -33.5 87.5q0 19 2 29l44 266q4 22 4 35q0 34 -30 34q-12 0 -24 -7t-30 -25l-10 9q46 69 107 69q33 0 52 -17.5t19 -51.5q0 -17 -5 -50l-42 -254q-2 -16 -2 -22q0 -36 21 -57t58 -21q79 0 154 79l60 379h83l-64 -408q-1 -6 -1 -16q0 -18 10 -26
t31 -10l27 -1l-2 -14l-146 -41h-14l12 108q-43 -53 -91.5 -80.5t-99.5 -27.5q-56 0 -89.5 33.5zM212.5 690q19.5 19 47.5 19q24 0 40.5 -16t16.5 -39q0 -26 -20 -44.5t-47 -18.5q-25 0 -41 15.5t-16 38.5q0 26 19.5 45zM388 690q20 19 47 19q25 0 41 -16t16 -39
q0 -26 -19.5 -44.5t-46.5 -18.5q-25 0 -41.5 15.5t-16.5 38.5q0 26 20 45z" />
    <glyph glyph-name="yacute" unicode="&#xfd;" horiz-adv-x="456" 
d="M35 -142q41 0 70.5 28t64.5 90l16 28l-112 430q-8 28 -22 40t-45 13l2 14l135 11l102 -413l150 270q9 14 9 33q0 21 -13.5 40t-35.5 34l50 43q46 -25 46 -75q0 -33 -20 -67l-234 -403q-38 -66 -63.5 -102t-62.5 -60t-87 -24q-27 0 -56 12l41 81q26 -23 65 -23zM330 728
h95l-172 -162h-14z" />
    <glyph glyph-name="thorn" unicode="&#xfe;" horiz-adv-x="565" 
d="M140 615q0 18 -10 25.5t-33 9.5l-26 1l2 14l151 41h14l-49 -306q29 53 76.5 84.5t101.5 31.5q75 0 120.5 -58.5t45.5 -157.5q0 -83 -33.5 -155.5t-94 -116t-137.5 -43.5q-47 0 -83.5 19t-50.5 51l-40 -252h-83l127 796zM151 140q0 -51 29.5 -86t81.5 -35q51 0 92 39.5
t63.5 103.5t22.5 134q0 73 -30.5 117.5t-83.5 44.5q-45 0 -82 -25.5t-61 -69.5l-30 -197q-2 -18 -2 -26z" />
    <glyph glyph-name="ydieresis" unicode="&#xff;" horiz-adv-x="456" 
d="M35 -142q41 0 70.5 28t64.5 90l16 28l-112 430q-8 28 -22 40t-45 13l2 14l135 11l102 -413l150 270q9 14 9 33q0 21 -13.5 40t-35.5 34l50 43q46 -25 46 -75q0 -33 -20 -67l-234 -403q-38 -66 -63.5 -102t-62.5 -60t-87 -24q-27 0 -56 12l41 81q26 -23 65 -23zM149 690
q20 19 47 19q25 0 41 -16t16 -39q0 -26 -19.5 -44.5t-47.5 -18.5q-25 0 -41 15.5t-16 38.5q0 26 20 45zM325 690q20 19 47 19q24 0 40.5 -16t16.5 -39q0 -26 -19.5 -44.5t-47.5 -18.5q-25 0 -41 15.5t-16 38.5q0 26 20 45z" />
    <glyph glyph-name="Amacron" unicode="&#x100;" horiz-adv-x="735" 
d="M634 34.5q19 -17.5 59 -20.5l-3 -14h-257l3 14q39 2 55.5 12t16.5 33q0 12 -7 38l-33 123h-286l-72 -123q-20 -35 -20 -52q0 -15 15 -22t47 -9l-3 -14h-185l3 14q40 4 63 21t50 62l344 586h16l163 -586q12 -45 31 -62.5zM461 248l-83 310l-180 -310h263zM320 788h256
l-4 -33h-257z" />
    <glyph glyph-name="amacron" unicode="&#x101;" horiz-adv-x="501" 
d="M328 108q-31 -59 -77 -91t-103 -32q-55 0 -87.5 32.5t-32.5 88.5q0 81 63.5 120.5t173.5 60.5l94 17l5 34q3 20 3 38q0 52 -25 82t-71 30q-51 0 -82.5 -33.5t-31.5 -80.5q0 -22 5 -37l-82 -27q-6 23 -6 43q0 46 28.5 83.5t76.5 58.5t105 21q78 0 122 -38.5t44 -106.5
q0 -17 -3 -35l-38 -243q-1 -5 -1 -13q0 -20 11 -28.5t33 -10.5l24 -1l-2 -14l-151 -41h-14zM138 64.5q21 -22.5 57 -22.5q40 0 76.5 27.5t62.5 73.5l20 132l-91 -17q-59 -12 -102.5 -43.5t-43.5 -91.5q0 -36 21 -58.5zM171 621h256l-4 -33h-257z" />
    <glyph glyph-name="Abreve" unicode="&#x102;" horiz-adv-x="735" 
d="M634 34.5q19 -17.5 59 -20.5l-3 -14h-257l3 14q39 2 55.5 12t16.5 33q0 12 -7 38l-33 123h-286l-72 -123q-20 -35 -20 -52q0 -15 15 -22t47 -9l-3 -14h-185l3 14q40 4 63 21t50 62l344 586h16l163 -586q12 -45 31 -62.5zM461 248l-83 310l-180 -310h263zM359 895
q-4 -54 23 -77t71 -23q45 0 80 23t48 77h14q-26 -163 -151 -163q-103 0 -103 113q0 26 4 50h14z" />
    <glyph glyph-name="abreve" unicode="&#x103;" horiz-adv-x="501" 
d="M328 108q-31 -59 -77 -91t-103 -32q-55 0 -87.5 32.5t-32.5 88.5q0 81 63.5 120.5t173.5 60.5l94 17l5 34q3 20 3 38q0 52 -25 82t-71 30q-51 0 -82.5 -33.5t-31.5 -80.5q0 -22 5 -37l-82 -27q-6 23 -6 43q0 46 28.5 83.5t76.5 58.5t105 21q78 0 122 -38.5t44 -106.5
q0 -17 -3 -35l-38 -243q-1 -5 -1 -13q0 -20 11 -28.5t33 -10.5l24 -1l-2 -14l-151 -41h-14zM138 64.5q21 -22.5 57 -22.5q40 0 76.5 27.5t62.5 73.5l20 132l-91 -17q-59 -12 -102.5 -43.5t-43.5 -91.5q0 -36 21 -58.5zM209 728q-4 -54 23 -77t71 -23q45 0 80 23t48 77h14
q-26 -163 -151 -163q-103 0 -103 113q0 26 4 50h14z" />
    <glyph glyph-name="Aogonek" unicode="&#x104;" horiz-adv-x="735" 
d="M634 34.5q19 -17.5 59 -20.5l-3 -14h-85q-44 -34 -62 -57.5t-23 -50.5q-1 -5 -1 -13q0 -24 14 -37.5t40 -13.5q20 0 47 9l3 -10q-47 -37 -104 -37q-33 0 -54 17.5t-21 48.5q0 44 36 78t104 66h-151l3 14q39 2 55.5 12t16.5 33q0 12 -7 38l-33 123h-286l-72 -123
q-20 -35 -20 -52q0 -15 15 -22t47 -9l-3 -14h-185l3 14q40 4 63 21t50 62l344 586h16l163 -586q12 -45 31 -62.5zM461 248l-83 310l-180 -310h263z" />
    <glyph glyph-name="aogonek" unicode="&#x105;" horiz-adv-x="501" 
d="M328 108q-31 -59 -77 -91t-103 -32q-55 0 -87.5 32.5t-32.5 88.5q0 81 63.5 120.5t173.5 60.5l94 17l5 34q3 20 3 38q0 52 -25 82t-71 30q-51 0 -82.5 -33.5t-31.5 -80.5q0 -22 5 -37l-82 -27q-6 23 -6 43q0 46 28.5 83.5t76.5 58.5t105 21q78 0 122 -38.5t44 -106.5
q0 -17 -3 -35l-38 -243q-1 -5 -1 -13q0 -20 11 -28.5t33 -10.5l24 -1l-2 -14q-56 -41 -80.5 -72t-29.5 -64q-1 -5 -1 -14q0 -23 13.5 -36.5t39.5 -13.5q20 0 47 9l4 -10q-47 -37 -104 -37q-32 0 -53.5 17.5t-21.5 47.5q0 88 154 164l-119 -32h-14zM138 64.5
q21 -22.5 57 -22.5q40 0 76.5 27.5t62.5 73.5l20 132l-91 -17q-59 -12 -102.5 -43.5t-43.5 -91.5q0 -36 21 -58.5z" />
    <glyph glyph-name="Cacute" unicode="&#x106;" horiz-adv-x="659" 
d="M181 23q-60 38 -93.5 105t-33.5 152q0 110 50.5 202.5t137.5 146.5t190 54q96 0 156 -39t70 -108l-93 -28q-5 68 -44.5 108t-104.5 40q-72 0 -132 -47.5t-95 -126t-35 -166.5q0 -75 27 -133.5t75.5 -90.5t110.5 -32q81 0 145.5 38.5t96.5 109.5l12 -3
q-38 -105 -120 -162.5t-185 -57.5q-75 0 -135 38zM511 895h95l-172 -162h-14z" />
    <glyph glyph-name="cacute" unicode="&#x107;" horiz-adv-x="489" 
d="M125 13q-44 27 -68.5 76.5t-24.5 114.5q0 90 36.5 161.5t100 111t141.5 39.5q51 0 88 -17.5t57 -45.5t22 -58l-83 -25q-2 45 -24.5 81.5t-74.5 36.5q-48 0 -87.5 -33.5t-62 -90t-22.5 -122.5q0 -84 39 -134t109 -50q51 0 96 23t77 73l11 -4q-32 -81 -91 -122.5
t-137 -41.5q-58 0 -102 27zM377 728h95l-172 -162h-14z" />
    <glyph glyph-name="Ccircumflex" unicode="&#x108;" horiz-adv-x="659" 
d="M181 23q-60 38 -93.5 105t-33.5 152q0 110 50.5 202.5t137.5 146.5t190 54q96 0 156 -39t70 -108l-93 -28q-5 68 -44.5 108t-104.5 40q-72 0 -132 -47.5t-95 -126t-35 -166.5q0 -75 27 -133.5t75.5 -90.5t110.5 -32q81 0 145.5 38.5t96.5 109.5l12 -3
q-38 -105 -120 -162.5t-185 -57.5q-75 0 -135 38zM435 896h82l70 -162h-14l-105 111l-141 -111h-14z" />
    <glyph glyph-name="ccircumflex" unicode="&#x109;" horiz-adv-x="489" 
d="M125 13q-44 27 -68.5 76.5t-24.5 114.5q0 90 36.5 161.5t100 111t141.5 39.5q51 0 88 -17.5t57 -45.5t22 -58l-83 -25q-2 45 -24.5 81.5t-74.5 36.5q-48 0 -87.5 -33.5t-62 -90t-22.5 -122.5q0 -84 39 -134t109 -50q51 0 96 23t77 73l11 -4q-32 -81 -91 -122.5
t-137 -41.5q-58 0 -102 27zM301 729h82l70 -162h-14l-105 111l-141 -111h-14z" />
    <glyph glyph-name="Cdotaccent" unicode="&#x10a;" horiz-adv-x="659" 
d="M181 23q-60 38 -93.5 105t-33.5 152q0 110 50.5 202.5t137.5 146.5t190 54q96 0 156 -39t70 -108l-93 -28q-5 68 -44.5 108t-104.5 40q-72 0 -132 -47.5t-95 -126t-35 -166.5q0 -75 27 -133.5t75.5 -90.5t110.5 -32q81 0 145.5 38.5t96.5 109.5l12 -3
q-38 -105 -120 -162.5t-185 -57.5q-75 0 -135 38zM415 860q20 19 48 19q25 0 41.5 -16t16.5 -40q0 -26 -20 -45t-48 -19q-25 0 -41.5 16t-16.5 39q0 27 20 46z" />
    <glyph glyph-name="cdotaccent" unicode="&#x10b;" horiz-adv-x="489" 
d="M125 13q-44 27 -68.5 76.5t-24.5 114.5q0 90 36.5 161.5t100 111t141.5 39.5q51 0 88 -17.5t57 -45.5t22 -58l-83 -25q-2 45 -24.5 81.5t-74.5 36.5q-48 0 -87.5 -33.5t-62 -90t-22.5 -122.5q0 -84 39 -134t109 -50q51 0 96 23t77 73l11 -4q-32 -81 -91 -122.5
t-137 -41.5q-58 0 -102 27zM281 693q20 19 48 19q25 0 41.5 -16t16.5 -40q0 -26 -20 -45t-48 -19q-25 0 -41.5 16t-16.5 39q0 27 20 46z" />
    <glyph glyph-name="Ccaron" unicode="&#x10c;" horiz-adv-x="659" 
d="M181 23q-60 38 -93.5 105t-33.5 152q0 110 50.5 202.5t137.5 146.5t190 54q96 0 156 -39t70 -108l-93 -28q-5 68 -44.5 108t-104.5 40q-72 0 -132 -47.5t-95 -126t-35 -166.5q0 -75 27 -133.5t75.5 -90.5t110.5 -32q81 0 145.5 38.5t96.5 109.5l12 -3
q-38 -105 -120 -162.5t-185 -57.5q-75 0 -135 38zM348 895l105 -111l141 111h14l-122 -162h-82l-70 162h14z" />
    <glyph glyph-name="ccaron" unicode="&#x10d;" horiz-adv-x="489" 
d="M125 13q-44 27 -68.5 76.5t-24.5 114.5q0 90 36.5 161.5t100 111t141.5 39.5q51 0 88 -17.5t57 -45.5t22 -58l-83 -25q-2 45 -24.5 81.5t-74.5 36.5q-48 0 -87.5 -33.5t-62 -90t-22.5 -122.5q0 -84 39 -134t109 -50q51 0 96 23t77 73l11 -4q-32 -81 -91 -122.5
t-137 -41.5q-58 0 -102 27zM214 728l105 -111l141 111h14l-122 -162h-82l-70 162h14z" />
    <glyph glyph-name="Dcaron" unicode="&#x10e;" horiz-adv-x="722" 
d="M615.5 593q80.5 -75 80.5 -203q0 -111 -52 -200t-143 -139.5t-203 -50.5h-304l2 14q50 3 73 18t29 57l78 491q1 6 1 17q0 31 -18 43t-62 14l3 14h286q149 0 229.5 -75zM187 75q0 -30 27 -38.5t85 -8.5q85 0 153 49.5t107 131.5t39 176q0 71 -26 128.5t-78.5 92
t-129.5 34.5h-89l-87 -553q-1 -4 -1 -12zM296 895l105 -111l141 111h14l-122 -162h-82l-70 162h14z" />
    <glyph glyph-name="dcaron" unicode="&#x10f;" horiz-adv-x="515" 
d="M116.5 10.5q-40.5 25.5 -63 73t-22.5 109.5q0 92 35 166t97 115.5t139 41.5q92 0 131 -64l23 147q1 5 1 14q0 19 -11 27.5t-34 10.5l-24 1l2 14l153 41h14l-100 -614q-1 -5 -1 -14q0 -19 11 -27.5t34 -10.5l24 -1l-2 -14l-152 -41h-14l19 118q-29 -57 -72.5 -87.5
t-95.5 -30.5q-51 0 -91.5 25.5zM158 87.5q33 -44.5 87 -44.5q42 0 78.5 27t58.5 68l33 207q1 6 1 19q0 47 -29 83t-83 36q-52 0 -92.5 -38.5t-63.5 -102t-23 -133.5q0 -77 33 -121.5zM622 765h84l-135 -201h-14z" />
    <glyph glyph-name="Dcroat" unicode="&#x110;" horiz-adv-x="722" 
d="M615.5 593q80.5 -75 80.5 -203q0 -111 -52 -200t-143 -139.5t-203 -50.5h-304l2 14q50 3 73 18t29 57l37 230h-110l4 28h110l37 233q1 6 1 17q0 31 -18 43t-62 14l3 14h286q149 0 229.5 -75zM187 75q0 -30 27 -38.5t85 -8.5q85 0 153 49.5t107 131.5t39 176
q0 71 -26 128.5t-78.5 92t-129.5 34.5h-89l-46 -293h115l-4 -28h-116l-36 -232q-1 -4 -1 -12z" />
    <glyph glyph-name="dcroat" unicode="&#x111;" horiz-adv-x="551" 
d="M116.5 10.5q-40.5 25.5 -63 73t-22.5 109.5q0 92 35 166t97 115.5t139 41.5q92 0 131 -64l17 108h-118l4 28h118l2 11q1 5 1 14q0 19 -11 27.5t-34 10.5l-24 1l2 14l153 41h14l-19 -119h113l-5 -28h-113l-76 -467q-1 -5 -1 -14q0 -19 11 -27.5t34 -10.5l24 -1l-2 -14
l-152 -41h-14l19 118q-29 -57 -72.5 -87.5t-95.5 -30.5q-51 0 -91.5 25.5zM158 87.5q33 -44.5 87 -44.5q42 0 78.5 27t58.5 68l33 207q1 6 1 19q0 47 -29 83t-83 36q-52 0 -92.5 -38.5t-63.5 -102t-23 -133.5q0 -77 33 -121.5z" />
    <glyph glyph-name="Emacron" unicode="&#x112;" horiz-adv-x="620" 
d="M68.5 32q23.5 16 29.5 57l78 491q2 14 2 19q0 28 -18.5 41t-61.5 14l2 14h506l26 -179h-14q-18 81 -56 116t-114 35h-172l-45 -283h137q45 0 64.5 22t29.5 73h14l-35 -219h-14q2 24 2 34q0 32 -14 47t-51 15h-137l-38 -240q-2 -16 -2 -21q0 -40 37 -40h150q68 0 112 33
t74 114h14l-53 -175h-527l2 14q49 2 72.5 18zM269 788h256l-4 -33h-257z" />
    <glyph glyph-name="emacron" unicode="&#x113;" horiz-adv-x="497" 
d="M85 47q-53 61 -53 160q0 86 36 156.5t100 111.5t144 41q76 0 117.5 -30.5t41.5 -77.5t-36 -77.5t-93.5 -48.5t-149.5 -37l-70 -15q1 -80 39.5 -127t105.5 -47q49 0 93.5 21.5t75.5 64.5l11 -6q-29 -72 -86 -111t-132 -39q-91 0 -144 61zM191 273q88 21 140 51.5t52 85.5
q0 31 -24 54.5t-64 23.5q-47 0 -84.5 -31.5t-60.5 -84.5t-27 -114zM181 621h256l-4 -33h-257z" />
    <glyph glyph-name="Ebreve" unicode="&#x114;" horiz-adv-x="620" 
d="M68.5 32q23.5 16 29.5 57l78 491q2 14 2 19q0 28 -18.5 41t-61.5 14l2 14h506l26 -179h-14q-18 81 -56 116t-114 35h-172l-45 -283h137q45 0 64.5 22t29.5 73h14l-35 -219h-14q2 24 2 34q0 32 -14 47t-51 15h-137l-38 -240q-2 -16 -2 -21q0 -40 37 -40h150q68 0 112 33
t74 114h14l-53 -175h-527l2 14q49 2 72.5 18zM308 895q-4 -54 23 -77t71 -23q45 0 80 23t48 77h14q-26 -163 -151 -163q-103 0 -103 113q0 26 4 50h14z" />
    <glyph glyph-name="ebreve" unicode="&#x115;" horiz-adv-x="497" 
d="M85 47q-53 61 -53 160q0 86 36 156.5t100 111.5t144 41q76 0 117.5 -30.5t41.5 -77.5t-36 -77.5t-93.5 -48.5t-149.5 -37l-70 -15q1 -80 39.5 -127t105.5 -47q49 0 93.5 21.5t75.5 64.5l11 -6q-29 -72 -86 -111t-132 -39q-91 0 -144 61zM191 273q88 21 140 51.5t52 85.5
q0 31 -24 54.5t-64 23.5q-47 0 -84.5 -31.5t-60.5 -84.5t-27 -114zM220 728q-4 -54 23 -77t71 -23q45 0 80 23t48 77h14q-26 -163 -151 -163q-103 0 -103 113q0 26 4 50h14z" />
    <glyph glyph-name="Edotaccent" unicode="&#x116;" horiz-adv-x="620" 
d="M68.5 32q23.5 16 29.5 57l78 491q2 14 2 19q0 28 -18.5 41t-61.5 14l2 14h506l26 -179h-14q-18 81 -56 116t-114 35h-172l-45 -283h137q45 0 64.5 22t29.5 73h14l-35 -219h-14q2 24 2 34q0 32 -14 47t-51 15h-137l-38 -240q-2 -16 -2 -21q0 -40 37 -40h150q68 0 112 33
t74 114h14l-53 -175h-527l2 14q49 2 72.5 18zM361 860q20 19 48 19q25 0 41.5 -16t16.5 -40q0 -26 -20 -45t-48 -19q-25 0 -41.5 16t-16.5 39q0 27 20 46z" />
    <glyph glyph-name="edotaccent" unicode="&#x117;" horiz-adv-x="497" 
d="M85 47q-53 61 -53 160q0 86 36 156.5t100 111.5t144 41q76 0 117.5 -30.5t41.5 -77.5t-36 -77.5t-93.5 -48.5t-149.5 -37l-70 -15q1 -80 39.5 -127t105.5 -47q49 0 93.5 21.5t75.5 64.5l11 -6q-29 -72 -86 -111t-132 -39q-91 0 -144 61zM191 273q88 21 140 51.5t52 85.5
q0 31 -24 54.5t-64 23.5q-47 0 -84.5 -31.5t-60.5 -84.5t-27 -114zM272 693q20 19 48 19q25 0 41.5 -16t16.5 -40q0 -26 -20 -45t-48 -19q-25 0 -41.5 16t-16.5 39q0 27 20 46z" />
    <glyph glyph-name="Eogonek" unicode="&#x118;" horiz-adv-x="620" 
d="M68.5 32q23.5 16 29.5 57l78 491q2 14 2 19q0 28 -18.5 41t-61.5 14l2 14h506l26 -179h-14q-18 81 -56 116t-114 35h-172l-45 -283h137q45 0 64.5 22t29.5 73h14l-35 -219h-14q2 24 2 34q0 32 -14 47t-51 15h-137l-38 -240q-2 -16 -2 -21q0 -40 37 -40h150q68 0 112 33
t74 114h14l-53 -175h-62q-44 -34 -62 -57.5t-23 -50.5q-1 -5 -1 -13q0 -24 14 -37.5t40 -13.5q20 0 47 9l3 -10q-47 -37 -104 -37q-33 0 -54 17.5t-21 48.5q0 44 36 78t104 66h-444l2 14q49 2 72.5 18z" />
    <glyph glyph-name="eogonek" unicode="&#x119;" horiz-adv-x="497" 
d="M85 47q-53 61 -53 160q0 86 36 156.5t100 111.5t144 41q76 0 117.5 -30.5t41.5 -77.5t-36 -77.5t-93.5 -48.5t-149.5 -37l-70 -15q1 -80 39.5 -127t105.5 -47q49 0 93.5 21.5t75.5 64.5l11 -6q-35 -83 -104 -122q-46 -40 -65.5 -67.5t-24.5 -56.5q-1 -5 -1 -14
q0 -23 13.5 -36.5t39.5 -13.5q20 0 47 9l4 -10q-47 -37 -104 -37q-32 0 -53.5 17.5t-21.5 46.5q0 9 1 14q6 38 33.5 64t89.5 66q-37 -10 -72 -10q-91 0 -144 61zM191 273q88 21 140 51.5t52 85.5q0 31 -24 54.5t-64 23.5q-47 0 -84.5 -31.5t-60.5 -84.5t-27 -114z" />
    <glyph glyph-name="Ecaron" unicode="&#x11a;" horiz-adv-x="620" 
d="M68.5 32q23.5 16 29.5 57l78 491q2 14 2 19q0 28 -18.5 41t-61.5 14l2 14h506l26 -179h-14q-18 81 -56 116t-114 35h-172l-45 -283h137q45 0 64.5 22t29.5 73h14l-35 -219h-14q2 24 2 34q0 32 -14 47t-51 15h-137l-38 -240q-2 -16 -2 -21q0 -40 37 -40h150q68 0 112 33
t74 114h14l-53 -175h-527l2 14q49 2 72.5 18zM293 895l105 -111l141 111h14l-122 -162h-82l-70 162h14z" />
    <glyph glyph-name="ecaron" unicode="&#x11b;" horiz-adv-x="497" 
d="M85 47q-53 61 -53 160q0 86 36 156.5t100 111.5t144 41q76 0 117.5 -30.5t41.5 -77.5t-36 -77.5t-93.5 -48.5t-149.5 -37l-70 -15q1 -80 39.5 -127t105.5 -47q49 0 93.5 21.5t75.5 64.5l11 -6q-29 -72 -86 -111t-132 -39q-91 0 -144 61zM191 273q88 21 140 51.5t52 85.5
q0 31 -24 54.5t-64 23.5q-47 0 -84.5 -31.5t-60.5 -84.5t-27 -114zM205 728l105 -111l141 111h14l-122 -162h-82l-70 162h14z" />
    <glyph glyph-name="Gcircumflex" unicode="&#x11c;" horiz-adv-x="734" 
d="M187.5 22q-64.5 36 -99 102.5t-34.5 156.5q0 112 50.5 204t138.5 145t194 53q99 0 162.5 -39.5t73.5 -108.5l-93 -27q-5 67 -48.5 107t-110.5 40q-72 0 -133 -49t-97 -131.5t-36 -177.5q0 -85 27 -148.5t76 -98t115 -34.5q38 0 77.5 13t68.5 39l26 170q2 18 2 25
q0 31 -19 44.5t-63 15.5l2 14h275l-2 -14q-51 -4 -74.5 -24.5t-29.5 -60.5l-20 -133q-45 -51 -119 -85t-155 -34q-90 0 -154.5 36zM432 896h82l70 -162h-14l-105 111l-141 -111h-14z" />
    <glyph glyph-name="gcircumflex" unicode="&#x11d;" horiz-adv-x="497" 
d="M208.5 464q-29.5 -23 -46.5 -61t-17 -82q0 -54 27.5 -88t76.5 -34q35 0 64.5 23t46.5 61.5t17 82.5q0 54 -27.5 87.5t-75.5 33.5q-36 0 -65.5 -23zM-6.5 -19q36.5 32 81.5 46q-21 12 -31 30t-10 39q0 33 22.5 60t61.5 47q-61 42 -61 120q0 55 30 99t82 69t116 25
q49 0 86 -15h158l-5 -28h-106q47 -42 47 -111q0 -55 -30 -99t-81.5 -68.5t-114.5 -24.5q-64 0 -108 25q-19 -14 -30 -31.5t-11 -33.5q0 -18 16 -32t47 -16l156 -11q139 -11 139 -112q0 -52 -36.5 -90.5t-103.5 -59.5t-155 -21q-87 0 -141.5 30.5t-54.5 84.5q0 46 36.5 78z
M77 -157q44 -29 114 -29q47 0 91.5 13t73 38t28.5 60q0 31 -22 49.5t-76 22.5l-147 12q-30 3 -47 10q-26 -21 -42.5 -43.5t-16.5 -53.5q0 -50 44 -79zM278 729h82l70 -162h-14l-105 111l-141 -111h-14z" />
    <glyph glyph-name="Gbreve" unicode="&#x11e;" horiz-adv-x="734" 
d="M187.5 22q-64.5 36 -99 102.5t-34.5 156.5q0 112 50.5 204t138.5 145t194 53q99 0 162.5 -39.5t73.5 -108.5l-93 -27q-5 67 -48.5 107t-110.5 40q-72 0 -133 -49t-97 -131.5t-36 -177.5q0 -85 27 -148.5t76 -98t115 -34.5q38 0 77.5 13t68.5 39l26 170q2 18 2 25
q0 31 -19 44.5t-63 15.5l2 14h275l-2 -14q-51 -4 -74.5 -24.5t-29.5 -60.5l-20 -133q-45 -51 -119 -85t-155 -34q-90 0 -154.5 36zM360 895q-4 -54 23 -77t71 -23q45 0 80 23t48 77h14q-26 -163 -151 -163q-103 0 -103 113q0 26 4 50h14z" />
    <glyph glyph-name="gbreve" unicode="&#x11f;" horiz-adv-x="497" 
d="M208.5 464q-29.5 -23 -46.5 -61t-17 -82q0 -54 27.5 -88t76.5 -34q35 0 64.5 23t46.5 61.5t17 82.5q0 54 -27.5 87.5t-75.5 33.5q-36 0 -65.5 -23zM-6.5 -19q36.5 32 81.5 46q-21 12 -31 30t-10 39q0 33 22.5 60t61.5 47q-61 42 -61 120q0 55 30 99t82 69t116 25
q49 0 86 -15h158l-5 -28h-106q47 -42 47 -111q0 -55 -30 -99t-81.5 -68.5t-114.5 -24.5q-64 0 -108 25q-19 -14 -30 -31.5t-11 -33.5q0 -18 16 -32t47 -16l156 -11q139 -11 139 -112q0 -52 -36.5 -90.5t-103.5 -59.5t-155 -21q-87 0 -141.5 30.5t-54.5 84.5q0 46 36.5 78z
M77 -157q44 -29 114 -29q47 0 91.5 13t73 38t28.5 60q0 31 -22 49.5t-76 22.5l-147 12q-30 3 -47 10q-26 -21 -42.5 -43.5t-16.5 -53.5q0 -50 44 -79zM205 728q-4 -54 23 -77t71 -23q45 0 80 23t48 77h14q-26 -163 -151 -163q-103 0 -103 113q0 26 4 50h14z" />
    <glyph glyph-name="Gdotaccent" unicode="&#x120;" horiz-adv-x="734" 
d="M187.5 22q-64.5 36 -99 102.5t-34.5 156.5q0 112 50.5 204t138.5 145t194 53q99 0 162.5 -39.5t73.5 -108.5l-93 -27q-5 67 -48.5 107t-110.5 40q-72 0 -133 -49t-97 -131.5t-36 -177.5q0 -85 27 -148.5t76 -98t115 -34.5q38 0 77.5 13t68.5 39l26 170q2 18 2 25
q0 31 -19 44.5t-63 15.5l2 14h275l-2 -14q-51 -4 -74.5 -24.5t-29.5 -60.5l-20 -133q-45 -51 -119 -85t-155 -34q-90 0 -154.5 36zM412 860q20 19 48 19q25 0 41.5 -16t16.5 -40q0 -26 -20 -45t-48 -19q-25 0 -41.5 16t-16.5 39q0 27 20 46z" />
    <glyph glyph-name="gdotaccent" unicode="&#x121;" horiz-adv-x="497" 
d="M208.5 464q-29.5 -23 -46.5 -61t-17 -82q0 -54 27.5 -88t76.5 -34q35 0 64.5 23t46.5 61.5t17 82.5q0 54 -27.5 87.5t-75.5 33.5q-36 0 -65.5 -23zM-6.5 -19q36.5 32 81.5 46q-21 12 -31 30t-10 39q0 33 22.5 60t61.5 47q-61 42 -61 120q0 55 30 99t82 69t116 25
q49 0 86 -15h158l-5 -28h-106q47 -42 47 -111q0 -55 -30 -99t-81.5 -68.5t-114.5 -24.5q-64 0 -108 25q-19 -14 -30 -31.5t-11 -33.5q0 -18 16 -32t47 -16l156 -11q139 -11 139 -112q0 -52 -36.5 -90.5t-103.5 -59.5t-155 -21q-87 0 -141.5 30.5t-54.5 84.5q0 46 36.5 78z
M77 -157q44 -29 114 -29q47 0 91.5 13t73 38t28.5 60q0 31 -22 49.5t-76 22.5l-147 12q-30 3 -47 10q-26 -21 -42.5 -43.5t-16.5 -53.5q0 -50 44 -79zM258 693q20 19 48 19q25 0 41.5 -16t16.5 -40q0 -26 -20 -45t-48 -19q-25 0 -41.5 16t-16.5 39q0 27 20 46z" />
    <glyph glyph-name="uni0122" unicode="&#x122;" horiz-adv-x="734" 
d="M187.5 22q-64.5 36 -99 102.5t-34.5 156.5q0 112 50.5 204t138.5 145t194 53q99 0 162.5 -39.5t73.5 -108.5l-93 -27q-5 67 -48.5 107t-110.5 40q-72 0 -133 -49t-97 -131.5t-36 -177.5q0 -85 27 -148.5t76 -98t115 -34.5q38 0 77.5 13t68.5 39l26 170q2 18 2 25
q0 31 -19 44.5t-63 15.5l2 14h275l-2 -14q-51 -4 -74.5 -24.5t-29.5 -60.5l-20 -133q-45 -51 -119 -85t-155 -34q-90 0 -154.5 36zM298.5 -147q11.5 36 11.5 69q0 16 -3 30l75 7q6 -97 -105 -174l-9 7q19 25 30.5 61z" />
    <glyph glyph-name="uni0123" unicode="&#x123;" horiz-adv-x="497" 
d="M208.5 464q-29.5 -23 -46.5 -61t-17 -82q0 -54 27.5 -88t76.5 -34q35 0 64.5 23t46.5 61.5t17 82.5q0 54 -27.5 87.5t-75.5 33.5q-36 0 -65.5 -23zM-6.5 -19q36.5 32 81.5 46q-21 12 -31 30t-10 39q0 33 22.5 60t61.5 47q-61 42 -61 120q0 55 30 99t82 69t116 25
q49 0 86 -15h158l-5 -28h-106q47 -42 47 -111q0 -55 -30 -99t-81.5 -68.5t-114.5 -24.5q-64 0 -108 25q-19 -14 -30 -31.5t-11 -33.5q0 -18 16 -32t47 -16l156 -11q139 -11 139 -112q0 -52 -36.5 -90.5t-103.5 -59.5t-155 -21q-87 0 -141.5 30.5t-54.5 84.5q0 46 36.5 78z
M77 -157q44 -29 114 -29q47 0 91.5 13t73 38t28.5 60q0 31 -22 49.5t-76 22.5l-147 12q-30 3 -47 10q-26 -21 -42.5 -43.5t-16.5 -53.5q0 -50 44 -79zM349 733l9 -7q-19 -25 -30.5 -61t-11.5 -69q0 -16 3 -30l-75 -7q-6 97 105 174z" />
    <glyph glyph-name="Hcircumflex" unicode="&#x124;" horiz-adv-x="777" 
d="M507 32q23 16 30 57l38 239h-349l-38 -239q-2 -14 -2 -19q0 -29 19 -41.5t61 -14.5l-2 -14h-270l2 14q49 2 72 18t30 57l78 491q2 16 2 21q0 27 -18.5 39.5t-61.5 13.5l2 14h270l-2 -14q-49 -2 -72 -16.5t-29 -55.5l-36 -226h348l36 224q2 16 2 21q0 27 -18.5 39.5
t-61.5 13.5l2 14h270l-2 -14q-49 -2 -72 -16.5t-29 -55.5l-79 -493q-2 -14 -2 -19q0 -29 19 -41.5t61 -14.5l-2 -14h-270l2 14q49 2 72 18zM460 896h82l70 -162h-14l-105 111l-141 -111h-14z" />
    <glyph glyph-name="hcircumflex" unicode="&#x125;" horiz-adv-x="582" 
d="M389 4q-19 18 -19 51q0 11 6 50l40 253q2 18 2 24q0 36 -19.5 56t-54.5 20q-76 0 -159 -82l-61 -376h-83l97 599q1 6 1 15q0 18 -10 26t-32 10l-26 1l2 14l151 41h14l-49 -301q50 54 98.5 82.5t99.5 28.5q55 0 85.5 -30.5t30.5 -84.5q0 -17 -3 -35l-41 -265
q-4 -26 -4 -35q0 -33 30 -33q12 0 24 6.5t29 25.5l10 -10q-45 -69 -106 -69q-34 0 -53 18zM187 896h82l70 -162h-14l-105 111l-141 -111h-14z" />
    <glyph glyph-name="Hbar" unicode="&#x126;" horiz-adv-x="777" 
d="M507 32q23 16 30 57l38 239h-349l-38 -239q-2 -14 -2 -19q0 -29 19 -41.5t61 -14.5l-2 -14h-270l2 14q49 2 72 18t30 57l63 395h-73l4 26h73l11 70q2 16 2 21q0 27 -18.5 39.5t-61.5 13.5l2 14h270l-2 -14q-49 -2 -72 -16.5t-29 -55.5l-12 -72h349l11 70q2 16 2 21
q0 27 -18.5 39.5t-61.5 13.5l2 14h270l-2 -14q-49 -2 -72 -16.5t-29 -55.5l-12 -72h80l-4 -26h-80l-63 -395q-2 -14 -2 -19q0 -29 19 -41.5t61 -14.5l-2 -14h-270l2 14q49 2 72 18zM579 356l21 128h-349l-20 -128h348z" />
    <glyph glyph-name="hbar" unicode="&#x127;" horiz-adv-x="582" 
d="M389 4q-19 18 -19 51q0 11 6 50l40 253q2 18 2 24q0 36 -19.5 56t-54.5 20q-76 0 -159 -82l-61 -376h-83l91 560h-119l5 28h118l2 11q1 6 1 15q0 18 -10 26t-32 10l-26 1l2 14l151 41h14l-19 -118h113l-4 -28h-114l-25 -155q50 54 98.5 82.5t99.5 28.5q55 0 85.5 -30.5
t30.5 -84.5q0 -17 -3 -35l-41 -265q-4 -26 -4 -35q0 -33 30 -33q12 0 24 6.5t29 25.5l10 -10q-45 -69 -106 -69q-34 0 -53 18z" />
    <glyph glyph-name="Itilde" unicode="&#x128;" horiz-adv-x="338" 
d="M68 32q23 16 30 57l78 491q2 16 2 21q0 27 -18.5 39.5t-61.5 13.5l2 14h270l-2 -14q-49 -2 -72 -16.5t-29 -55.5l-79 -493q-2 -14 -2 -19q0 -29 19 -41.5t61 -14.5l-2 -14h-270l2 14q49 2 72 18zM138.5 826.5q27.5 28.5 63.5 28.5q17 0 32.5 -7t38.5 -21q21 -13 35 -19.5
t27 -6.5q38 0 60 51h14q-12 -49 -40 -78t-64 -29q-17 0 -33 7t-37 21q-22 14 -35 20t-27 6q-38 0 -61 -52l-13 1q12 50 39.5 78.5z" />
    <glyph glyph-name="itilde" unicode="&#x129;" horiz-adv-x="267" 
d="M75 3.5q-19 17.5 -19 50.5q0 11 5 51l49 304q1 5 1 14q0 18 -11 27t-34 11h-24l2 14l152 41h14l-67 -416q-4 -28 -4 -35q0 -15 8 -24t21 -9t25.5 7t29.5 26l10 -10q-45 -69 -106 -69q-33 0 -52 17.5zM58.5 659.5q27.5 28.5 63.5 28.5q17 0 32.5 -7t38.5 -21
q21 -13 35 -19.5t27 -6.5q38 0 60 51h14q-12 -49 -40 -78t-64 -29q-17 0 -33 7t-37 21q-22 14 -35 20t-27 6q-38 0 -61 -52l-13 1q12 50 39.5 78.5z" />
    <glyph glyph-name="Imacron" unicode="&#x12a;" horiz-adv-x="338" 
d="M68 32q23 16 30 57l78 491q2 16 2 21q0 27 -18.5 39.5t-61.5 13.5l2 14h270l-2 -14q-49 -2 -72 -16.5t-29 -55.5l-79 -493q-2 -14 -2 -19q0 -29 19 -41.5t61 -14.5l-2 -14h-270l2 14q49 2 72 18zM124 788h256l-4 -33h-257z" />
    <glyph glyph-name="imacron" unicode="&#x12b;" horiz-adv-x="267" 
d="M75 3.5q-19 17.5 -19 50.5q0 11 5 51l49 304q1 5 1 14q0 18 -11 27t-34 11h-24l2 14l152 41h14l-67 -416q-4 -28 -4 -35q0 -15 8 -24t21 -9t25.5 7t29.5 26l10 -10q-45 -69 -106 -69q-33 0 -52 17.5zM43 621h256l-4 -33h-257z" />
    <glyph glyph-name="Ibreve" unicode="&#x12c;" horiz-adv-x="338" 
d="M68 32q23 16 30 57l78 491q2 16 2 21q0 27 -18.5 39.5t-61.5 13.5l2 14h270l-2 -14q-49 -2 -72 -16.5t-29 -55.5l-79 -493q-2 -14 -2 -19q0 -29 19 -41.5t61 -14.5l-2 -14h-270l2 14q49 2 72 18zM162 895q-4 -54 23 -77t71 -23q45 0 80 23t48 77h14q-26 -163 -151 -163
q-103 0 -103 113q0 26 4 50h14z" />
    <glyph glyph-name="ibreve" unicode="&#x12d;" horiz-adv-x="267" 
d="M75 3.5q-19 17.5 -19 50.5q0 11 5 51l49 304q1 5 1 14q0 18 -11 27t-34 11h-24l2 14l152 41h14l-67 -416q-4 -28 -4 -35q0 -15 8 -24t21 -9t25.5 7t29.5 26l10 -10q-45 -69 -106 -69q-33 0 -52 17.5zM82 728q-4 -54 23 -77t71 -23q45 0 80 23t48 77h14
q-26 -163 -151 -163q-103 0 -103 113q0 26 4 50h14z" />
    <glyph glyph-name="Iogonek" unicode="&#x12e;" horiz-adv-x="338" 
d="M68 32q23 16 30 57l78 491q2 16 2 21q0 27 -18.5 39.5t-61.5 13.5l2 14h270l-2 -14q-49 -2 -72 -16.5t-29 -55.5l-79 -493q-2 -14 -2 -19q0 -29 19 -41.5t61 -14.5l-2 -14h-84q-44 -34 -62 -57.5t-23 -50.5q-1 -5 -1 -13q0 -24 14 -37.5t40 -13.5q20 0 47 9l3 -10
q-47 -37 -104 -37q-33 0 -54 17.5t-21 48.5q0 44 36 78t104 66h-165l2 14q49 2 72 18z" />
    <glyph glyph-name="iogonek" unicode="&#x12f;" horiz-adv-x="267" 
d="M75 3.5q-19 17.5 -19 50.5q0 11 5 51l49 304q1 5 1 14q0 18 -11 27t-34 11h-24l2 14l152 41h14l-67 -416q-4 -28 -4 -35q0 -15 8 -24t21 -9t25.5 7t29.5 26l10 -10q-30 -43 -62 -59q-41 -33 -58 -55t-22 -49q-1 -5 -1 -13q0 -24 14 -37.5t40 -13.5q20 0 47 9l3 -10
q-47 -37 -104 -37q-33 0 -54 17.5t-21 48.5q0 38 29.5 70t82.5 60q-33 0 -52 17.5zM134 693q20 19 48 19q25 0 41.5 -16t16.5 -40q0 -26 -20 -45t-48 -19q-25 0 -41.5 16t-16.5 39q0 27 20 46z" />
    <glyph glyph-name="Idotaccent" unicode="&#x130;" horiz-adv-x="338" 
d="M68 32q23 16 30 57l78 491q2 16 2 21q0 27 -18.5 39.5t-61.5 13.5l2 14h270l-2 -14q-49 -2 -72 -16.5t-29 -55.5l-79 -493q-2 -14 -2 -19q0 -29 19 -41.5t61 -14.5l-2 -14h-270l2 14q49 2 72 18zM215 860q20 19 48 19q25 0 41.5 -16t16.5 -40q0 -26 -20 -45t-48 -19
q-25 0 -41.5 16t-16.5 39q0 27 20 46z" />
    <glyph glyph-name="dotlessi" unicode="&#x131;" horiz-adv-x="267" 
d="M75 3.5q-19 17.5 -19 50.5q0 11 5 51l49 304q1 5 1 14q0 18 -11 27t-34 11h-24l2 14l152 41h14l-67 -416q-4 -28 -4 -35q0 -15 8 -24t21 -9t25.5 7t29.5 26l10 -10q-45 -69 -106 -69q-33 0 -52 17.5z" />
    <glyph glyph-name="IJ" unicode="&#x132;" horiz-adv-x="843" 
d="M68 32q23 16 30 57l78 491q2 16 2 21q0 27 -18.5 39.5t-61.5 13.5l2 14h270l-2 -14q-49 -2 -72 -16.5t-29 -55.5l-79 -493q-2 -14 -2 -19q0 -29 19 -41.5t61 -14.5l-2 -14h-270l2 14q49 2 72 18zM373 25.5q-49 40.5 -54 111.5l97 26q-4 -69 21.5 -109.5t73.5 -40.5
q56 0 81.5 43.5t35.5 105.5l65 418q2 14 2 21q0 25 -17.5 38.5t-61.5 14.5l2 14h269l-2 -14q-51 -3 -72.5 -18t-28.5 -54l-63 -400q-15 -94 -63 -145.5t-151 -51.5q-85 0 -134 40.5z" />
    <glyph glyph-name="ij" unicode="&#x133;" horiz-adv-x="534" 
d="M75 3.5q-19 17.5 -19 50.5q0 11 5 51l49 304q1 5 1 14q0 18 -11 27t-34 11h-24l2 14l152 41h14l-67 -416q-4 -28 -4 -35q0 -15 8 -24t21 -9t25.5 7t29.5 26l10 -10q-45 -69 -106 -69q-33 0 -52 17.5zM134 693q20 19 48 19q25 0 41.5 -16t16.5 -40q0 -26 -20 -45t-48 -19
q-25 0 -41.5 16t-16.5 39q0 27 20 46zM293.5 -107.5q32.5 53.5 48.5 151.5l58 364q1 5 1 14q0 19 -11 28t-34 11h-23l2 14l151 41h14l-70 -441q-17 -115 -66.5 -181.5t-157.5 -105.5l-4 11q59 40 91.5 93.5zM426 694q20 19 48 19q25 0 41.5 -16t16.5 -40q0 -26 -20 -45
t-48 -19q-25 0 -41.5 16t-16.5 39q0 27 20 46z" />
    <glyph glyph-name="Jcircumflex" unicode="&#x134;" horiz-adv-x="511" 
d="M41 25.5q-49 40.5 -54 111.5l97 26q-4 -69 21.5 -109.5t73.5 -40.5q56 0 81.5 43.5t35.5 105.5l65 418q2 14 2 21q0 25 -17.5 38.5t-61.5 14.5l2 14h269l-2 -14q-51 -3 -72.5 -18t-28.5 -54l-63 -400q-15 -94 -63 -145.5t-151 -51.5q-85 0 -134 40.5zM421 896h82l70 -162
h-14l-105 111l-141 -111h-14z" />
    <glyph glyph-name="jcircumflex" unicode="&#x135;" horiz-adv-x="233" 
d="M5.5 -107.5q32.5 53.5 48.5 151.5l58 364q1 5 1 14q0 19 -11 28t-34 11h-23l2 14l151 41h14l-70 -441q-17 -115 -66.5 -181.5t-157.5 -105.5l-4 11q59 40 91.5 93.5zM158 730h82l70 -162h-14l-105 111l-141 -111h-14z" />
    <glyph glyph-name="uni0136" unicode="&#x136;" horiz-adv-x="711" 
d="M501.5 28.5q-6.5 14.5 -17.5 35.5l-164 298l-102 -84l-30 -189q-2 -14 -2 -19q0 -29 19 -41.5t61 -14.5l-2 -14h-270l2 14q49 2 72 18t30 57l78 491q2 16 2 21q0 27 -18.5 39.5t-61.5 13.5l2 14h270l-2 -14q-49 -2 -72 -16.5t-29 -55.5l-42 -262l338 275q30 25 30 38
q0 20 -69 21l2 14h213l-3 -14q-38 -2 -63 -13t-60 -40l-223 -182l190 -343q19 -34 39.5 -47.5t58.5 -14.5l-2 -14h-167q-1 14 -7.5 28.5zM311.5 -147q11.5 36 11.5 69q0 16 -3 30l75 7q6 -97 -105 -174l-9 7q19 25 30.5 61z" />
    <glyph glyph-name="uni0137" unicode="&#x137;" horiz-adv-x="531" 
d="M139 612q0 19 -11 28t-34 11h-23l2 14l151 41h14l-71 -450l230 192l18 15q29 24 47.5 35.5t37.5 11.5q9 0 18 -3l-18 -75q-12 6 -32 6q-40 0 -68 -24l-101 -84l133 -266q14 -27 29.5 -37.5t47.5 -12.5l-2 -14l-131 -10l-142 286l-74 -62l-34 -214h-83l95 599q1 5 1 13z
M201.5 -147q11.5 36 11.5 69q0 16 -3 30l75 7q6 -97 -105 -174l-9 7q19 25 30.5 61z" />
    <glyph glyph-name="kgreenlandic" unicode="&#x138;" horiz-adv-x="534" 
d="M237 276l-74 -61l-34 -215h-84l65 409q1 5 1 14q0 18 -11 27t-33 11h-24l2 14l151 41h14l-41 -261l231 193q7 6 29 25t40 28t34 9q9 0 18 -3l-18 -75q-12 6 -32 6q-40 0 -68 -24l-101 -84l133 -266q13 -25 29.5 -36.5t47.5 -13.5l-2 -14l-131 -10z" />
    <glyph glyph-name="Lacute" unicode="&#x139;" horiz-adv-x="567" 
d="M-4 14q50 3 73 18.5t29 56.5l78 491q2 14 2 20q0 28 -19 40t-62 14l3 14h270l-3 -14q-50 -3 -72 -18.5t-29 -55.5l-78 -491q-2 -14 -2 -20q0 -22 10.5 -31.5t33.5 -9.5h109q66 0 112 38t75 114h14l-54 -180h-492zM314 895h95l-172 -162h-14z" />
    <glyph glyph-name="lacute" unicode="&#x13a;" horiz-adv-x="268" 
d="M73.5 3.5q-19.5 17.5 -19.5 50.5q0 19 6 51l78 494l2 16q0 18 -10 25.5t-33 9.5l-26 1l2 14l151 41h14l-95 -605q-4 -19 -4 -36q0 -16 7.5 -24t21.5 -8q13 0 25 6.5t29 25.5l10 -10q-45 -69 -106 -69q-33 0 -52.5 17.5zM262 916h95l-172 -162h-14z" />
    <glyph glyph-name="uni013B" unicode="&#x13b;" horiz-adv-x="567" 
d="M-4 14q50 3 73 18.5t29 56.5l78 491q2 14 2 20q0 28 -19 40t-62 14l3 14h270l-3 -14q-50 -3 -72 -18.5t-29 -55.5l-78 -491q-2 -14 -2 -20q0 -22 10.5 -31.5t33.5 -9.5h109q66 0 112 38t75 114h14l-54 -180h-492zM232.5 -147q11.5 36 11.5 69q0 16 -3 30l75 7
q6 -97 -105 -174l-9 7q19 25 30.5 61z" />
    <glyph glyph-name="uni013C" unicode="&#x13c;" horiz-adv-x="268" 
d="M73.5 3.5q-19.5 17.5 -19.5 50.5q0 19 6 51l78 494l2 16q0 18 -10 25.5t-33 9.5l-26 1l2 14l151 41h14l-95 -605q-4 -19 -4 -36q0 -16 7.5 -24t21.5 -8q13 0 25 6.5t29 25.5l10 -10q-45 -69 -106 -69q-33 0 -52.5 17.5zM78.5 -147q11.5 36 11.5 69q0 16 -3 30l75 7
q6 -97 -105 -174l-9 7q19 25 30.5 61z" />
    <glyph glyph-name="Lcaron" unicode="&#x13d;" horiz-adv-x="567" 
d="M-4 14q50 3 73 18.5t29 56.5l78 491q2 14 2 20q0 28 -19 40t-62 14l3 14h270l-3 -14q-50 -3 -72 -18.5t-29 -55.5l-78 -491q-2 -14 -2 -20q0 -22 10.5 -31.5t33.5 -9.5h109q66 0 112 38t75 114h14l-54 -180h-492zM448 764h84l-135 -201h-14z" />
    <glyph glyph-name="lcaron" unicode="&#x13e;" horiz-adv-x="234" 
d="M73.5 3.5q-19.5 17.5 -19.5 50.5q0 19 6 51l78 494l2 16q0 18 -10 25.5t-33 9.5l-26 1l2 14l151 41h14l-95 -605q-4 -19 -4 -36q0 -16 7.5 -24t21.5 -8q13 0 25 6.5t29 25.5l10 -10q-45 -69 -106 -69q-33 0 -52.5 17.5zM341 764h84l-135 -201h-14z" />
    <glyph glyph-name="Ldot" unicode="&#x13f;" horiz-adv-x="567" 
d="M-4 14q50 3 73 18.5t29 56.5l78 491q2 14 2 20q0 28 -19 40t-62 14l3 14h270l-3 -14q-50 -3 -72 -18.5t-29 -55.5l-78 -491q-2 -14 -2 -20q0 -22 10.5 -31.5t33.5 -9.5h109q66 0 112 38t75 114h14l-54 -180h-492zM339 303.5q-16 16.5 -16 40.5q0 27 19.5 46t46.5 19
q25 0 40.5 -16.5t15.5 -39.5q0 -28 -19.5 -47t-46.5 -19q-24 0 -40 16.5z" />
    <glyph glyph-name="ldot" unicode="&#x140;" horiz-adv-x="387" 
d="M73.5 3.5q-19.5 17.5 -19.5 50.5q0 19 6 51l78 494l2 16q0 18 -10 25.5t-33 9.5l-26 1l2 14l151 41h14l-95 -605q-4 -19 -4 -36q0 -16 7.5 -24t21.5 -8q13 0 25 6.5t29 25.5l10 -10q-45 -69 -106 -69q-33 0 -52.5 17.5zM271 303.5q-16 16.5 -16 40.5q0 27 19.5 46
t46.5 19q25 0 40.5 -16.5t15.5 -39.5q0 -28 -19.5 -47t-46.5 -19q-24 0 -40 16.5z" />
    <glyph glyph-name="Lslash" unicode="&#x141;" horiz-adv-x="567" 
d="M-4 14q50 3 73 18.5t29 56.5l33 211l-111 -51l4 33l113 51l39 247q2 14 2 20q0 28 -19 40t-62 14l3 14h270l-3 -14q-50 -3 -72 -18.5t-29 -55.5l-32 -203l182 83l-4 -33l-184 -83l-40 -255q-2 -14 -2 -20q0 -22 10.5 -31.5t33.5 -9.5h109q66 0 112 38t75 114h14l-54 -180
h-492z" />
    <glyph glyph-name="lslash" unicode="&#x142;" horiz-adv-x="268" 
d="M73.5 3.5q-19.5 17.5 -19.5 50.5q0 19 6 51l34 217l-74 -34l5 34l75 34l38 243l2 16q0 18 -10 25.5t-33 9.5l-26 1l2 14l151 41h14l-49 -309l80 36l-5 -33l-80 -37l-41 -262q-4 -19 -4 -36q0 -16 7.5 -24t21.5 -8q13 0 25 6.5t29 25.5l10 -10q-45 -69 -106 -69
q-33 0 -52.5 17.5z" />
    <glyph glyph-name="Nacute" unicode="&#x143;" horiz-adv-x="736" 
d="M77 35q22 17 29 62l80 508q-17 25 -37 36.5t-52 12.5l3 14h165l302 -528l69 431q2 16 2 22q0 32 -21 45.5t-73 15.5l3 14h222l-3 -14q-52 -3 -73.5 -20t-28.5 -63l-93 -586h-24l-338 585l-75 -473q-2 -16 -2 -23q0 -31 21 -44t73 -16l-3 -14h-222l2 14q52 4 74 21z
M510 895h95l-172 -162h-14z" />
    <glyph glyph-name="nacute" unicode="&#x144;" horiz-adv-x="586" 
d="M393 4q-19 18 -19 51q0 11 6 50l40 253q2 18 2 24q0 36 -19.5 56t-54.5 20q-77 0 -160 -83l-60 -375h-83l65 409q1 5 1 14q0 18 -10 26.5t-32 10.5l-27 1l2 14l152 41h14l-18 -112q101 112 199 112q55 0 85.5 -30.5t30.5 -84.5q0 -17 -3 -35l-41 -265q-4 -22 -4 -35
q0 -33 30 -33q12 0 24 6.5t29 25.5l10 -10q-45 -69 -106 -69q-34 0 -53 18zM399 728h95l-172 -162h-14z" />
    <glyph glyph-name="uni0145" unicode="&#x145;" horiz-adv-x="736" 
d="M77 35q22 17 29 62l80 508q-17 25 -37 36.5t-52 12.5l3 14h165l302 -528l69 431q2 16 2 22q0 32 -21 45.5t-73 15.5l3 14h222l-3 -14q-52 -3 -73.5 -20t-28.5 -63l-93 -586h-24l-338 585l-75 -473q-2 -16 -2 -23q0 -31 21 -44t73 -16l-3 -14h-222l2 14q52 4 74 21z
M293.5 -147q11.5 36 11.5 69q0 16 -3 30l75 7q6 -97 -105 -174l-9 7q19 25 30.5 61z" />
    <glyph glyph-name="uni0146" unicode="&#x146;" horiz-adv-x="586" 
d="M393 4q-19 18 -19 51q0 11 6 50l40 253q2 18 2 24q0 36 -19.5 56t-54.5 20q-77 0 -160 -83l-60 -375h-83l65 409q1 5 1 14q0 18 -10 26.5t-32 10.5l-27 1l2 14l152 41h14l-18 -112q101 112 199 112q55 0 85.5 -30.5t30.5 -84.5q0 -17 -3 -35l-41 -265q-4 -22 -4 -35
q0 -33 30 -33q12 0 24 6.5t29 25.5l10 -10q-45 -69 -106 -69q-34 0 -53 18zM206.5 -147q11.5 36 11.5 69q0 16 -3 30l75 7q6 -97 -105 -174l-9 7q19 25 30.5 61z" />
    <glyph glyph-name="Ncaron" unicode="&#x147;" horiz-adv-x="736" 
d="M77 35q22 17 29 62l80 508q-17 25 -37 36.5t-52 12.5l3 14h165l302 -528l69 431q2 16 2 22q0 32 -21 45.5t-73 15.5l3 14h222l-3 -14q-52 -3 -73.5 -20t-28.5 -63l-93 -586h-24l-338 585l-75 -473q-2 -16 -2 -23q0 -31 21 -44t73 -16l-3 -14h-222l2 14q52 4 74 21z
M347 895l105 -111l141 111h14l-122 -162h-82l-70 162h14z" />
    <glyph glyph-name="ncaron" unicode="&#x148;" horiz-adv-x="586" 
d="M393 4q-19 18 -19 51q0 11 6 50l40 253q2 18 2 24q0 36 -19.5 56t-54.5 20q-77 0 -160 -83l-60 -375h-83l65 409q1 5 1 14q0 18 -10 26.5t-32 10.5l-27 1l2 14l152 41h14l-18 -112q101 112 199 112q55 0 85.5 -30.5t30.5 -84.5q0 -17 -3 -35l-41 -265q-4 -22 -4 -35
q0 -33 30 -33q12 0 24 6.5t29 25.5l10 -10q-45 -69 -106 -69q-34 0 -53 18zM236 728l105 -111l141 111h14l-122 -162h-82l-70 162h14z" />
    <glyph glyph-name="napostrophe" unicode="&#x149;" horiz-adv-x="586" 
d="M393 4q-19 18 -19 51q0 11 6 50l40 253q2 18 2 24q0 36 -19.5 56t-54.5 20q-77 0 -160 -83l-60 -375h-83l65 409q1 5 1 14q0 18 -10 26.5t-32 10.5l-27 1l2 14l152 41h14l-18 -112q101 112 199 112q55 0 85.5 -30.5t30.5 -84.5q0 -17 -3 -35l-41 -265q-4 -22 -4 -35
q0 -33 30 -33q12 0 24 6.5t29 25.5l10 -10q-45 -69 -106 -69q-34 0 -53 18zM79 561q38 7 66.5 31.5t32.5 61.5q-6 -5 -15.5 -8.5t-18.5 -3.5q-23 0 -40 15t-17 36q0 25 19.5 42t48.5 17q27 0 45.5 -17.5t18.5 -48.5q0 -53 -40 -93t-101 -45z" />
    <glyph glyph-name="Eng" unicode="&#x14a;" horiz-adv-x="726" 
d="M79 28.5q19 11.5 25 45.5l84 533q-16 24 -35 34.5t-56 12.5l3 14h160l306 -541l74 468q1 4 1 11q0 27 -24 36t-76 12l3 14h215l-3 -14q-44 -3 -62.5 -14.5t-24.5 -45.5l-98 -619q-31 -187 -200 -187q-145 0 -159 125l87 18q-1 -52 23 -83.5t73 -31.5q52 0 87.5 36
t44.5 99q3 18 3 32q0 30 -15 55l-302 529l-78 -493q-1 -4 -1 -11q0 -27 23 -36.5t76 -11.5l-2 -15h-217l2 14q44 3 63 14.5z" />
    <glyph glyph-name="eng" unicode="&#x14b;" horiz-adv-x="549" 
d="M322 -107.5q32 53.5 48 151.5l50 314q2 18 2 24q0 36 -19.5 56t-54.5 20q-77 0 -160 -83l-60 -375h-83l65 409q1 5 1 14q0 18 -10 26.5t-32 10.5l-27 1l2 14l152 41h14l-18 -112q101 112 199 112q55 0 85.5 -30.5t30.5 -84.5q0 -17 -3 -35l-46 -291
q-17 -115 -66.5 -181.5t-156.5 -105.5l-4 11q59 40 91 93.5z" />
    <glyph glyph-name="Omacron" unicode="&#x14c;" horiz-adv-x="758" 
d="M187 24q-65 38 -99 105.5t-34 154.5q0 109 52 200.5t141 144.5t197 53q89 0 154 -38t99 -105t34 -154q0 -109 -51.5 -200.5t-140.5 -145t-197 -53.5q-90 0 -155 38zM178 146q25 -62 71.5 -97t106.5 -35q80 0 143 52.5t98 138t35 178.5q0 76 -24.5 138t-70.5 97.5
t-108 35.5q-80 0 -143 -53t-98 -138t-35 -178q0 -77 25 -139zM330 788h256l-4 -33h-257z" />
    <glyph glyph-name="omacron" unicode="&#x14d;" horiz-adv-x="544" 
d="M85.5 46q-53.5 60 -53.5 164q0 84 37 154t101.5 111t143.5 41q91 0 144.5 -60t53.5 -164q0 -83 -36 -153t-100.5 -111.5t-145.5 -41.5q-91 0 -144.5 60zM157 70.5q33 -56.5 93 -56.5q51 0 89.5 39.5t59.5 102.5t21 130q0 89 -33 145.5t-91 56.5q-49 0 -88.5 -39
t-61.5 -101.5t-22 -130.5q0 -90 33 -146.5zM196 621h256l-4 -33h-257z" />
    <glyph glyph-name="Obreve" unicode="&#x14e;" horiz-adv-x="758" 
d="M187 24q-65 38 -99 105.5t-34 154.5q0 109 52 200.5t141 144.5t197 53q89 0 154 -38t99 -105t34 -154q0 -109 -51.5 -200.5t-140.5 -145t-197 -53.5q-90 0 -155 38zM178 146q25 -62 71.5 -97t106.5 -35q80 0 143 52.5t98 138t35 178.5q0 76 -24.5 138t-70.5 97.5
t-108 35.5q-80 0 -143 -53t-98 -138t-35 -178q0 -77 25 -139zM369 895q-4 -54 23 -77t71 -23q45 0 80 23t48 77h14q-26 -163 -151 -163q-103 0 -103 113q0 26 4 50h14z" />
    <glyph glyph-name="obreve" unicode="&#x14f;" horiz-adv-x="544" 
d="M85.5 46q-53.5 60 -53.5 164q0 84 37 154t101.5 111t143.5 41q91 0 144.5 -60t53.5 -164q0 -83 -36 -153t-100.5 -111.5t-145.5 -41.5q-91 0 -144.5 60zM157 70.5q33 -56.5 93 -56.5q51 0 89.5 39.5t59.5 102.5t21 130q0 89 -33 145.5t-91 56.5q-49 0 -88.5 -39
t-61.5 -101.5t-22 -130.5q0 -90 33 -146.5zM235 728q-4 -54 23 -77t71 -23q45 0 80 23t48 77h14q-26 -163 -151 -163q-103 0 -103 113q0 26 4 50h14z" />
    <glyph glyph-name="Ohungarumlaut" unicode="&#x150;" horiz-adv-x="758" 
d="M187 24q-65 38 -99 105.5t-34 154.5q0 109 52 200.5t141 144.5t197 53q89 0 154 -38t99 -105t34 -154q0 -109 -51.5 -200.5t-140.5 -145t-197 -53.5q-90 0 -155 38zM178 146q25 -62 71.5 -97t106.5 -35q80 0 143 52.5t98 138t35 178.5q0 76 -24.5 138t-70.5 97.5
t-108 35.5q-80 0 -143 -53t-98 -138t-35 -178q0 -77 25 -139zM478 895h95l-172 -162h-14zM595 895h95l-172 -162h-14z" />
    <glyph glyph-name="ohungarumlaut" unicode="&#x151;" horiz-adv-x="544" 
d="M85.5 46q-53.5 60 -53.5 164q0 84 37 154t101.5 111t143.5 41q91 0 144.5 -60t53.5 -164q0 -83 -36 -153t-100.5 -111.5t-145.5 -41.5q-91 0 -144.5 60zM157 70.5q33 -56.5 93 -56.5q51 0 89.5 39.5t59.5 102.5t21 130q0 89 -33 145.5t-91 56.5q-49 0 -88.5 -39
t-61.5 -101.5t-22 -130.5q0 -90 33 -146.5zM345 728h95l-172 -162h-14zM462 728h95l-172 -162h-14z" />
    <glyph glyph-name="OE" unicode="&#x152;" horiz-adv-x="1008" 
d="M189.5 21.5q-65.5 35.5 -101 101t-35.5 151.5q0 113 51.5 206.5t142.5 147.5t203 54q82 0 130 -14h424l-3 -175h-14q-11 148 -139 148h-184l-45 -285h138q45 0 64 22t30 74h14l-35 -219h-14q3 20 3 35q0 33 -15 47.5t-52 14.5h-137l-38 -241q-1 -7 -1 -19q0 -22 10 -32.5
t33 -10.5h144q128 0 186 148h14l-53 -175h-445q-51 -14 -123 -14q-87 0 -152.5 35.5zM179.5 140q26.5 -60 73 -92.5t104.5 -32.5q52 0 88.5 21t42.5 62l74 462q2 12 2 18q0 38 -33.5 56.5t-89.5 18.5q-87 0 -152.5 -53t-100.5 -139t-35 -183q0 -78 26.5 -138z" />
    <glyph glyph-name="oe" unicode="&#x153;" horiz-adv-x="884" 
d="M85.5 46q-53.5 60 -53.5 164q0 84 37 154t101.5 111t143.5 41q60 0 104.5 -26.5t68.5 -75.5q38 48 92.5 75t119.5 27q76 0 117.5 -30.5t41.5 -77.5t-36 -77.5t-93.5 -48.5t-149.5 -37l-70 -15q1 -80 39.5 -127t105.5 -47q49 0 93.5 21.5t75.5 64.5l11 -6
q-29 -72 -86 -111t-132 -39q-59 0 -103.5 27t-68.5 76q-38 -48 -93.5 -75.5t-120.5 -27.5q-91 0 -144.5 60zM157 70.5q33 -56.5 93 -56.5q51 0 89.5 39.5t59.5 102.5t21 130q0 89 -33 145.5t-91 56.5q-49 0 -88.5 -39t-61.5 -101.5t-22 -130.5q0 -90 33 -146.5zM578 273
q88 21 140 51.5t52 85.5q0 31 -24 54.5t-64 23.5q-66 0 -112.5 -60.5t-57.5 -148.5l-2 -21z" />
    <glyph glyph-name="Racute" unicode="&#x154;" horiz-adv-x="663" 
d="M450 51l-139 241h-90l-33 -203q-2 -14 -2 -20q0 -29 20 -41t60 -14l-2 -14h-270l2 14q49 3 72.5 18.5t29.5 56.5l78 491q2 12 2 17q0 29 -20.5 42t-59.5 15l2 14h284q107 0 167 -45.5t60 -127.5q0 -76 -53 -127.5t-150 -68.5l136 -231q14 -23 39 -38t52 -16l-2 -14h-163
q-3 17 -20 51zM310 320q63 0 109 23t70 62t24 88q0 69 -39.5 108t-113.5 39h-83l-52 -320h85zM453 895h95l-172 -162h-14z" />
    <glyph glyph-name="racute" unicode="&#x155;" horiz-adv-x="361" 
d="M111 422q0 19 -11 28t-34 11h-24l2 14l152 41h14l-21 -135q36 68 78 102t84 34q20 0 39 -9l-18 -81q-18 14 -50 14q-35 0 -72 -24t-67 -69l-55 -348h-83l65 409q1 5 1 13zM300 729h95l-172 -162h-14z" />
    <glyph glyph-name="uni0156" unicode="&#x156;" horiz-adv-x="663" 
d="M450 51l-139 241h-90l-33 -203q-2 -14 -2 -20q0 -29 20 -41t60 -14l-2 -14h-270l2 14q49 3 72.5 18.5t29.5 56.5l78 491q2 12 2 17q0 29 -20.5 42t-59.5 15l2 14h284q107 0 167 -45.5t60 -127.5q0 -76 -53 -127.5t-150 -68.5l136 -231q14 -23 39 -38t52 -16l-2 -14h-163
q-3 17 -20 51zM310 320q63 0 109 23t70 62t24 88q0 69 -39.5 108t-113.5 39h-83l-52 -320h85zM279.5 -147q11.5 36 11.5 69q0 16 -3 30l75 7q6 -97 -105 -174l-9 7q19 25 30.5 61z" />
    <glyph glyph-name="uni0157" unicode="&#x157;" horiz-adv-x="361" 
d="M111 422q0 19 -11 28t-34 11h-24l2 14l152 41h14l-21 -135q36 68 78 102t84 34q20 0 39 -9l-18 -81q-18 14 -50 14q-35 0 -72 -24t-67 -69l-55 -348h-83l65 409q1 5 1 13zM40.5 -147q11.5 36 11.5 69q0 16 -3 30l75 7q6 -97 -105 -174l-9 7q19 25 30.5 61z" />
    <glyph glyph-name="Rcaron" unicode="&#x158;" horiz-adv-x="663" 
d="M450 51l-139 241h-90l-33 -203q-2 -14 -2 -20q0 -29 20 -41t60 -14l-2 -14h-270l2 14q49 3 72.5 18.5t29.5 56.5l78 491q2 12 2 17q0 29 -20.5 42t-59.5 15l2 14h284q107 0 167 -45.5t60 -127.5q0 -76 -53 -127.5t-150 -68.5l136 -231q14 -23 39 -38t52 -16l-2 -14h-163
q-3 17 -20 51zM310 320q63 0 109 23t70 62t24 88q0 69 -39.5 108t-113.5 39h-83l-52 -320h85zM290 895l105 -111l141 111h14l-122 -162h-82l-70 162h14z" />
    <glyph glyph-name="rcaron" unicode="&#x159;" horiz-adv-x="361" 
d="M111 422q0 19 -11 28t-34 11h-24l2 14l152 41h14l-21 -135q36 68 78 102t84 34q20 0 39 -9l-18 -81q-18 14 -50 14q-35 0 -72 -24t-67 -69l-55 -348h-83l65 409q1 5 1 13zM137 729l105 -111l141 111h14l-122 -162h-82l-70 162h14z" />
    <glyph glyph-name="Sacute" unicode="&#x15a;" horiz-adv-x="530" 
d="M76.5 28.5q-63.5 42.5 -71.5 116.5l92 27q0 -47 20.5 -83t55 -55.5t75.5 -19.5q66 0 108 40t42 100q0 40 -20 68.5t-50 46.5t-80 41q-55 27 -87.5 47t-55 53t-22.5 81q0 54 29.5 97.5t84 68.5t125.5 25q80 0 141 -39t71 -104l-89 -28q-2 39 -21.5 71.5t-50 52t-65.5 19.5
q-62 0 -101.5 -35.5t-39.5 -87.5q0 -36 19.5 -62t49 -43t79.5 -40q58 -27 92.5 -48.5t59 -56.5t24.5 -85q0 -61 -33 -108.5t-91.5 -74.5t-133.5 -27q-93 0 -156.5 42.5zM400 895h95l-172 -162h-14z" />
    <glyph glyph-name="sacute" unicode="&#x15b;" horiz-adv-x="437" 
d="M66.5 17.5q-52.5 31.5 -68.5 80.5l78 41q5 -56 38 -90.5t85 -34.5q48 0 79.5 29.5t31.5 75.5q0 30 -15.5 50t-38.5 32t-63 27q-45 18 -72 32.5t-46 40.5t-19 67q0 67 53 107.5t133 40.5q67 0 114 -26t61 -70l-71 -39q-8 48 -39 77.5t-75 29.5q-46 0 -74 -26.5t-28 -66.5
q0 -37 27.5 -56.5t84.5 -40.5q48 -18 76 -33t48 -42.5t20 -70.5q0 -49 -26.5 -87t-71 -58.5t-98.5 -20.5q-71 0 -123.5 31.5zM323 728h95l-172 -162h-14z" />
    <glyph glyph-name="Scircumflex" unicode="&#x15c;" horiz-adv-x="530" 
d="M76.5 28.5q-63.5 42.5 -71.5 116.5l92 27q0 -47 20.5 -83t55 -55.5t75.5 -19.5q66 0 108 40t42 100q0 40 -20 68.5t-50 46.5t-80 41q-55 27 -87.5 47t-55 53t-22.5 81q0 54 29.5 97.5t84 68.5t125.5 25q80 0 141 -39t71 -104l-89 -28q-2 39 -21.5 71.5t-50 52t-65.5 19.5
q-62 0 -101.5 -35.5t-39.5 -87.5q0 -36 19.5 -62t49 -43t79.5 -40q58 -27 92.5 -48.5t59 -56.5t24.5 -85q0 -61 -33 -108.5t-91.5 -74.5t-133.5 -27q-93 0 -156.5 42.5zM324 896h82l70 -162h-14l-105 111l-141 -111h-14z" />
    <glyph glyph-name="scircumflex" unicode="&#x15d;" horiz-adv-x="437" 
d="M66.5 17.5q-52.5 31.5 -68.5 80.5l78 41q5 -56 38 -90.5t85 -34.5q48 0 79.5 29.5t31.5 75.5q0 30 -15.5 50t-38.5 32t-63 27q-45 18 -72 32.5t-46 40.5t-19 67q0 67 53 107.5t133 40.5q67 0 114 -26t61 -70l-71 -39q-8 48 -39 77.5t-75 29.5q-46 0 -74 -26.5t-28 -66.5
q0 -37 27.5 -56.5t84.5 -40.5q48 -18 76 -33t48 -42.5t20 -70.5q0 -49 -26.5 -87t-71 -58.5t-98.5 -20.5q-71 0 -123.5 31.5zM247 729h82l70 -162h-14l-105 111l-141 -111h-14z" />
    <glyph glyph-name="Scedilla" unicode="&#x15e;" horiz-adv-x="530" 
d="M117 -207l2 14q10 -1 28 -1q34 2 55 18t21 41q0 38 -52 48l50 73q-89 3 -148.5 45.5t-67.5 113.5l92 27q0 -47 20.5 -83t55 -55.5t75.5 -19.5q66 0 108 40t42 100q0 40 -20 68.5t-50 46.5t-80 41q-55 27 -87.5 47t-55 53t-22.5 81q0 54 29.5 97.5t84 68.5t125.5 25
q80 0 141 -39t71 -104l-89 -28q-2 39 -21.5 71.5t-50 52t-65.5 19.5q-62 0 -101.5 -35.5t-39.5 -87.5q0 -36 19.5 -62t49 -43t79.5 -40q58 -27 92.5 -48.5t59 -56.5t24.5 -85q0 -59 -31.5 -106t-88.5 -74.5t-129 -29.5l-20 -41q27 -5 43 -21.5t16 -45.5q0 -42 -33 -66
t-85 -24q-19 0 -46 5z" />
    <glyph glyph-name="scedilla" unicode="&#x15f;" horiz-adv-x="437" 
d="M181 -14l-20 -41q27 -5 43 -21.5t16 -45.5q0 -42 -33 -66t-85 -24q-19 0 -46 5l2 14q10 -1 28 -1q34 2 55 18t21 41q0 38 -52 48l51 74q-61 7 -105 37.5t-58 73.5l78 41q5 -56 38 -90.5t85 -34.5q48 0 79.5 29.5t31.5 75.5q0 30 -15.5 50t-38.5 32t-63 27
q-45 18 -72 32.5t-46 40.5t-19 67q0 67 53 107.5t133 40.5q67 0 114 -26t61 -70l-71 -39q-8 48 -39 77.5t-75 29.5q-46 0 -74 -26.5t-28 -66.5q0 -37 27.5 -56.5t84.5 -40.5q48 -18 76 -33t48 -42.5t20 -70.5q0 -49 -26.5 -87t-71 -58.5t-98.5 -20.5h-9z" />
    <glyph glyph-name="Scaron" unicode="&#x160;" horiz-adv-x="530" 
d="M76.5 28.5q-63.5 42.5 -71.5 116.5l92 27q0 -47 20.5 -83t55 -55.5t75.5 -19.5q66 0 108 40t42 100q0 40 -20 68.5t-50 46.5t-80 41q-55 27 -87.5 47t-55 53t-22.5 81q0 54 29.5 97.5t84 68.5t125.5 25q80 0 141 -39t71 -104l-89 -28q-2 39 -21.5 71.5t-50 52t-65.5 19.5
q-62 0 -101.5 -35.5t-39.5 -87.5q0 -36 19.5 -62t49 -43t79.5 -40q58 -27 92.5 -48.5t59 -56.5t24.5 -85q0 -61 -33 -108.5t-91.5 -74.5t-133.5 -27q-93 0 -156.5 42.5zM237 895l105 -111l141 111h14l-122 -162h-82l-70 162h14z" />
    <glyph glyph-name="scaron" unicode="&#x161;" horiz-adv-x="437" 
d="M66.5 17.5q-52.5 31.5 -68.5 80.5l78 41q5 -56 38 -90.5t85 -34.5q48 0 79.5 29.5t31.5 75.5q0 30 -15.5 50t-38.5 32t-63 27q-45 18 -72 32.5t-46 40.5t-19 67q0 67 53 107.5t133 40.5q67 0 114 -26t61 -70l-71 -39q-8 48 -39 77.5t-75 29.5q-46 0 -74 -26.5t-28 -66.5
q0 -37 27.5 -56.5t84.5 -40.5q48 -18 76 -33t48 -42.5t20 -70.5q0 -49 -26.5 -87t-71 -58.5t-98.5 -20.5q-71 0 -123.5 31.5zM160 728l105 -111l141 111h14l-122 -162h-82l-70 162h14z" />
    <glyph glyph-name="uni0162" unicode="&#x162;" horiz-adv-x="633" 
d="M216.5 32q23.5 16 29.5 57l87 551h-74q-76 0 -119.5 -35t-75.5 -116h-14l55 179h554l-3 -179h-14q-5 81 -37.5 116t-108.5 35h-72l-88 -551q-2 -14 -2 -19q0 -29 18.5 -41.5t61.5 -14.5l-2 -14h-129l-27 -55q27 -5 43 -21.5t16 -45.5q0 -42 -33 -66t-85 -24q-19 0 -46 5
l2 14q10 -1 28 -1q34 2 55 18t21 41q0 38 -52 48l60 87h-123l2 14q49 2 72.5 18z" />
    <glyph glyph-name="uni0163" unicode="&#x163;" horiz-adv-x="323" 
d="M135 100q0 -32 16.5 -51t48.5 -19q23 0 37 7.5t33 22.5l6 -5q-17 -27 -48 -48.5t-75 -21.5h-10l-20 -40q27 -5 43 -21.5t16 -45.5q0 -42 -33 -66t-85 -24q-19 0 -46 5l2 14q10 -1 28 -1q34 2 55 18t21 41q0 38 -52 48l52 75q-35 8 -54 35t-19 68q0 20 2 30l56 352h-54
l2 14l143 125h14l-17 -111h148l-4 -28h-149l-55 -350q-2 -16 -2 -23z" />
    <glyph glyph-name="Tcaron" unicode="&#x164;" horiz-adv-x="633" 
d="M216.5 32q23.5 16 29.5 57l87 551h-74q-76 0 -119.5 -35t-75.5 -116h-14l55 179h554l-3 -179h-14q-5 81 -37.5 116t-108.5 35h-72l-88 -551q-2 -14 -2 -19q0 -29 18.5 -41.5t61.5 -14.5l-2 -14h-270l2 14q49 2 72.5 18zM293 895l105 -111l141 111h14l-122 -162h-82
l-70 162h14z" />
    <glyph glyph-name="tcaron" unicode="&#x165;" horiz-adv-x="323" 
d="M135 100q0 -32 16.5 -51t48.5 -19q23 0 37 7.5t33 22.5l6 -5q-17 -27 -48 -48.5t-75 -21.5q-48 0 -75 28t-27 78q0 19 2 30l56 352h-54l2 14l143 125h14l-17 -111h148l-4 -28h-149l-55 -350q-2 -16 -2 -23zM322 764h84l-135 -201h-14z" />
    <glyph glyph-name="Tbar" unicode="&#x166;" horiz-adv-x="633" 
d="M216.5 32q23.5 16 29.5 57l36 230h-112l4 28h113l46 293h-74q-76 0 -119.5 -35t-75.5 -116h-14l55 179h554l-3 -179h-14q-5 81 -37.5 116t-108.5 35h-72l-47 -293h112l-5 -28h-111l-37 -230q-2 -14 -2 -19q0 -29 18.5 -41.5t61.5 -14.5l-2 -14h-270l2 14q49 2 72.5 18z
" />
    <glyph glyph-name="tbar" unicode="&#x167;" horiz-adv-x="323" 
d="M135 100q0 -32 16.5 -51t48.5 -19q23 0 37 7.5t33 22.5l6 -5q-17 -27 -48 -48.5t-75 -21.5q-48 0 -75 28t-27 78q0 19 2 30l25 159h-94l4 28h95l26 165h-54l2 14l143 125h14l-17 -111h148l-4 -28h-149l-26 -165h125l-5 -28h-124l-25 -157q-2 -16 -2 -23z" />
    <glyph glyph-name="Utilde" unicode="&#x168;" horiz-adv-x="724" 
d="M772 668l-3 -14q-49 -3 -72 -18t-29 -56l-55 -342q-12 -77 -50 -134t-95 -87.5t-125 -30.5q-116 0 -178.5 53t-62.5 148q0 15 4 51l55 342q1 7 1 18q0 30 -17.5 42t-61.5 14l2 14h270l-3 -14q-49 -3 -71.5 -18t-29.5 -56l-54 -342q-4 -20 -4 -44q0 -77 46.5 -120.5
t130.5 -43.5t141.5 55.5t73.5 152.5l55 342q1 7 1 18q0 30 -18 42t-62 14l3 14h208zM343.5 826.5q27.5 28.5 63.5 28.5q17 0 32.5 -7t38.5 -21q21 -13 35 -19.5t27 -6.5q38 0 60 51h14q-12 -49 -40 -78t-64 -29q-17 0 -33 7t-37 21q-22 14 -35 20t-27 6q-38 0 -61 -52l-13 1
q12 50 39.5 78.5z" />
    <glyph glyph-name="utilde" unicode="&#x169;" horiz-adv-x="555" 
d="M99.5 18.5q-33.5 33.5 -33.5 87.5q0 19 2 29l44 266q4 22 4 35q0 34 -30 34q-12 0 -24 -7t-30 -25l-10 9q46 69 107 69q33 0 52 -17.5t19 -51.5q0 -17 -5 -50l-42 -254q-2 -16 -2 -22q0 -36 21 -57t58 -21q79 0 154 79l60 379h83l-64 -408q-1 -6 -1 -16q0 -18 10 -26
t31 -10l27 -1l-2 -14l-146 -41h-14l12 108q-43 -53 -91.5 -80.5t-99.5 -27.5q-56 0 -89.5 33.5zM221.5 659.5q27.5 28.5 63.5 28.5q17 0 32.5 -7t38.5 -21q21 -13 35 -19.5t27 -6.5q38 0 60 51h14q-12 -49 -40 -78t-64 -29q-17 0 -33 7t-37 21q-22 14 -35 20t-27 6
q-38 0 -61 -52l-13 1q12 50 39.5 78.5z" />
    <glyph glyph-name="Umacron" unicode="&#x16a;" horiz-adv-x="724" 
d="M772 668l-3 -14q-49 -3 -72 -18t-29 -56l-55 -342q-12 -77 -50 -134t-95 -87.5t-125 -30.5q-116 0 -178.5 53t-62.5 148q0 15 4 51l55 342q1 7 1 18q0 30 -17.5 42t-61.5 14l2 14h270l-3 -14q-49 -3 -71.5 -18t-29.5 -56l-54 -342q-4 -20 -4 -44q0 -77 46.5 -120.5
t130.5 -43.5t141.5 55.5t73.5 152.5l55 342q1 7 1 18q0 30 -18 42t-62 14l3 14h208zM329 788h256l-4 -33h-257z" />
    <glyph glyph-name="umacron" unicode="&#x16b;" horiz-adv-x="555" 
d="M99.5 18.5q-33.5 33.5 -33.5 87.5q0 19 2 29l44 266q4 22 4 35q0 34 -30 34q-12 0 -24 -7t-30 -25l-10 9q46 69 107 69q33 0 52 -17.5t19 -51.5q0 -17 -5 -50l-42 -254q-2 -16 -2 -22q0 -36 21 -57t58 -21q79 0 154 79l60 379h83l-64 -408q-1 -6 -1 -16q0 -18 10 -26
t31 -10l27 -1l-2 -14l-146 -41h-14l12 108q-43 -53 -91.5 -80.5t-99.5 -27.5q-56 0 -89.5 33.5zM207 621h256l-4 -33h-257z" />
    <glyph glyph-name="Ubreve" unicode="&#x16c;" horiz-adv-x="724" 
d="M772 668l-3 -14q-49 -3 -72 -18t-29 -56l-55 -342q-12 -77 -50 -134t-95 -87.5t-125 -30.5q-116 0 -178.5 53t-62.5 148q0 15 4 51l55 342q1 7 1 18q0 30 -17.5 42t-61.5 14l2 14h270l-3 -14q-49 -3 -71.5 -18t-29.5 -56l-54 -342q-4 -20 -4 -44q0 -77 46.5 -120.5
t130.5 -43.5t141.5 55.5t73.5 152.5l55 342q1 7 1 18q0 30 -18 42t-62 14l3 14h208zM367 895q-4 -54 23 -77t71 -23q45 0 80 23t48 77h14q-26 -163 -151 -163q-103 0 -103 113q0 26 4 50h14z" />
    <glyph glyph-name="ubreve" unicode="&#x16d;" horiz-adv-x="555" 
d="M99.5 18.5q-33.5 33.5 -33.5 87.5q0 19 2 29l44 266q4 22 4 35q0 34 -30 34q-12 0 -24 -7t-30 -25l-10 9q46 69 107 69q33 0 52 -17.5t19 -51.5q0 -17 -5 -50l-42 -254q-2 -16 -2 -22q0 -36 21 -57t58 -21q79 0 154 79l60 379h83l-64 -408q-1 -6 -1 -16q0 -18 10 -26
t31 -10l27 -1l-2 -14l-146 -41h-14l12 108q-43 -53 -91.5 -80.5t-99.5 -27.5q-56 0 -89.5 33.5zM245 728q-4 -54 23 -77t71 -23q45 0 80 23t48 77h14q-26 -163 -151 -163q-103 0 -103 113q0 26 4 50h14z" />
    <glyph glyph-name="Uring" unicode="&#x16e;" horiz-adv-x="724" 
d="M772 668l-3 -14q-49 -3 -72 -18t-29 -56l-55 -342q-12 -77 -50 -134t-95 -87.5t-125 -30.5q-116 0 -178.5 53t-62.5 148q0 15 4 51l55 342q1 7 1 18q0 30 -17.5 42t-61.5 14l2 14h270l-3 -14q-49 -3 -71.5 -18t-29.5 -56l-54 -342q-4 -20 -4 -44q0 -77 46.5 -120.5
t130.5 -43.5t141.5 55.5t73.5 152.5l55 342q1 7 1 18q0 30 -18 42t-62 14l3 14h208zM396.5 878q31.5 29 76.5 29q40 0 62.5 -23t22.5 -59q0 -43 -31.5 -72t-76.5 -29q-39 0 -62 23t-23 59q0 43 31.5 72zM415 769.5q15 -16.5 40 -16.5q28 0 48.5 20t20.5 50q0 24 -14.5 39.5
t-40.5 15.5q-28 0 -48.5 -19.5t-20.5 -48.5q0 -24 15 -40.5z" />
    <glyph glyph-name="uring" unicode="&#x16f;" horiz-adv-x="555" 
d="M99.5 18.5q-33.5 33.5 -33.5 87.5q0 19 2 29l44 266q4 22 4 35q0 34 -30 34q-12 0 -24 -7t-30 -25l-10 9q46 69 107 69q33 0 52 -17.5t19 -51.5q0 -17 -5 -50l-42 -254q-2 -16 -2 -22q0 -36 21 -57t58 -21q79 0 154 79l60 379h83l-64 -408q-1 -6 -1 -16q0 -18 10 -26
t31 -10l27 -1l-2 -14l-146 -41h-14l12 108q-43 -53 -91.5 -80.5t-99.5 -27.5q-56 0 -89.5 33.5zM274.5 711q31.5 29 76.5 29q40 0 62.5 -23t22.5 -59q0 -43 -31.5 -72t-76.5 -29q-39 0 -62 23t-23 59q0 43 31.5 72zM293 602.5q15 -16.5 40 -16.5q28 0 48.5 20t20.5 50
q0 24 -14.5 39.5t-40.5 15.5q-28 0 -48.5 -19.5t-20.5 -48.5q0 -24 15 -40.5z" />
    <glyph glyph-name="Uhungarumlaut" unicode="&#x170;" horiz-adv-x="724" 
d="M772 668l-3 -14q-49 -3 -72 -18t-29 -56l-55 -342q-12 -77 -50 -134t-95 -87.5t-125 -30.5q-116 0 -178.5 53t-62.5 148q0 15 4 51l55 342q1 7 1 18q0 30 -17.5 42t-61.5 14l2 14h270l-3 -14q-49 -3 -71.5 -18t-29.5 -56l-54 -342q-4 -20 -4 -44q0 -77 46.5 -120.5
t130.5 -43.5t141.5 55.5t73.5 152.5l55 342q1 7 1 18q0 30 -18 42t-62 14l3 14h208zM477 895h95l-172 -162h-14zM594 895h95l-172 -162h-14z" />
    <glyph glyph-name="uhungarumlaut" unicode="&#x171;" horiz-adv-x="555" 
d="M99.5 18.5q-33.5 33.5 -33.5 87.5q0 19 2 29l44 266q4 22 4 35q0 34 -30 34q-12 0 -24 -7t-30 -25l-10 9q46 69 107 69q33 0 52 -17.5t19 -51.5q0 -17 -5 -50l-42 -254q-2 -16 -2 -22q0 -36 21 -57t58 -21q79 0 154 79l60 379h83l-64 -408q-1 -6 -1 -16q0 -18 10 -26
t31 -10l27 -1l-2 -14l-146 -41h-14l12 108q-43 -53 -91.5 -80.5t-99.5 -27.5q-56 0 -89.5 33.5zM355 728h95l-172 -162h-14zM472 728h95l-172 -162h-14z" />
    <glyph glyph-name="Uogonek" unicode="&#x172;" horiz-adv-x="724" 
d="M772 668l-3 -14q-49 -3 -72 -18t-29 -56l-55 -342q-16 -104 -77.5 -169.5t-149.5 -79.5q-36 -28 -51 -49.5t-20 -47.5q-1 -5 -1 -13q0 -24 14 -37.5t40 -13.5q20 0 47 9l3 -10q-47 -37 -104 -37q-33 0 -54 17.5t-21 48.5q0 38 29.5 70t82.5 60h-8q-116 0 -178.5 53
t-62.5 148q0 15 4 51l55 342q1 7 1 18q0 30 -17.5 42t-61.5 14l2 14h270l-3 -14q-49 -3 -71.5 -18t-29.5 -56l-54 -342q-4 -20 -4 -44q0 -77 46.5 -120.5t130.5 -43.5t141.5 55.5t73.5 152.5l55 342q1 7 1 18q0 30 -18 42t-62 14l3 14h208z" />
    <glyph glyph-name="uogonek" unicode="&#x173;" horiz-adv-x="555" 
d="M99.5 18.5q-33.5 33.5 -33.5 87.5q0 19 2 29l44 266q4 22 4 35q0 34 -30 34q-12 0 -24 -7t-30 -25l-10 9q46 69 107 69q33 0 52 -17.5t19 -51.5q0 -17 -5 -50l-42 -254q-2 -16 -2 -22q0 -36 21 -57t58 -21q79 0 154 79l60 379h83l-64 -408q-1 -6 -1 -16q0 -18 10 -26
t31 -10l27 -1l-2 -11l2 -3q-56 -41 -80.5 -72t-29.5 -64q-1 -5 -1 -14q0 -23 13.5 -36.5t39.5 -13.5q20 0 47 9l4 -10q-47 -37 -104 -37q-32 0 -53.5 17.5t-21.5 47.5q0 9 1 14q14 83 154 151l-117 -33h-14l12 108q-43 -53 -91.5 -80.5t-99.5 -27.5q-56 0 -89.5 33.5z" />
    <glyph glyph-name="Wcircumflex" unicode="&#x174;" horiz-adv-x="1008" 
d="M492 632q-16 19 -55 22l3 14h224l-3 -14q-33 -3 -46.5 -13.5t-13.5 -32.5q0 -14 5 -37l91 -451l233 451q19 36 19 51t-13.5 23t-44.5 9l3 14h173l-3 -14q-38 -6 -58 -21.5t-44 -61.5l-307 -586h-15l-101 480l-251 -480h-14l-123 586q-6 28 -13 44t-22.5 26.5t-44.5 12.5
l3 14h224l-3 -14q-34 -3 -47 -13t-13 -32q0 -13 5 -38l90 -451l201 387l-14 64q-9 42 -25 61zM548 896h82l70 -162h-14l-105 111l-141 -111h-14z" />
    <glyph glyph-name="wcircumflex" unicode="&#x175;" horiz-adv-x="752" 
d="M348 474q-14 12 -46 13l2 14l132 11l104 -410l150 267q10 16 10 34q0 20 -13.5 39t-34.5 34l49 43q47 -27 47 -76q0 -33 -20 -66l-229 -392h-13l-87 334l-195 -334h-13l-117 449q-7 28 -21 40t-46 13l2 14l132 11l103 -410l145 254l-20 78q-7 28 -21 40zM399 729h82
l70 -162h-14l-105 111l-141 -111h-14z" />
    <glyph glyph-name="Ycircumflex" unicode="&#x176;" horiz-adv-x="639" 
d="M218.5 32q22.5 15 28.5 57l35 221l-124 261q-22 45 -40.5 62t-49.5 21l2 14h246l-3 -14q-36 -2 -51 -9.5t-15 -24.5t15 -49l106 -225l177 225q30 38 30 55q0 13 -16.5 19.5t-50.5 8.5l3 14h190l-3 -14q-35 -4 -59.5 -20.5t-60.5 -62.5l-207 -261l-34 -221q-2 -16 -2 -21
q0 -29 18 -40.5t59 -13.5l-2 -14h-264l2 14q48 3 70.5 18zM388 896h82l70 -162h-14l-105 111l-141 -111h-14z" />
    <glyph glyph-name="ycircumflex" unicode="&#x177;" horiz-adv-x="456" 
d="M35 -142q41 0 70.5 28t64.5 90l16 28l-112 430q-8 28 -22 40t-45 13l2 14l135 11l102 -413l150 270q9 14 9 33q0 21 -13.5 40t-35.5 34l50 43q46 -25 46 -75q0 -33 -20 -67l-234 -403q-38 -66 -63.5 -102t-62.5 -60t-87 -24q-27 0 -56 12l41 81q26 -23 65 -23zM254 729
h82l70 -162h-14l-105 111l-141 -111h-14z" />
    <glyph glyph-name="Ydieresis" unicode="&#x178;" horiz-adv-x="639" 
d="M218.5 32q22.5 15 28.5 57l35 221l-124 261q-22 45 -40.5 62t-49.5 21l2 14h246l-3 -14q-36 -2 -51 -9.5t-15 -24.5t15 -49l106 -225l177 225q30 38 30 55q0 13 -16.5 19.5t-50.5 8.5l3 14h190l-3 -14q-35 -4 -59.5 -20.5t-60.5 -62.5l-207 -261l-34 -221q-2 -16 -2 -21
q0 -29 18 -40.5t59 -13.5l-2 -14h-264l2 14q48 3 70.5 18zM283.5 856.5q19.5 18.5 47.5 18.5q24 0 40.5 -15.5t16.5 -39.5q0 -25 -20 -44t-47 -19q-25 0 -41 16t-16 38q0 27 19.5 45.5zM459.5 856.5q19.5 18.5 46.5 18.5q25 0 41 -15.5t16 -39.5q0 -26 -19.5 -44.5
t-46.5 -18.5q-25 0 -41 16t-16 38q0 27 19.5 45.5z" />
    <glyph glyph-name="Zacute" unicode="&#x179;" horiz-adv-x="551" 
d="M440.5 21q-41.5 -34 -107.5 -34q-25 0 -93 8q-82 10 -134 10q-60 0 -122 -13l-7 10l515 586h-259q-54 0 -93 -26.5t-70 -100.5h-14l61 207h477v-13l-522 -596q56 24 120 24q35 0 93 -8q46 -7 74 -7q51 0 87 29.5t63 109.5l13 -3l-15 -56q-25 -93 -66.5 -127zM417 895h95
l-172 -162h-14z" />
    <glyph glyph-name="zacute" unicode="&#x17a;" horiz-adv-x="451" 
d="M-20 9l384 426h-195q-39 0 -60.5 -20.5t-41.5 -77.5h-13l35 164h364l2 -11l-389 -430q40 22 89 22q30 0 80 -10q40 -9 62 -9q35 0 60 22t43 80l13 -4l-10 -37q-18 -73 -46 -100t-71 -27q-24 0 -73 9q-66 12 -111 12q-59 0 -115 -19zM336 728h95l-172 -162h-14z" />
    <glyph glyph-name="Zdotaccent" unicode="&#x17b;" horiz-adv-x="551" 
d="M440.5 21q-41.5 -34 -107.5 -34q-25 0 -93 8q-82 10 -134 10q-60 0 -122 -13l-7 10l515 586h-259q-54 0 -93 -26.5t-70 -100.5h-14l61 207h477v-13l-522 -596q56 24 120 24q35 0 93 -8q46 -7 74 -7q51 0 87 29.5t63 109.5l13 -3l-15 -56q-25 -93 -66.5 -127zM322 860
q20 19 48 19q25 0 41.5 -16t16.5 -40q0 -26 -20 -45t-48 -19q-25 0 -41.5 16t-16.5 39q0 27 20 46z" />
    <glyph glyph-name="zdotaccent" unicode="&#x17c;" horiz-adv-x="451" 
d="M-20 9l384 426h-195q-39 0 -60.5 -20.5t-41.5 -77.5h-13l35 164h364l2 -11l-389 -430q40 22 89 22q30 0 80 -10q40 -9 62 -9q35 0 60 22t43 80l13 -4l-10 -37q-18 -73 -46 -100t-71 -27q-24 0 -73 9q-66 12 -111 12q-59 0 -115 -19zM241 693q20 19 48 19q25 0 41.5 -16
t16.5 -40q0 -26 -20 -45t-48 -19q-25 0 -41.5 16t-16.5 39q0 27 20 46z" />
    <glyph glyph-name="Zcaron" unicode="&#x17d;" horiz-adv-x="551" 
d="M440.5 21q-41.5 -34 -107.5 -34q-25 0 -93 8q-82 10 -134 10q-60 0 -122 -13l-7 10l515 586h-259q-54 0 -93 -26.5t-70 -100.5h-14l61 207h477v-13l-522 -596q56 24 120 24q35 0 93 -8q46 -7 74 -7q51 0 87 29.5t63 109.5l13 -3l-15 -56q-25 -93 -66.5 -127zM254 895
l105 -111l141 111h14l-122 -162h-82l-70 162h14z" />
    <glyph glyph-name="zcaron" unicode="&#x17e;" horiz-adv-x="451" 
d="M-20 9l384 426h-195q-39 0 -60.5 -20.5t-41.5 -77.5h-13l35 164h364l2 -11l-389 -430q40 22 89 22q30 0 80 -10q40 -9 62 -9q35 0 60 22t43 80l13 -4l-10 -37q-18 -73 -46 -100t-71 -27q-24 0 -73 9q-66 12 -111 12q-59 0 -115 -19zM173 728l105 -111l141 111h14
l-122 -162h-82l-70 162h14z" />
    <glyph glyph-name="longs" unicode="&#x17f;" horiz-adv-x="306" 
d="M114 473h-84l4 28h85l8 50q13 80 65.5 125t132.5 45q95 0 118 -52l-72 -48q-3 32 -18 52t-43 20q-39 0 -64 -35t-34 -94l-89 -564h-83z" />
    <glyph glyph-name="florin" unicode="&#x192;" horiz-adv-x="417" 
d="M-23 6q-34 22 -40 59l75 41q0 -39 14.5 -66.5t41.5 -27.5q36 0 62 37t36 98l33 211h-122l5 32h122l28 173q14 91 68 133.5t129 42.5q45 0 77.5 -22.5t38.5 -58.5l-74 -40q0 39 -14.5 66t-42.5 27q-37 0 -62.5 -37t-34.5 -97l-30 -187h123l-5 -32h-123l-31 -198
q-14 -89 -67.5 -132.5t-129.5 -43.5q-43 0 -77 22z" />
    <glyph glyph-name="Aringacute" unicode="&#x1fa;" horiz-adv-x="735" 
d="M634 34.5q19 -17.5 59 -20.5l-3 -14h-257l3 14q39 2 55.5 12t16.5 33q0 12 -7 38l-33 123h-286l-72 -123q-20 -35 -20 -52q0 -15 15 -22t47 -9l-3 -14h-185l3 14q40 4 63 21t50 62l344 586h16l163 -586q12 -45 31 -62.5zM461 248l-83 310l-180 -310h263zM384.5 875
q28.5 28 70.5 32l78 139h95l-149 -140q33 -4 51.5 -26.5t18.5 -54.5q0 -43 -31.5 -72t-76.5 -29q-39 0 -62 23t-23 59q0 41 28.5 69zM406 769.5q15 -16.5 40 -16.5q28 0 48.5 20t20.5 50q0 24 -14.5 39.5t-40.5 15.5q-28 0 -48.5 -19.5t-20.5 -48.5q0 -24 15 -40.5z" />
    <glyph glyph-name="aringacute" unicode="&#x1fb;" horiz-adv-x="501" 
d="M328 108q-31 -59 -77 -91t-103 -32q-55 0 -87.5 32.5t-32.5 88.5q0 81 63.5 120.5t173.5 60.5l94 17l5 34q3 20 3 38q0 52 -25 82t-71 30q-51 0 -82.5 -33.5t-31.5 -80.5q0 -22 5 -37l-82 -27q-6 23 -6 43q0 46 28.5 83.5t76.5 58.5t105 21q78 0 122 -38.5t44 -106.5
q0 -17 -3 -35l-38 -243q-1 -5 -1 -13q0 -20 11 -28.5t33 -10.5l24 -1l-2 -14l-151 -41h-14zM138 64.5q21 -22.5 57 -22.5q40 0 76.5 27.5t62.5 73.5l20 132l-91 -17q-59 -12 -102.5 -43.5t-43.5 -91.5q0 -36 21 -58.5zM235 708q28 28 70 32l78 139h95l-149 -140
q34 -4 52.5 -26t18.5 -55q0 -43 -31.5 -72t-76.5 -29q-39 0 -62 23t-23 59q0 41 28 69zM257 602.5q15 -16.5 40 -16.5q28 0 48.5 20t20.5 50q0 24 -14.5 39.5t-40.5 15.5q-28 0 -48.5 -19.5t-20.5 -48.5q0 -24 15 -40.5z" />
    <glyph glyph-name="AEacute" unicode="&#x1fc;" horiz-adv-x="981" 
d="M358 14q49 3 72 18t29 57l24 148h-239l-107 -132q-28 -36 -28 -55q0 -27 57 -36l-2 -14h-200l3 14q39 8 71.5 30t64.5 61l381 471q19 23 19 40q0 29 -73 38l3 14h543l-3 -179h-14q-5 75 -39 113t-100 38h-183l-45 -283h137q45 0 64.5 22t29.5 73h14l-35 -219h-14
q2 24 2 34q0 32 -14 47t-51 15h-138l-38 -240q-1 -7 -1 -18q0 -22 10.5 -32.5t32.5 -10.5h144q66 0 112 38t75 114h14l-54 -180h-527zM487 265l54 339l-274 -339h220zM714 895h95l-172 -162h-14z" />
    <glyph glyph-name="aeacute" unicode="&#x1fd;" horiz-adv-x="816" 
d="M64 17.5q-36 32.5 -36 88.5q0 81 62.5 121t173.5 60l95 17l5 34q3 20 3 36q0 52 -24.5 83t-71.5 31q-51 0 -83 -34t-32 -81q0 -21 5 -36l-82 -27q-6 21 -6 42q0 47 29 84.5t77 58.5t104 21q55 0 94.5 -21t57.5 -59q37 38 86 59t106 21q76 0 117.5 -30.5t41.5 -77.5
t-36 -77.5t-93.5 -48.5t-149.5 -37l-70 -15q1 -80 39.5 -127t105.5 -47q49 0 93.5 21.5t75.5 64.5l11 -6q-29 -72 -86 -111t-132 -39q-68 0 -115.5 35t-68.5 97q-29 -63 -85 -98t-117 -35q-58 0 -94 32.5zM137.5 64q21.5 -22 59.5 -22q43 0 84 28t71 79q-5 30 -5 58
q0 35 6 68l-90 -17q-58 -12 -102.5 -44t-44.5 -91q0 -37 21.5 -59zM506 273q88 21 140 51.5t52 85.5q0 31 -24 54.5t-64 23.5q-47 0 -84.5 -31.5t-60.5 -84.5t-27 -114zM531 728h95l-172 -162h-14z" />
    <glyph glyph-name="Oslashacute" unicode="&#x1fe;" horiz-adv-x="758" 
d="M215 10l-59 -99l-26 12l60 100q-66 37 -101 105t-35 156q0 109 52 200.5t141 144.5t197 53q70 0 128 -25l59 98l25 -11l-59 -99q64 -37 99 -104.5t35 -155.5q0 -109 -51.5 -200.5t-140.5 -145t-197 -53.5q-71 0 -127 24zM171 166q18 -54 51 -91l323 537q-48 42 -116 42
q-80 0 -143 -53t-98 -138t-35 -178q0 -65 18 -119zM356 14q80 0 143 52.5t98 138t35 178.5q0 64 -17.5 118t-49.5 91l-323 -537q50 -41 114 -41zM517 895h95l-172 -162h-14z" />
    <glyph glyph-name="oslashacute" unicode="&#x1ff;" horiz-adv-x="544" 
d="M147 2l-42 -74l-22 10l42 75q-45 26 -69 77t-24 120q0 84 37 154t101.5 111t143.5 41q48 0 84 -16l41 74l23 -10l-42 -75q44 -27 68 -77.5t24 -119.5q0 -83 -36 -153t-100.5 -111.5t-145.5 -41.5q-48 0 -83 16zM157 70l214 383q-30 35 -75 35q-49 0 -88.5 -39
t-61.5 -101.5t-22 -130.5q0 -91 33 -147zM250 14q51 0 89.5 39.5t59.5 102.5t21 130q0 91 -33 145l-214 -382q32 -35 77 -35zM383 728h95l-172 -162h-14z" />
    <glyph glyph-name="uni0218" unicode="&#x218;" horiz-adv-x="530" 
d="M76.5 28.5q-63.5 42.5 -71.5 116.5l92 27q0 -47 20.5 -83t55 -55.5t75.5 -19.5q66 0 108 40t42 100q0 40 -20 68.5t-50 46.5t-80 41q-55 27 -87.5 47t-55 53t-22.5 81q0 54 29.5 97.5t84 68.5t125.5 25q80 0 141 -39t71 -104l-89 -28q-2 39 -21.5 71.5t-50 52t-65.5 19.5
q-62 0 -101.5 -35.5t-39.5 -87.5q0 -36 19.5 -62t49 -43t79.5 -40q58 -27 92.5 -48.5t59 -56.5t24.5 -85q0 -61 -33 -108.5t-91.5 -74.5t-133.5 -27q-93 0 -156.5 42.5zM191.5 -147q11.5 36 11.5 69q0 16 -3 30l75 7q6 -97 -105 -174l-9 7q19 25 30.5 61z" />
    <glyph glyph-name="uni0219" unicode="&#x219;" horiz-adv-x="437" 
d="M66.5 17.5q-52.5 31.5 -68.5 80.5l78 41q5 -56 38 -90.5t85 -34.5q48 0 79.5 29.5t31.5 75.5q0 30 -15.5 50t-38.5 32t-63 27q-45 18 -72 32.5t-46 40.5t-19 67q0 67 53 107.5t133 40.5q67 0 114 -26t61 -70l-71 -39q-8 48 -39 77.5t-75 29.5q-46 0 -74 -26.5t-28 -66.5
q0 -37 27.5 -56.5t84.5 -40.5q48 -18 76 -33t48 -42.5t20 -70.5q0 -49 -26.5 -87t-71 -58.5t-98.5 -20.5q-71 0 -123.5 31.5zM129.5 -147q11.5 36 11.5 69q0 16 -3 30l75 7q6 -97 -105 -174l-9 7q19 25 30.5 61z" />
    <glyph glyph-name="uni021A" unicode="&#x21a;" horiz-adv-x="633" 
d="M216.5 32q23.5 16 29.5 57l87 551h-74q-76 0 -119.5 -35t-75.5 -116h-14l55 179h554l-3 -179h-14q-5 81 -37.5 116t-108.5 35h-72l-88 -551q-2 -14 -2 -19q0 -29 18.5 -41.5t61.5 -14.5l-2 -14h-270l2 14q49 2 72.5 18zM224.5 -147q11.5 36 11.5 69q0 16 -3 30l75 7
q6 -97 -105 -174l-9 7q19 25 30.5 61z" />
    <glyph glyph-name="uni021B" unicode="&#x21b;" horiz-adv-x="323" 
d="M135 100q0 -32 16.5 -51t48.5 -19q23 0 37 7.5t33 22.5l6 -5q-17 -27 -48 -48.5t-75 -21.5q-48 0 -75 28t-27 78q0 19 2 30l56 352h-54l2 14l143 125h14l-17 -111h148l-4 -28h-149l-55 -350q-2 -16 -2 -23zM91.5 -147q11.5 36 11.5 69q0 16 -3 30l75 7q6 -97 -105 -174
l-9 7q19 25 30.5 61z" />
    <glyph glyph-name="uni0237" unicode="&#x237;" horiz-adv-x="233" 
d="M5.5 -107.5q32.5 53.5 48.5 151.5l58 364q1 5 1 14q0 19 -11 28t-34 11h-23l2 14l151 41h14l-70 -441q-17 -115 -66.5 -181.5t-157.5 -105.5l-4 11q59 40 91.5 93.5z" />
    <glyph glyph-name="circumflex" unicode="&#x2c6;" horiz-adv-x="374" 
d="M360 567h-14l-105 111l-141 -111h-14l122 162h82z" />
    <glyph glyph-name="caron" unicode="&#x2c7;" horiz-adv-x="374" 
d="M126 728h14l105 -111l141 111h14l-122 -162h-82z" />
    <glyph glyph-name="breve" unicode="&#x2d8;" horiz-adv-x="350" 
d="M122 678q0 26 4 50h14q-4 -54 23 -77t71 -23q45 0 80 23t48 77h14q-26 -163 -151 -163q-103 0 -103 113z" />
    <glyph glyph-name="dotaccent" unicode="&#x2d9;" horiz-adv-x="226" 
d="M130.5 608q-16.5 16 -16.5 39q0 27 20 46t48 19q25 0 41.5 -16t16.5 -40q0 -26 -20 -45t-48 -19q-25 0 -41.5 16z" />
    <glyph glyph-name="ring" unicode="&#x2da;" horiz-adv-x="292" 
d="M136 580q-23 23 -23 59q0 43 31.5 72t76.5 29q40 0 62.5 -23t22.5 -59q0 -43 -31.5 -72t-76.5 -29q-39 0 -62 23zM163 602.5q15 -16.5 40 -16.5q28 0 48.5 20t20.5 50q0 24 -14.5 39.5t-40.5 15.5q-28 0 -48.5 -19.5t-20.5 -48.5q0 -24 15 -40.5z" />
    <glyph glyph-name="ogonek" unicode="&#x2db;" horiz-adv-x="284" 
d="M9.5 -194.5q-21.5 17.5 -21.5 47.5q0 9 1 14q15 89 182 164l3 -5q-56 -41 -80.5 -72t-29.5 -64q-1 -5 -1 -14q0 -23 13.5 -36.5t39.5 -13.5q20 0 47 9l4 -10q-47 -37 -104 -37q-32 0 -53.5 17.5z" />
    <glyph glyph-name="tilde" unicode="&#x2dc;" horiz-adv-x="394" 
d="M276 585q-16 7 -37 21q-22 14 -35 20t-27 6q-38 0 -61 -52l-13 1q12 50 39.5 78.5t63.5 28.5q17 0 32.5 -7t38.5 -21q21 -13 35 -19.5t27 -6.5q38 0 60 51h14q-12 -49 -40 -78t-64 -29q-17 0 -33 7z" />
    <glyph glyph-name="hungarumlaut" unicode="&#x2dd;" horiz-adv-x="377" 
d="M192 728h95l-172 -162h-14zM309 728h95l-172 -162h-14z" />
    <glyph glyph-name="pi" unicode="&#x3c0;" horiz-adv-x="539" 
d="M375.5 17q-23.5 23 -23.5 67q0 15 3 33l55 352h-216l-74 -469h-36l74 469h-100l5 32h488l-5 -32h-100l-56 -350q-2 -11 -2 -29q0 -35 16.5 -51t49.5 -15l-9 -31q-46 1 -69.5 24z" />
    <glyph glyph-name="Wgrave" unicode="&#x1e80;" horiz-adv-x="1008" 
d="M492 632q-16 19 -55 22l3 14h224l-3 -14q-33 -3 -46.5 -13.5t-13.5 -32.5q0 -14 5 -37l91 -451l233 451q19 36 19 51t-13.5 23t-44.5 9l3 14h173l-3 -14q-38 -6 -58 -21.5t-44 -61.5l-307 -586h-15l-101 480l-251 -480h-14l-123 586q-6 28 -13 44t-22.5 26.5t-44.5 12.5
l3 14h224l-3 -14q-34 -3 -47 -13t-13 -32q0 -13 5 -38l90 -451l201 387l-14 64q-9 42 -25 61zM515 895l66 -162h-14l-146 162h94z" />
    <glyph glyph-name="wgrave" unicode="&#x1e81;" horiz-adv-x="752" 
d="M348 474q-14 12 -46 13l2 14l132 11l104 -410l150 267q10 16 10 34q0 20 -13.5 39t-34.5 34l49 43q47 -27 47 -76q0 -33 -20 -66l-229 -392h-13l-87 334l-195 -334h-13l-117 449q-7 28 -21 40t-46 13l2 14l132 11l103 -410l145 254l-20 78q-7 28 -21 40zM366 728l66 -162
h-14l-146 162h94z" />
    <glyph glyph-name="Wacute" unicode="&#x1e82;" horiz-adv-x="1008" 
d="M492 632q-16 19 -55 22l3 14h224l-3 -14q-33 -3 -46.5 -13.5t-13.5 -32.5q0 -14 5 -37l91 -451l233 451q19 36 19 51t-13.5 23t-44.5 9l3 14h173l-3 -14q-38 -6 -58 -21.5t-44 -61.5l-307 -586h-15l-101 480l-251 -480h-14l-123 586q-6 28 -13 44t-22.5 26.5t-44.5 12.5
l3 14h224l-3 -14q-34 -3 -47 -13t-13 -32q0 -13 5 -38l90 -451l201 387l-14 64q-9 42 -25 61zM624 895h95l-172 -162h-14z" />
    <glyph glyph-name="wacute" unicode="&#x1e83;" horiz-adv-x="752" 
d="M348 474q-14 12 -46 13l2 14l132 11l104 -410l150 267q10 16 10 34q0 20 -13.5 39t-34.5 34l49 43q47 -27 47 -76q0 -33 -20 -66l-229 -392h-13l-87 334l-195 -334h-13l-117 449q-7 28 -21 40t-46 13l2 14l132 11l103 -410l145 254l-20 78q-7 28 -21 40zM475 728h95
l-172 -162h-14z" />
    <glyph glyph-name="Wdieresis" unicode="&#x1e84;" horiz-adv-x="1008" 
d="M492 632q-16 19 -55 22l3 14h224l-3 -14q-33 -3 -46.5 -13.5t-13.5 -32.5q0 -14 5 -37l91 -451l233 451q19 36 19 51t-13.5 23t-44.5 9l3 14h173l-3 -14q-38 -6 -58 -21.5t-44 -61.5l-307 -586h-15l-101 480l-251 -480h-14l-123 586q-6 28 -13 44t-22.5 26.5t-44.5 12.5
l3 14h224l-3 -14q-34 -3 -47 -13t-13 -32q0 -13 5 -38l90 -451l201 387l-14 64q-9 42 -25 61zM443 856.5q20 18.5 47 18.5q25 0 41 -15.5t16 -39.5q0 -26 -19.5 -44.5t-47.5 -18.5q-24 0 -40.5 16t-16.5 38q0 27 20 45.5zM619 856.5q20 18.5 47 18.5q24 0 40.5 -15.5
t16.5 -39.5q0 -25 -20 -44t-47 -19q-24 0 -40.5 16t-16.5 38q0 27 20 45.5z" />
    <glyph glyph-name="wdieresis" unicode="&#x1e85;" horiz-adv-x="752" 
d="M348 474q-14 12 -46 13l2 14l132 11l104 -410l150 267q10 16 10 34q0 20 -13.5 39t-34.5 34l49 43q47 -27 47 -76q0 -33 -20 -66l-229 -392h-13l-87 334l-195 -334h-13l-117 449q-7 28 -21 40t-46 13l2 14l132 11l103 -410l145 254l-20 78q-7 28 -21 40zM294.5 690
q19.5 19 47.5 19q24 0 40.5 -16t16.5 -39q0 -26 -20 -44.5t-47 -18.5q-25 0 -41 15.5t-16 38.5q0 26 19.5 45zM470 690q20 19 47 19q25 0 41 -16t16 -39q0 -26 -19.5 -44.5t-47.5 -18.5q-25 0 -41 15.5t-16 38.5q0 26 20 45z" />
    <glyph glyph-name="uni1E9E" unicode="&#x1e9e;" horiz-adv-x="681" 
d="M306.5 3q-41.5 17 -64.5 46l12 13q19 -20 53.5 -31.5t74.5 -11.5q48 0 87 25.5t61.5 68.5t22.5 93q0 66 -44.5 101.5t-115.5 35.5q-31 0 -68 -8l-3 17l251 278q-65 25 -137 25q-71 0 -122 -49t-64 -126l-76 -480h-180l2 14q50 3 73 18t29 57l60 379q9 60 46 109
t98.5 77.5t139.5 28.5q101 0 226 -29l5 -25l-230 -238q9 1 25 1q77 0 124.5 -44.5t47.5 -119.5q0 -68 -33 -123t-88.5 -87t-121.5 -32q-49 0 -90.5 17z" />
    <glyph glyph-name="Ygrave" unicode="&#x1ef2;" horiz-adv-x="639" 
d="M218.5 32q22.5 15 28.5 57l35 221l-124 261q-22 45 -40.5 62t-49.5 21l2 14h246l-3 -14q-36 -2 -51 -9.5t-15 -24.5t15 -49l106 -225l177 225q30 38 30 55q0 13 -16.5 19.5t-50.5 8.5l3 14h190l-3 -14q-35 -4 -59.5 -20.5t-60.5 -62.5l-207 -261l-34 -221q-2 -16 -2 -21
q0 -29 18 -40.5t59 -13.5l-2 -14h-264l2 14q48 3 70.5 18zM356 895l66 -162h-14l-146 162h94z" />
    <glyph glyph-name="ygrave" unicode="&#x1ef3;" horiz-adv-x="456" 
d="M35 -142q41 0 70.5 28t64.5 90l16 28l-112 430q-8 28 -22 40t-45 13l2 14l135 11l102 -413l150 270q9 14 9 33q0 21 -13.5 40t-35.5 34l50 43q46 -25 46 -75q0 -33 -20 -67l-234 -403q-38 -66 -63.5 -102t-62.5 -60t-87 -24q-27 0 -56 12l41 81q26 -23 65 -23zM221 728
l66 -162h-14l-146 162h94z" />
    <glyph glyph-name="endash" unicode="&#x2013;" horiz-adv-x="388" 
d="M35 300h333l-4 -32h-334z" />
    <glyph glyph-name="emdash" unicode="&#x2014;" horiz-adv-x="774" 
d="M45 300h700l-5 -32h-700z" />
    <glyph glyph-name="quoteleft" unicode="&#x2018;" horiz-adv-x="238" 
d="M179.5 689q-28.5 -27 -32.5 -68q6 5 15.5 9t18.5 4q23 0 40 -16.5t17 -40.5q0 -28 -19.5 -46.5t-48.5 -18.5q-27 0 -45.5 19.5t-18.5 53.5q0 38 18 72t50 56t73 25l-1 -14q-38 -8 -66.5 -35z" />
    <glyph glyph-name="quoteright" unicode="&#x2019;" horiz-adv-x="238" 
d="M176.5 562q28.5 27 32.5 68q-6 -5 -15.5 -9t-18.5 -4q-23 0 -40 16.5t-17 40.5q0 28 19.5 46.5t48.5 18.5q27 0 45.5 -19.5t18.5 -53.5q0 -38 -18 -72t-50 -56t-73 -25l1 14q38 8 66.5 35z" />
    <glyph glyph-name="quotesinglbase" unicode="&#x201a;" horiz-adv-x="238" 
d="M77.5 -67q28.5 27 32.5 68q-6 -5 -15.5 -9t-18.5 -4q-23 0 -40 16.5t-17 40.5q0 28 19.5 46.5t48.5 18.5q27 0 45.5 -19.5t18.5 -53.5q0 -38 -18 -72t-50 -56t-73 -25l1 14q38 8 66.5 35z" />
    <glyph glyph-name="quotedblleft" unicode="&#x201c;" horiz-adv-x="417" 
d="M179.5 689q-28.5 -27 -32.5 -68q6 5 15.5 9t18.5 4q23 0 40 -16.5t17 -40.5q0 -28 -19.5 -46.5t-48.5 -18.5q-27 0 -45.5 19.5t-18.5 53.5q0 38 18 72t50 56t73 25l-1 -14q-38 -8 -66.5 -35zM303 657q18 34 50 56t73 25l-1 -14q-38 -8 -66.5 -35t-32.5 -68q6 5 15.5 9
t18.5 4q23 0 40 -16.5t17 -40.5q0 -28 -19.5 -46.5t-48.5 -18.5q-27 0 -45.5 19.5t-18.5 53.5q0 38 18 72z" />
    <glyph glyph-name="quotedblright" unicode="&#x201d;" horiz-adv-x="407" 
d="M346.5 562q28.5 27 32.5 68q-6 -5 -15.5 -9t-18.5 -4q-23 0 -40 16.5t-17 40.5q0 28 19.5 46.5t48.5 18.5q27 0 45.5 -19.5t18.5 -53.5q0 -38 -18 -72t-50 -56t-73 -25l1 14q38 8 66.5 35zM167.5 562q28.5 27 32.5 68q-6 -5 -15.5 -9t-18.5 -4q-23 0 -40 16.5t-17 40.5
q0 28 19.5 46.5t48.5 18.5q27 0 45.5 -19.5t18.5 -53.5q0 -38 -18 -72t-50 -56t-73 -25l1 14q38 8 66.5 35z" />
    <glyph glyph-name="quotedblbase" unicode="&#x201e;" horiz-adv-x="417" 
d="M256.5 -67q28.5 27 32.5 68q-6 -5 -15.5 -9t-18.5 -4q-23 0 -40 16.5t-17 40.5q0 28 19.5 46.5t48.5 18.5q27 0 45.5 -19.5t18.5 -53.5q0 -38 -18 -72t-50 -56t-73 -25l1 14q38 8 66.5 35zM77.5 -67q28.5 27 32.5 68q-6 -5 -15.5 -9t-18.5 -4q-23 0 -40 16.5t-17 40.5
q0 28 19.5 46.5t48.5 18.5q27 0 45.5 -19.5t18.5 -53.5q0 -38 -18 -72t-50 -56t-73 -25l1 14q38 8 66.5 35z" />
    <glyph glyph-name="dagger" unicode="&#x2020;" horiz-adv-x="341" 
d="M194 514h-124l5 32h124l23 144h34l-24 -144h124l-4 -32h-124l-46 -288h-33z" />
    <glyph glyph-name="daggerdbl" unicode="&#x2021;" horiz-adv-x="344" 
d="M194 514h-124l5 32h124l23 144h34l-24 -144h124l-4 -32h-124l-46 -288h-33zM305 186l-45 288h33l46 -288h124l4 -32h-124l24 -144h-34l-23 144h-124l-5 32h124z" />
    <glyph glyph-name="bullet" unicode="&#x2022;" horiz-adv-x="489" 
d="M137 96q-42 24 -66 66t-24 93q0 62 30 111.5t80.5 77.5t108.5 28q51 0 93 -24t66 -66t24 -93q0 -62 -30 -111.5t-80 -77.5t-108 -28q-52 0 -94 24z" />
    <glyph glyph-name="ellipsis" unicode="&#x2026;" horiz-adv-x="564" 
d="M376 4.5q-16 16.5 -16 40.5q0 27 19.5 46t46.5 19q25 0 40.5 -16.5t15.5 -39.5q0 -28 -19.5 -47t-46.5 -19q-24 0 -40 16.5zM205 4.5q-16 16.5 -16 40.5q0 27 19.5 46t46.5 19q25 0 40.5 -16.5t15.5 -39.5q0 -28 -19.5 -47t-46.5 -19q-24 0 -40 16.5zM35 4.5
q-16 16.5 -16 40.5q0 27 19.5 46t46.5 19q25 0 40.5 -16.5t15.5 -39.5q0 -28 -19.5 -47t-46.5 -19q-24 0 -40 16.5z" />
    <glyph glyph-name="perthousand" unicode="&#x2030;" horiz-adv-x="1015" 
d="M593 668h30l-474 -668h-31zM91 589.5q19 42.5 53.5 67.5t79.5 25q50 0 80 -34.5t30 -93.5q0 -49 -19.5 -91.5t-54 -67.5t-79.5 -25q-50 0 -79.5 34.5t-29.5 93.5q0 49 19 91.5zM154.5 416.5q12.5 -25.5 34.5 -25.5q34 0 54.5 54.5t20.5 116.5q0 44 -13 71.5t-35 27.5
q-32 0 -53 -54.5t-21 -117.5q0 -47 12.5 -72.5zM427 204.5q19 42.5 53.5 67.5t79.5 25q50 0 80 -34.5t30 -93.5q0 -49 -19.5 -91.5t-54 -67.5t-79.5 -25q-50 0 -79.5 34.5t-29.5 93.5q0 49 19 91.5zM490.5 31.5q12.5 -25.5 34.5 -25.5q34 0 54.5 54.5t20.5 116.5
q0 44 -13 71.5t-35 27.5q-32 0 -53 -54.5t-21 -117.5q0 -47 12.5 -72.5zM726 204.5q19 42.5 53.5 67.5t79.5 25q50 0 80 -34.5t30 -93.5q0 -49 -19.5 -91.5t-54 -67.5t-79.5 -25q-50 0 -79.5 34.5t-29.5 93.5q0 49 19 91.5zM789.5 31.5q12.5 -25.5 34.5 -25.5
q34 0 54.5 54.5t20.5 116.5q0 44 -13 71.5t-35 27.5q-32 0 -53 -54.5t-21 -117.5q0 -47 12.5 -72.5z" />
    <glyph glyph-name="guilsinglleft" unicode="&#x2039;" horiz-adv-x="233" 
d="M216 428l7 -7l-100 -120l63 -112l-10 -9l-133 118l2 12z" />
    <glyph glyph-name="guilsinglright" unicode="&#x203a;" horiz-adv-x="233" 
d="M33 184l-7 7l100 120l-63 112l10 9l133 -118l-2 -12z" />
    <glyph glyph-name="fraction" unicode="&#x2044;" horiz-adv-x="167" 
d="M338 668h30l-474 -668h-31z" />
    <glyph glyph-name="uni2070" unicode="&#x2070;" horiz-adv-x="387" 
d="M105.5 402.5q-34.5 44.5 -34.5 121.5q0 70 27 128t75 91.5t107 33.5q68 0 102.5 -44.5t34.5 -121.5q0 -71 -27 -128.5t-75 -91t-107 -33.5q-68 0 -102.5 44.5zM168 412q15 -37 50 -37q32 0 59 38.5t42.5 97.5t15.5 117q0 56 -15.5 94t-51.5 38q-32 0 -58.5 -38.5
t-41.5 -98.5t-15 -118q0 -56 15 -93z" />
    <glyph glyph-name="uni2074" unicode="&#x2074;" horiz-adv-x="345" 
d="M202 387q13 8 16 30l10 63h-184l2 12l242 276h63l-43 -270h66l-3 -18h-66l-10 -63q-3 -23 7.5 -31t39.5 -11l-1 -8h-192l1 8q39 4 52 12zM231 498l34 218l-192 -218h158z" />
    <glyph glyph-name="uni2075" unicode="&#x2075;" horiz-adv-x="325" 
d="M78.5 383.5q-39.5 24.5 -39.5 70.5l81 23q-1 -5 -1 -15q0 -37 18.5 -62t46.5 -25q35 0 58.5 36.5t23.5 83.5q0 41 -21.5 64.5t-60.5 23.5q-21 0 -46 -7.5t-48 -20.5l-5 3l69 210h212l-10 -68h-206l-40 -119q53 44 119 44q55 0 87 -31.5t32 -85.5q0 -66 -49 -107.5
t-125 -41.5q-56 0 -95.5 24.5z" />
    <glyph glyph-name="uni2076" unicode="&#x2076;" horiz-adv-x="359" 
d="M95 643q25 59 73.5 96.5t114.5 37.5q48 0 82.5 -22t38.5 -59l-81 -25q2 35 -12.5 62t-41.5 27q-43 0 -71.5 -55t-38.5 -130q25 27 54 38.5t58 11.5q50 0 80 -31.5t30 -81.5q0 -44 -23.5 -79t-63 -55t-85.5 -20q-67 0 -103 41t-36 120q0 65 25 124zM169 408.5
q17 -33.5 47 -33.5q23 0 42.5 19t30.5 49t11 59q0 39 -20 65t-52 26q-17 0 -37 -8t-35 -24q-4 -44 -4 -62q0 -57 17 -90.5z" />
    <glyph glyph-name="uni2077" unicode="&#x2077;" horiz-adv-x="315" 
d="M151 495q32 57 73 101t107 104h-158q-33 0 -49 -11.5t-32 -50.5h-8l36 130h285l-2 -9q-94 -100 -144.5 -190.5t-66.5 -201.5h-83q10 71 42 128z" />
    <glyph glyph-name="uni2078" unicode="&#x2078;" horiz-adv-x="338" 
d="M85 523q36 28 94 37q-35 20 -54.5 42.5t-19.5 58.5q0 50 43.5 83t108.5 33q54 0 87 -23t33 -62q0 -67 -110 -96q43 -24 66 -48.5t23 -68.5q0 -56 -46.5 -88.5t-120.5 -32.5q-65 0 -102.5 25t-37.5 69q0 43 36 71zM143.5 394.5q18.5 -19.5 49.5 -19.5q35 0 58 24t23 58
t-20.5 53.5t-62.5 42.5q-30 -16 -48 -42t-18 -61q0 -36 18.5 -55.5zM200.5 640.5q17.5 -17.5 52.5 -36.5q24 15 39 39.5t15 54.5q0 28 -15.5 45t-40.5 17q-29 0 -48.5 -22t-19.5 -51t17.5 -46.5z" />
    <glyph glyph-name="uni2079" unicode="&#x2079;" horiz-adv-x="359" 
d="M150.5 402q14.5 -27 40.5 -27q43 0 71.5 55t38.5 130q-25 -26 -54.5 -38t-57.5 -12q-50 0 -80 31t-30 81q0 44 23.5 79.5t63 55.5t85.5 20q66 0 102 -41.5t36 -119.5q0 -65 -25 -124t-73 -96.5t-113 -37.5q-49 0 -84 22t-39 59l83 25q-2 -35 12.5 -62zM180.5 567.5
q19.5 -25.5 51.5 -25.5q18 0 37 7.5t34 23.5q5 38 5 63q0 56 -17 90t-47 34q-35 0 -59 -40t-24 -87q0 -40 19.5 -65.5z" />
    <glyph glyph-name="Euro" unicode="&#x20ac;" 
d="M49 420h133q26 77 79 136.5t124 93t152 33.5q96 0 156 -39t70 -108l-93 -28q-5 68 -44.5 108t-104.5 40q-57 0 -108 -31t-87.5 -85t-53.5 -120h229l-5 -31h-231q-6 -36 -6 -73l1 -20h221l-5 -32h-213q13 -93 69.5 -148.5t139.5 -55.5q81 0 145.5 38.5t96.5 109.5l12 -3
q-38 -105 -120 -162.5t-185 -57.5q-73 0 -131.5 35.5t-93 99t-37.5 144.5h-134l4 32h130q1 46 14 93h-128z" />
    <glyph glyph-name="uni2116" unicode="&#x2116;" horiz-adv-x="1066" 
d="M739 329h304l-4 -28h-305zM3 14q52 4 74 21t29 62l80 508q-17 25 -37 36.5t-52 12.5l3 14h165l302 -528l69 431q2 16 2 22q0 32 -21 45.5t-73 15.5l3 14h222l-3 -14q-52 -3 -73.5 -20t-28.5 -63l-93 -586h-24l-338 585l-75 -473q-2 -16 -2 -23q0 -31 21 -44t73 -16
l-3 -14h-222zM779.5 592q23.5 42 65 66t92.5 24q59 0 94.5 -36.5t35.5 -99.5q0 -52 -23.5 -94.5t-64.5 -66.5t-92 -24q-59 0 -95 37t-36 100q0 52 23.5 94zM852 411.5q17 -33.5 47 -33.5q28 0 48.5 25.5t31.5 64.5t11 77q0 54 -17 87t-47 33q-27 0 -48 -25.5t-32 -64
t-11 -77.5q0 -53 17 -86.5z" />
    <glyph glyph-name="uni2117" unicode="&#x2117;" horiz-adv-x="805" 
d="M335 317v-193h-31v419h139q55 0 89.5 -31t34.5 -82t-34.5 -82t-89.5 -31h-108zM115 508q47 80 126.5 127t173.5 47t174.5 -47t127.5 -127t47 -174t-47 -174t-127.5 -127t-174.5 -47t-173.5 47t-126.5 127t-47 174t47 174zM138 173.5q43 -73.5 117 -117t160 -43.5
q87 0 161 43.5t117.5 117t43.5 160.5t-43.5 160.5t-117.5 117t-161 43.5q-86 0 -160 -43.5t-117 -117t-43 -160.5t43 -160.5zM443 345q43 0 68.5 23t25.5 62t-25.5 62t-68.5 23h-108v-170h108z" />
    <glyph glyph-name="trademark" unicode="&#x2122;" horiz-adv-x="548" 
d="M306 668h44l75 -201l76 201h42v-232h-24v208l-81 -208h-27l-79 208v-208h-26v232zM100 668h175v-25h-74v-207h-27v207h-74v25z" />
    <glyph glyph-name="uni2126" unicode="&#x2126;" horiz-adv-x="699" 
d="M22 32h177q-73 56 -114 131.5t-41 163.5q0 98 47 179.5t127.5 128t178.5 46.5q86 0 152 -39t102 -107t36 -151q0 -116 -63 -204t-172 -148h163l-5 -32h-223l5 31q262 129 262 349q0 75 -32.5 136.5t-91.5 97t-136 35.5q-86 0 -158.5 -41.5t-115 -114.5t-42.5 -163
t42.5 -163.5t124.5 -135.5l-5 -31h-223z" />
    <glyph glyph-name="estimated" unicode="&#x212e;" horiz-adv-x="759" 
d="M224 32q-82 46 -129.5 125.5t-47.5 176.5t46 176.5t126 125.5t177 46q98 0 178 -46.5t125.5 -126.5t44.5 -178h-569v-210q39 -43 98.5 -72t131.5 -29q76 0 139.5 33.5t109.5 99.5l28 -20q-46 -70 -118.5 -108.5t-158.5 -38.5q-99 0 -181 46zM617 372v177q-35 39 -94 69
t-127 30q-69 0 -128.5 -30t-92.5 -70v-176h442z" />
    <glyph glyph-name="oneeighth" unicode="&#x215b;" horiz-adv-x="754" 
d="M87.5 285q14.5 8 18.5 32l46 284h-65l1 8q46 9 78.5 24t65.5 40h8l-57 -356q-1 -4 -1 -11q0 -16 11 -22.5t37 -8.5l-1 -8h-197l1 8q40 2 54.5 10zM587 668h30l-474 -668h-31zM443 156q36 28 94 37q-35 20 -54.5 42.5t-19.5 58.5q0 50 43.5 83t108.5 33q54 0 87 -23
t33 -62q0 -67 -110 -96q43 -24 66 -48.5t23 -68.5q0 -56 -46.5 -88.5t-120.5 -32.5q-65 0 -102.5 25t-37.5 69q0 43 36 71zM501.5 27.5q18.5 -19.5 49.5 -19.5q35 0 58 24t23 58t-20.5 53.5t-62.5 42.5q-30 -16 -48 -42t-18 -61q0 -36 18.5 -55.5zM558.5 273.5
q17.5 -17.5 52.5 -36.5q24 15 39 39.5t15 54.5q0 28 -15.5 45t-40.5 17q-29 0 -48.5 -22t-19.5 -51t17.5 -46.5z" />
    <glyph glyph-name="threeeighths" unicode="&#x215c;" horiz-adv-x="825" 
d="M120.5 305.5q16.5 -30.5 49.5 -30.5t55 30t22 74q0 85 -107 89l2 8q56 9 86.5 35t30.5 61q0 27 -17.5 43t-46.5 16q-32 0 -60.5 -17.5t-45.5 -48.5l-6 2q15 44 54 76.5t98 32.5q48 0 77 -24.5t29 -64.5q0 -44 -33.5 -72.5t-90.5 -38.5q52 -3 81.5 -27.5t29.5 -65.5
q0 -59 -49 -91.5t-119 -32.5q-60 0 -97.5 24.5t-37.5 70.5l81 23q-2 -41 14.5 -71.5zM659 668h30l-474 -668h-31zM514 156q36 28 94 37q-35 20 -54.5 42.5t-19.5 58.5q0 50 43.5 83t108.5 33q54 0 87 -23t33 -62q0 -67 -110 -96q43 -24 66 -48.5t23 -68.5q0 -56 -46.5 -88.5
t-120.5 -32.5q-65 0 -102.5 25t-37.5 69q0 43 36 71zM572.5 27.5q18.5 -19.5 49.5 -19.5q35 0 58 24t23 58t-20.5 53.5t-62.5 42.5q-30 -16 -48 -42t-18 -61q0 -36 18.5 -55.5zM629.5 273.5q17.5 -17.5 52.5 -36.5q24 15 39 39.5t15 54.5q0 28 -15.5 45t-40.5 17
q-29 0 -48.5 -22t-19.5 -51t17.5 -46.5z" />
    <glyph glyph-name="fiveeighths" unicode="&#x215d;" horiz-adv-x="829" 
d="M62.5 283.5q-39.5 24.5 -39.5 70.5l81 23q-1 -5 -1 -15q0 -37 18.5 -62t46.5 -25q35 0 58.5 36.5t23.5 83.5q0 41 -21.5 64.5t-60.5 23.5q-21 0 -46 -7.5t-48 -20.5l-5 3l69 210h212l-10 -68h-206l-40 -119q53 44 119 44q55 0 87 -31.5t32 -85.5q0 -66 -49 -107.5
t-125 -41.5q-56 0 -95.5 24.5zM663 668h30l-474 -668h-31zM519 156q36 28 94 37q-35 20 -54.5 42.5t-19.5 58.5q0 50 43.5 83t108.5 33q54 0 87 -23t33 -62q0 -67 -110 -96q43 -24 66 -48.5t23 -68.5q0 -56 -46.5 -88.5t-120.5 -32.5q-65 0 -102.5 25t-37.5 69q0 43 36 71z
M577.5 27.5q18.5 -19.5 49.5 -19.5q35 0 58 24t23 58t-20.5 53.5t-62.5 42.5q-30 -16 -48 -42t-18 -61q0 -36 18.5 -55.5zM634.5 273.5q17.5 -17.5 52.5 -36.5q24 15 39 39.5t15 54.5q0 28 -15.5 45t-40.5 17q-29 0 -48.5 -22t-19.5 -51t17.5 -46.5z" />
    <glyph glyph-name="seveneighths" unicode="&#x215e;" horiz-adv-x="758" 
d="M135 395q32 57 73 101t107 104h-158q-33 0 -49 -11.5t-32 -50.5h-8l36 130h285l-2 -9q-94 -100 -144.5 -190.5t-66.5 -201.5h-83q10 71 42 128zM600 668h30l-474 -668h-31zM447 156q36 28 94 37q-35 20 -54.5 42.5t-19.5 58.5q0 50 43.5 83t108.5 33q54 0 87 -23t33 -62
q0 -67 -110 -96q43 -24 66 -48.5t23 -68.5q0 -56 -46.5 -88.5t-120.5 -32.5q-65 0 -102.5 25t-37.5 69q0 43 36 71zM505.5 27.5q18.5 -19.5 49.5 -19.5q35 0 58 24t23 58t-20.5 53.5t-62.5 42.5q-30 -16 -48 -42t-18 -61q0 -36 18.5 -55.5zM562.5 273.5
q17.5 -17.5 52.5 -36.5q24 15 39 39.5t15 54.5q0 28 -15.5 45t-40.5 17q-29 0 -48.5 -22t-19.5 -51t17.5 -46.5z" />
    <glyph glyph-name="arrowleft" unicode="&#x2190;" horiz-adv-x="646" 
d="M328 478l-248 -209h542l-5 -32h-546l183 -213l-25 -20l-212 250l289 249z" />
    <glyph glyph-name="arrowup" unicode="&#x2191;" horiz-adv-x="578" 
d="M526 321l-177 217l-87 -544h-32l87 543l-244 -216l-24 24l290 251l210 -250z" />
    <glyph glyph-name="arrowright" unicode="&#x2192;" horiz-adv-x="646" 
d="M319 28l248 209h-542l5 32h546l-183 213l25 20l212 -250l-289 -249z" />
    <glyph glyph-name="arrowdown" unicode="&#x2193;" horiz-adv-x="578" 
d="M57 267l177 -217l87 544h32l-87 -543l244 216l24 -24l-290 -251l-210 250z" />
    <glyph glyph-name="arrowboth" unicode="&#x2194;" horiz-adv-x="858" 
d="M531 28l248 209h-708l182 -213l-24 -20l-212 250l289 249l21 -24l-247 -210h708l-183 213l25 20l212 -250l-289 -249z" />
    <glyph glyph-name="arrowupdn" unicode="&#x2195;" horiz-adv-x="583" 
d="M37 110l177 -217l42 263l87 543l-244 -216l-24 24l290 251l210 -250l-23 -25l-177 217l-42 -263l-87 -543l244 216l24 -24l-290 -251l-210 250z" />
    <glyph glyph-name="uni2196" unicode="&#x2196;" horiz-adv-x="494" 
d="M419 416h-300l322 -383l-24 -20l-322 383l-48 -303h-32l56 355h354z" />
    <glyph glyph-name="uni2197" unicode="&#x2197;" horiz-adv-x="495" 
d="M399 96l49 301l-445 -384l-19 23l443 382h-299l5 32h355l-57 -354h-32z" />
    <glyph glyph-name="uni2198" unicode="&#x2198;" horiz-adv-x="494" 
d="M71 59h300l-322 383l24 20l322 -383l48 303h32l-56 -355h-354z" />
    <glyph glyph-name="uni2199" unicode="&#x2199;" horiz-adv-x="496" 
d="M93 380l-49 -301l445 384l19 -23l-443 -382h299l-5 -32h-355l57 354h32z" />
    <glyph glyph-name="partialdiff" unicode="&#x2202;" horiz-adv-x="524" 
d="M123.5 10.5q-45.5 24.5 -70.5 70t-25 106.5q0 69 31.5 126t87 90.5t123.5 33.5q73 0 127 -41.5t62 -128.5q8 44 8 96q0 128 -54.5 204.5t-165.5 83.5l3 31q123 -8 186.5 -90.5t63.5 -226.5q0 -101 -30 -187t-91.5 -139t-151.5 -53q-58 0 -103.5 24.5zM107.5 65.5
q45.5 -47.5 120.5 -47.5q58 0 104.5 29.5t73 79t26.5 107.5q0 77 -45.5 124t-119.5 47q-57 0 -104 -28t-74 -77t-27 -109q0 -78 45.5 -125.5z" />
    <glyph glyph-name="uni2206" unicode="&#x2206;" horiz-adv-x="620" 
d="M359 668h31l181 -668h-604zM529 32l-160 593l-347 -593h507z" />
    <glyph glyph-name="product" unicode="&#x220f;" horiz-adv-x="572" 
d="M131 668h434l-106 -668h-32l100 636h-368l-101 -636h-33z" />
    <glyph glyph-name="summation" unicode="&#x2211;" horiz-adv-x="461" 
d="M-25 28l311 311l-214 301l4 28h440l-5 -32h-397l205 -288l-5 -26l-290 -290h392l-6 -32h-440z" />
    <glyph glyph-name="minus" unicode="&#x2212;" horiz-adv-x="491" 
d="M49 335h416l-5 -32h-416z" />
    <glyph glyph-name="radical" unicode="&#x221a;" horiz-adv-x="530" 
d="M143 329h-95l5 32h117l62 -329l315 636h35l-331 -668h-45z" />
    <glyph glyph-name="infinity" unicode="&#x221e;" horiz-adv-x="857" 
d="M89 188.5q-44 43.5 -44 114.5q0 58 26.5 103t72.5 70t100 25q129 0 199 -142q99 142 227 142q72 0 116.5 -42.5t44.5 -113.5q0 -59 -26.5 -104.5t-72 -70.5t-100.5 -25q-127 0 -197 143q-102 -143 -231 -143q-71 0 -115 43.5zM115.5 212.5q35.5 -35.5 94.5 -35.5
q58 0 111.5 36.5t99.5 109.5q-61 146 -178 146q-46 0 -83 -21t-58.5 -58.5t-21.5 -84.5q0 -57 35.5 -92.5zM635 177q45 0 82 21t58 58t21 85q0 58 -35 93t-94 35q-117 0 -211 -146q63 -146 179 -146z" />
    <glyph glyph-name="integral" unicode="&#x222b;" horiz-adv-x="235" 
d="M-56 -167h16q36 0 59 24.5t30 70.5l105 662q9 62 42.5 94.5t87.5 32.5h15l-6 -32h-15q-37 0 -60 -24.5t-31 -71.5l-105 -661q-10 -62 -43 -94.5t-85 -32.5h-16z" />
    <glyph glyph-name="approxequal" unicode="&#x2248;" horiz-adv-x="527" 
d="M337.5 409.5q-24.5 8.5 -56.5 25.5q-31 15 -50.5 22.5t-42.5 7.5q-54 0 -128 -59l6 33q36 30 67 44t62 14q27 0 50 -8t53 -24q32 -16 53 -24t47 -8q30 0 61 14.5t67 44.5l-5 -33q-34 -30 -65 -44t-65 -14q-29 0 -53.5 8.5zM37 257q36 30 67 44t62 14q27 0 49.5 -8
t54.5 -24q29 -16 51.5 -24t47.5 -8q58 0 129 59l-6 -33q-64 -58 -129 -58q-29 0 -54 9t-56 25q-31 15 -51 22.5t-43 7.5q-28 0 -58.5 -14.5t-68.5 -44.5z" />
    <glyph glyph-name="notequal" unicode="&#x2260;" horiz-adv-x="492" 
d="M191 233h-157l5 32h169l70 130h-219l5 32h231l64 118h36l-64 -118h149l-5 -32h-161l-70 -130h211l-5 -32h-223l-73 -135h-36z" />
    <glyph glyph-name="lessequal" unicode="&#x2264;" horiz-adv-x="453" 
d="M-105 -1l-5 32h387l5 -32h-387zM51 343l402 189l11 -29l-392 -185l332 -184l-17 -27l-343 191z" />
    <glyph glyph-name="greaterequal" unicode="&#x2265;" horiz-adv-x="448" 
d="M12 137l393 185l-332 184l17 27l342 -190l-6 -45l-404 -190zM-6 33h387l-5 -32h-387z" />
    <glyph glyph-name="uni2460" unicode="&#x2460;" 
d="M325.5 152q14.5 8 18.5 32l46 284h-65l1 8q46 9 78.5 24t65.5 40h8l-57 -356q-1 -4 -1 -11q0 -16 11 -22.5t37 -8.5l-1 -8h-197l1 8q40 2 54.5 10zM94 508q47 80 126.5 127t173.5 47t174.5 -47t127.5 -127t47 -174t-47 -174t-127.5 -127t-174.5 -47t-173.5 47t-126.5 127
t-47 174t47 174zM117 173.5q43 -73.5 117 -117t160 -43.5q87 0 161 43.5t117.5 117t43.5 160.5t-43.5 160.5t-117.5 117t-161 43.5q-86 0 -160 -43.5t-117 -117t-43 -160.5t43 -160.5z" />
    <glyph glyph-name="uni2461" unicode="&#x2461;" 
d="M219 143l133 126q50 47 78.5 85.5t28.5 80.5q0 30 -16.5 47t-45.5 17q-30 0 -59.5 -17.5t-46.5 -48.5l-8 2q17 45 56 77t96 32q49 0 77.5 -26.5t28.5 -73.5q0 -44 -27 -82t-67 -68t-109 -74l-38 -24h135q37 0 52.5 12t32.5 50h9l-37 -123h-274zM94 508q47 80 126.5 127
t173.5 47t174.5 -47t127.5 -127t47 -174t-47 -174t-127.5 -127t-174.5 -47t-173.5 47t-126.5 127t-47 174t47 174zM117 173.5q43 -73.5 117 -117t160 -43.5q87 0 161 43.5t117.5 117t43.5 160.5t-43.5 160.5t-117.5 117t-161 43.5q-86 0 -160 -43.5t-117 -117t-43 -160.5
t43 -160.5z" />
    <glyph glyph-name="uni2462" unicode="&#x2462;" 
d="M324.5 174.5q16.5 -30.5 49.5 -30.5t55 30t22 74q0 85 -107 89l2 8q56 9 86.5 35t30.5 61q0 27 -17.5 43t-46.5 16q-32 0 -60.5 -17.5t-45.5 -48.5l-6 2q15 44 54 76.5t98 32.5q48 0 77 -24.5t29 -64.5q0 -44 -33.5 -72.5t-90.5 -38.5q52 -3 81.5 -27.5t29.5 -65.5
q0 -59 -49 -91.5t-119 -32.5q-60 0 -97.5 24.5t-37.5 70.5l81 23q-2 -41 14.5 -71.5zM94 508q47 80 126.5 127t173.5 47t174.5 -47t127.5 -127t47 -174t-47 -174t-127.5 -127t-174.5 -47t-173.5 47t-126.5 127t-47 174t47 174zM117 173.5q43 -73.5 117 -117t160 -43.5
q87 0 161 43.5t117.5 117t43.5 160.5t-43.5 160.5t-117.5 117t-161 43.5q-86 0 -160 -43.5t-117 -117t-43 -160.5t43 -160.5z" />
    <glyph glyph-name="uni2463" unicode="&#x2463;" 
d="M354 154q13 8 16 30l10 63h-184l2 12l242 276h63l-43 -270h66l-3 -18h-66l-10 -63q-3 -23 7.5 -31t39.5 -11l-1 -8h-192l1 8q39 4 52 12zM94 508q47 80 126.5 127t173.5 47t174.5 -47t127.5 -127t47 -174t-47 -174t-127.5 -127t-174.5 -47t-173.5 47t-126.5 127t-47 174
t47 174zM117 173.5q43 -73.5 117 -117t160 -43.5q87 0 161 43.5t117.5 117t43.5 160.5t-43.5 160.5t-117.5 117t-161 43.5q-86 0 -160 -43.5t-117 -117t-43 -160.5t43 -160.5zM383 265l34 218l-192 -218h158z" />
    <glyph glyph-name="uni2464" unicode="&#x2464;" 
d="M254.5 151.5q-39.5 24.5 -39.5 70.5l81 23q-1 -5 -1 -15q0 -37 18.5 -62t46.5 -25q35 0 58.5 36.5t23.5 83.5q0 41 -21.5 64.5t-60.5 23.5q-21 0 -46 -7.5t-48 -20.5l-5 3l69 210h212l-10 -68h-206l-40 -119q53 44 119 44q55 0 87 -31.5t32 -85.5q0 -66 -49 -107.5
t-125 -41.5q-56 0 -95.5 24.5zM94 508q47 80 126.5 127t173.5 47t174.5 -47t127.5 -127t47 -174t-47 -174t-127.5 -127t-174.5 -47t-173.5 47t-126.5 127t-47 174t47 174zM117 173.5q43 -73.5 117 -117t160 -43.5q87 0 161 43.5t117.5 117t43.5 160.5t-43.5 160.5
t-117.5 117t-161 43.5q-86 0 -160 -43.5t-117 -117t-43 -160.5t43 -160.5z" />
    <glyph glyph-name="uni2465" unicode="&#x2465;" 
d="M248 413q25 59 73.5 96.5t114.5 37.5q48 0 82.5 -22t38.5 -59l-81 -25q2 35 -12.5 62t-41.5 27q-43 0 -71.5 -55t-38.5 -130q25 27 54 38.5t58 11.5q50 0 80 -31.5t30 -81.5q0 -44 -23.5 -79t-63 -55t-85.5 -20q-67 0 -103 41t-36 120q0 65 25 124zM94 509
q47 80 126.5 127t173.5 47t174.5 -47t127.5 -127t47 -174t-47 -174t-127.5 -127t-174.5 -47t-173.5 47t-126.5 127t-47 174t47 174zM117 174.5q43 -73.5 117 -117t160 -43.5q87 0 161 43.5t117.5 117t43.5 160.5t-43.5 160.5t-117.5 117t-161 43.5q-86 0 -160 -43.5
t-117 -117t-43 -160.5t43 -160.5zM322 178.5q17 -33.5 47 -33.5q23 0 42.5 19t30.5 49t11 59q0 39 -20 65t-52 26q-17 0 -37 -8t-35 -24q-4 -44 -4 -62q0 -57 17 -90.5z" />
    <glyph glyph-name="uni2466" unicode="&#x2466;" 
d="M320 259q32 57 73 101t107 104h-158q-33 0 -49 -11.5t-32 -50.5h-8l36 130h285l-2 -9q-94 -100 -144.5 -190.5t-66.5 -201.5h-83q10 71 42 128zM94 508q47 80 126.5 127t173.5 47t174.5 -47t127.5 -127t47 -174t-47 -174t-127.5 -127t-174.5 -47t-173.5 47t-126.5 127
t-47 174t47 174zM117 173.5q43 -73.5 117 -117t160 -43.5q87 0 161 43.5t117.5 117t43.5 160.5t-43.5 160.5t-117.5 117t-161 43.5q-86 0 -160 -43.5t-117 -117t-43 -160.5t43 -160.5z" />
    <glyph glyph-name="uni2467" unicode="&#x2467;" 
d="M252 293q36 28 94 37q-35 20 -54.5 42.5t-19.5 58.5q0 50 43.5 83t108.5 33q54 0 87 -23t33 -62q0 -67 -110 -96q43 -24 66 -48.5t23 -68.5q0 -56 -46.5 -88.5t-120.5 -32.5q-65 0 -102.5 25t-37.5 69q0 43 36 71zM94 509q47 80 126.5 127t173.5 47t174.5 -47t127.5 -127
t47 -174t-47 -174t-127.5 -127t-174.5 -47t-173.5 47t-126.5 127t-47 174t47 174zM117 174.5q43 -73.5 117 -117t160 -43.5q87 0 161 43.5t117.5 117t43.5 160.5t-43.5 160.5t-117.5 117t-161 43.5q-86 0 -160 -43.5t-117 -117t-43 -160.5t43 -160.5zM310.5 164.5
q18.5 -19.5 49.5 -19.5q35 0 58 24t23 58t-20.5 53.5t-62.5 42.5q-30 -16 -48 -42t-18 -61q0 -36 18.5 -55.5zM367.5 410.5q17.5 -17.5 52.5 -36.5q24 15 39 39.5t15 54.5q0 28 -15.5 45t-40.5 17q-29 0 -48.5 -22t-19.5 -51t17.5 -46.5z" />
    <glyph glyph-name="uni2468" unicode="&#x2468;" 
d="M325.5 172q14.5 -27 40.5 -27q43 0 71.5 55t38.5 130q-25 -26 -54.5 -38t-57.5 -12q-50 0 -80 31t-30 81q0 44 23.5 79.5t63 55.5t85.5 20q66 0 102 -41.5t36 -119.5q0 -65 -25 -124t-73 -96.5t-113 -37.5q-49 0 -84 22t-39 59l83 25q-2 -35 12.5 -62zM94 509
q47 80 126.5 127t173.5 47t174.5 -47t127.5 -127t47 -174t-47 -174t-127.5 -127t-174.5 -47t-173.5 47t-126.5 127t-47 174t47 174zM117 174.5q43 -73.5 117 -117t160 -43.5q87 0 161 43.5t117.5 117t43.5 160.5t-43.5 160.5t-117.5 117t-161 43.5q-86 0 -160 -43.5
t-117 -117t-43 -160.5t43 -160.5zM355.5 337.5q19.5 -25.5 51.5 -25.5q18 0 37 7.5t34 23.5q5 38 5 63q0 56 -17 90t-47 34q-35 0 -59 -40t-24 -87q0 -40 19.5 -65.5z" />
    <glyph glyph-name="lozenge" unicode="&#x25ca;" horiz-adv-x="477" 
d="M42 336l238 332h39l134 -336l-240 -332h-38zM196 29l220 305l-119 305l-219 -306z" />
    <glyph glyph-name="uni25CF" unicode="&#x25cf;" horiz-adv-x="768" 
d="M570.5 33q80.5 47 127.5 127t47 174t-47 174t-127.5 127t-174.5 47t-173.5 -47t-126.5 -127t-47 -174t47 -174t126.5 -127t173.5 -47t174.5 47z" />
    <glyph glyph-name="uni2776" unicode="&#x2776;" 
d="M324.5 153q14.5 8 18.5 32l46 284h-65l1 8q46 9 78.5 24t65.5 40h8l-57 -356q-1 -4 -1 -11q0 -16 11 -22.5t37 -8.5l-1 -8h-197l1 8q40 2 54.5 10zM568.5 33q80.5 47 127.5 127t47 174t-47 174t-127.5 127t-174.5 47t-173.5 -47t-126.5 -127t-47 -174t47 -174t126.5 -127
t173.5 -47t174.5 47z" />
    <glyph glyph-name="uni2777" unicode="&#x2777;" 
d="M218 143l133 126q50 47 78.5 85.5t28.5 80.5q0 30 -16.5 47t-45.5 17q-30 0 -59.5 -17.5t-46.5 -48.5l-8 2q17 45 56 77t96 32q49 0 77.5 -26.5t28.5 -73.5q0 -44 -27 -82t-67 -68t-109 -74l-38 -24h135q37 0 52.5 12t32.5 50h9l-37 -123h-274zM568.5 33
q80.5 47 127.5 127t47 174t-47 174t-127.5 127t-174.5 47t-173.5 -47t-126.5 -127t-47 -174t47 -174t126.5 -127t173.5 -47t174.5 47z" />
    <glyph glyph-name="uni2778" unicode="&#x2778;" 
d="M314.5 173.5q16.5 -30.5 49.5 -30.5t55 30t22 74q0 85 -107 89l2 8q56 9 86.5 35t30.5 61q0 27 -17.5 43t-46.5 16q-32 0 -60.5 -17.5t-45.5 -48.5l-6 2q15 44 54 76.5t98 32.5q48 0 77 -24.5t29 -64.5q0 -44 -33.5 -72.5t-90.5 -38.5q52 -3 81.5 -27.5t29.5 -65.5
q0 -59 -49 -91.5t-119 -32.5q-60 0 -97.5 24.5t-37.5 70.5l81 23q-2 -41 14.5 -71.5zM568.5 33q80.5 47 127.5 127t47 174t-47 174t-127.5 127t-174.5 47t-173.5 -47t-126.5 -127t-47 -174t47 -174t126.5 -127t173.5 -47t174.5 47z" />
    <glyph glyph-name="uni2779" unicode="&#x2779;" 
d="M353 155q13 8 16 30l10 63h-184l2 12l242 276h63l-43 -270h66l-3 -18h-66l-10 -63q-3 -23 7.5 -31t39.5 -11l-1 -8h-192l1 8q39 4 52 12zM382 266l34 218l-192 -218h158zM568.5 33q80.5 47 127.5 127t47 174t-47 174t-127.5 127t-174.5 47t-173.5 -47t-126.5 -127
t-47 -174t47 -174t126.5 -127t173.5 -47t174.5 47z" />
    <glyph glyph-name="uni277A" unicode="&#x277a;" 
d="M264.5 152.5q-39.5 24.5 -39.5 70.5l81 23q-1 -5 -1 -15q0 -37 18.5 -62t46.5 -25q35 0 58.5 36.5t23.5 83.5q0 41 -21.5 64.5t-60.5 23.5q-21 0 -46 -7.5t-48 -20.5l-5 3l69 210h212l-10 -68h-206l-40 -119q53 44 119 44q55 0 87 -31.5t32 -85.5q0 -66 -49 -107.5
t-125 -41.5q-56 0 -95.5 24.5zM568.5 32q80.5 47 127.5 127t47 174t-47 174t-127.5 127t-174.5 47t-173.5 -47t-126.5 -127t-47 -174t47 -174t126.5 -127t173.5 -47t174.5 47z" />
    <glyph glyph-name="uni277B" unicode="&#x277b;" 
d="M257 413q25 59 73.5 96.5t114.5 37.5q48 0 82.5 -22t38.5 -59l-81 -25q2 35 -12.5 62t-41.5 27q-43 0 -71.5 -55t-38.5 -130q25 27 54 38.5t58 11.5q50 0 80 -31.5t30 -81.5q0 -44 -23.5 -79t-63 -55t-85.5 -20q-67 0 -103 41t-36 120q0 65 25 124zM331 178.5
q17 -33.5 47 -33.5q23 0 42.5 19t30.5 49t11 59q0 39 -20 65t-52 26q-17 0 -37 -8t-35 -24q-4 -44 -4 -62q0 -57 17 -90.5zM568.5 33q80.5 47 127.5 127t47 174t-47 174t-127.5 127t-174.5 47t-173.5 -47t-126.5 -127t-47 -174t47 -174t126.5 -127t173.5 -47t174.5 47z" />
    <glyph glyph-name="uni277C" unicode="&#x277c;" 
d="M325 262q32 57 73 101t107 104h-158q-33 0 -49 -11.5t-32 -50.5h-8l36 130h285l-2 -9q-94 -100 -144.5 -190.5t-66.5 -201.5h-83q10 71 42 128zM568.5 33q80.5 47 127.5 127t47 174t-47 174t-127.5 127t-174.5 47t-173.5 -47t-126.5 -127t-47 -174t47 -174t126.5 -127
t173.5 -47t174.5 47z" />
    <glyph glyph-name="uni277D" unicode="&#x277d;" 
d="M257 291q36 28 94 37q-35 20 -54.5 42.5t-19.5 58.5q0 50 43.5 83t108.5 33q54 0 87 -23t33 -62q0 -67 -110 -96q43 -24 66 -48.5t23 -68.5q0 -56 -46.5 -88.5t-120.5 -32.5q-65 0 -102.5 25t-37.5 69q0 43 36 71zM315.5 162.5q18.5 -19.5 49.5 -19.5q35 0 58 24t23 58
t-20.5 53.5t-62.5 42.5q-30 -16 -48 -42t-18 -61q0 -36 18.5 -55.5zM372.5 408.5q17.5 -17.5 52.5 -36.5q24 15 39 39.5t15 54.5q0 28 -15.5 45t-40.5 17q-29 0 -48.5 -22t-19.5 -51t17.5 -46.5zM568.5 34q80.5 47 127.5 127t47 174t-47 174t-127.5 127t-174.5 47
t-173.5 -47t-126.5 -127t-47 -174t47 -174t126.5 -127t173.5 -47t174.5 47z" />
    <glyph glyph-name="uni277E" unicode="&#x277e;" 
d="M321.5 171q14.5 -27 40.5 -27q43 0 71.5 55t38.5 130q-25 -26 -54.5 -38t-57.5 -12q-50 0 -80 31t-30 81q0 44 23.5 79.5t63 55.5t85.5 20q66 0 102 -41.5t36 -119.5q0 -65 -25 -124t-73 -96.5t-113 -37.5q-49 0 -84 22t-39 59l83 25q-2 -35 12.5 -62zM351.5 336.5
q19.5 -25.5 51.5 -25.5q18 0 37 7.5t34 23.5q5 38 5 63q0 56 -17 90t-47 34q-35 0 -59 -40t-24 -87q0 -40 19.5 -65.5zM568.5 33q80.5 47 127.5 127t47 174t-47 174t-127.5 127t-174.5 47t-173.5 -47t-126.5 -127t-47 -174t47 -174t126.5 -127t173.5 -47t174.5 47z" />
    <glyph glyph-name="uniF8FF" unicode="&#xf8ff;" horiz-adv-x="767" 
d="M45 21.5q-32 31.5 -32 84.5q0 60 40.5 98.5t106.5 38.5h96l30 186h-91q-52 0 -82 32t-30 83q0 61 42 100t103 39q51 0 80.5 -28.5t31.5 -74.5q0 -14 -16 -119h186l15 96q9 57 49.5 91.5t95.5 34.5q51 0 80.5 -29.5t29.5 -77.5q0 -39 -19.5 -73t-53 -54t-74.5 -20h-96
l-30 -186h89q51 0 83 -31t32 -84q0 -60 -40.5 -99t-101.5 -39q-52 0 -83.5 29t-31.5 75q0 14 16 116h-186l-15 -95q-9 -58 -46.5 -91.5t-93.5 -33.5q-52 0 -84 31.5zM70 45q23 -23 62 -23q44 0 71 24.5t34 69.5l14 94h-96q-48 0 -78 -28.5t-30 -74.5q0 -39 23 -62z
M138 485.5q22 -24.5 57 -24.5h96q16 100 16 113q0 33 -21.5 55t-61.5 22q-46 0 -77 -28.5t-31 -74.5q0 -38 22 -62.5zM476 243l29 186h-187l-29 -186h187zM509 43.5q23 -21.5 63 -21.5q46 0 76 28.5t30 73.5q0 39 -24 62.5t-63 23.5h-89q-16 -98 -16 -113q0 -32 23 -53.5z
M638 461q47 0 78 32.5t31 77.5q0 36 -22 58t-60 22q-41 0 -71.5 -26t-36.5 -68l-15 -96h96z" />
    <glyph glyph-name="K.ss05" horiz-adv-x="694" 
d="M463 55l-238 264l-37 -230q-2 -14 -2 -19q0 -29 19 -41.5t61 -14.5l-2 -14h-270l2 14q49 2 72 18t30 57l78 491q2 16 2 21q0 27 -18.5 39.5t-61.5 13.5l2 14h270l-2 -14q-49 -2 -72 -16.5t-29 -55.5l-36 -227l312 240q32 25 32 40q0 21 -71 19l2 14h210l-2 -14
q-31 -1 -62.5 -16t-70.5 -45l-283 -220l263 -292q28 -32 49 -49t51 -18l-2 -14h-159q-7 21 -37 55z" />
    <glyph glyph-name="M.ss11" horiz-adv-x="915" 
d="M794.5 33q16.5 -14 65.5 -19l-2 -14h-269l2 14q51 5 74 20t26 48l32 473l-334 -555h-31l-128 550l-121 -468q-3 -10 -3 -19q0 -23 20 -33.5t63 -15.5l-2 -14h-208l2 14q49 4 70 18.5t30 49.5l132 506q3 12 3 21q0 23 -18.5 33t-57.5 12l4 14h161l124 -552l333 552h147
l-1 -14q-48 -2 -69 -17t-25 -57l-34 -498q-2 -35 14.5 -49z" />
    <glyph glyph-name="R.ss12" horiz-adv-x="662" 
d="M70 33.5q22 14.5 28 55.5l78 491q2 12 2 18q0 28 -19.5 40.5t-60.5 15.5l2 14h284q107 0 167 -45.5t60 -127.5q0 -91 -75 -146t-209 -57l217 -224q46 -51 91 -54l-2 -14h-158q-3 20 -27 51l-227 241l-33 -203q-2 -8 -2 -21q0 -27 19.5 -39.5t60.5 -14.5l-2 -14h-270l2 14
q52 5 74 19.5zM310 320q63 0 109 23t70 62t24 88q0 69 -39.5 108t-113.5 39h-83l-52 -320h85z" />
    <glyph glyph-name="Racute.ss12" horiz-adv-x="662" 
d="M70 33.5q22 14.5 28 55.5l78 491q2 12 2 18q0 28 -19.5 40.5t-60.5 15.5l2 14h284q107 0 167 -45.5t60 -127.5q0 -91 -75 -146t-209 -57l217 -224q46 -51 91 -54l-2 -14h-158q-3 20 -27 51l-227 241l-33 -203q-2 -8 -2 -21q0 -27 19.5 -39.5t60.5 -14.5l-2 -14h-270l2 14
q52 5 74 19.5zM310 320q63 0 109 23t70 62t24 88q0 69 -39.5 108t-113.5 39h-83l-52 -320h85zM453 895h95l-172 -162h-14z" />
    <glyph glyph-name="Rcaron.ss12" horiz-adv-x="662" 
d="M70 33.5q22 14.5 28 55.5l78 491q2 12 2 18q0 28 -19.5 40.5t-60.5 15.5l2 14h284q107 0 167 -45.5t60 -127.5q0 -91 -75 -146t-209 -57l217 -224q46 -51 91 -54l-2 -14h-158q-3 20 -27 51l-227 241l-33 -203q-2 -8 -2 -21q0 -27 19.5 -39.5t60.5 -14.5l-2 -14h-270l2 14
q52 5 74 19.5zM310 320q63 0 109 23t70 62t24 88q0 69 -39.5 108t-113.5 39h-83l-52 -320h85zM290 895l105 -111l141 111h14l-122 -162h-82l-70 162h14z" />
    <glyph glyph-name="uni0156.ss12" horiz-adv-x="662" 
d="M70 33.5q22 14.5 28 55.5l78 491q2 12 2 18q0 28 -19.5 40.5t-60.5 15.5l2 14h284q107 0 167 -45.5t60 -127.5q0 -91 -75 -146t-209 -57l217 -224q46 -51 91 -54l-2 -14h-158q-3 20 -27 51l-227 241l-33 -203q-2 -8 -2 -21q0 -27 19.5 -39.5t60.5 -14.5l-2 -14h-270l2 14
q52 5 74 19.5zM310 320q63 0 109 23t70 62t24 88q0 69 -39.5 108t-113.5 39h-83l-52 -320h85zM279.5 -147q11.5 36 11.5 69q0 16 -3 30l75 7q6 -97 -105 -174l-9 7q19 25 30.5 61z" />
    <glyph glyph-name="i.loclTRK" horiz-adv-x="267" 
d="M75 3.5q-19 17.5 -19 50.5q0 11 5 51l49 304q1 5 1 14q0 18 -11 27t-34 11h-24l2 14l152 41h14l-67 -416q-4 -28 -4 -35q0 -15 8 -24t21 -9t25.5 7t29.5 26l10 -10q-45 -69 -106 -69q-33 0 -52 17.5zM134 693q20 19 48 19q25 0 41.5 -16t16.5 -40q0 -26 -20 -45t-48 -19
q-25 0 -41.5 16t-16.5 39q0 27 20 46z" />
    <glyph glyph-name="germandbls.calt" horiz-adv-x="681" 
d="M306.5 3q-41.5 17 -64.5 46l12 13q19 -20 53.5 -31.5t74.5 -11.5q48 0 87 25.5t61.5 68.5t22.5 93q0 66 -44.5 101.5t-115.5 35.5q-31 0 -68 -8l-3 17l251 278q-65 25 -137 25q-71 0 -122 -49t-64 -126l-76 -480h-180l2 14q50 3 73 18t29 57l60 379q9 60 46 109
t98.5 77.5t139.5 28.5q101 0 226 -29l5 -25l-230 -238q9 1 25 1q77 0 124.5 -44.5t47.5 -119.5q0 -68 -33 -123t-88.5 -87t-121.5 -32q-49 0 -90.5 17z" />
    <glyph glyph-name="a.ss01" horiz-adv-x="551" 
d="M457 79q0 -19 11 -27.5t34 -10.5l23 -1l-2 -14l-146 -41h-14l14 118q-30 -57 -72 -87.5t-94 -30.5q-51 0 -92 25.5t-64.5 73t-23.5 109.5q0 92 35 166t97 115.5t139 41.5q99 0 146 -68l63 68h14l-67 -423q-1 -5 -1 -14zM159 88q34 -45 89 -45q42 0 77 27t57 68l33 207
q1 6 1 19q0 47 -29 83t-83 36q-52 0 -92.5 -38.5t-63.5 -102t-23 -133.5q0 -76 34 -121z" />
    <glyph glyph-name="aacute.ss01" horiz-adv-x="551" 
d="M457 79q0 -19 11 -27.5t34 -10.5l23 -1l-2 -14l-146 -41h-14l14 118q-30 -57 -72 -87.5t-94 -30.5q-51 0 -92 25.5t-64.5 73t-23.5 109.5q0 92 35 166t97 115.5t139 41.5q99 0 146 -68l63 68h14l-67 -423q-1 -5 -1 -14zM159 88q34 -45 89 -45q42 0 77 27t57 68l33 207
q1 6 1 19q0 47 -29 83t-83 36q-52 0 -92.5 -38.5t-63.5 -102t-23 -133.5q0 -76 34 -121zM400 728h95l-172 -162h-14z" />
    <glyph glyph-name="abreve.ss01" horiz-adv-x="551" 
d="M457 79q0 -19 11 -27.5t34 -10.5l23 -1l-2 -14l-146 -41h-14l14 118q-30 -57 -72 -87.5t-94 -30.5q-51 0 -92 25.5t-64.5 73t-23.5 109.5q0 92 35 166t97 115.5t139 41.5q99 0 146 -68l63 68h14l-67 -423q-1 -5 -1 -14zM159 88q34 -45 89 -45q42 0 77 27t57 68l33 207
q1 6 1 19q0 47 -29 83t-83 36q-52 0 -92.5 -38.5t-63.5 -102t-23 -133.5q0 -76 34 -121zM252 728q-4 -54 23 -77t71 -23q45 0 80 23t48 77h14q-26 -163 -151 -163q-103 0 -103 113q0 26 4 50h14z" />
    <glyph glyph-name="acircumflex.ss01" horiz-adv-x="551" 
d="M457 79q0 -19 11 -27.5t34 -10.5l23 -1l-2 -14l-146 -41h-14l14 118q-30 -57 -72 -87.5t-94 -30.5q-51 0 -92 25.5t-64.5 73t-23.5 109.5q0 92 35 166t97 115.5t139 41.5q99 0 146 -68l63 68h14l-67 -423q-1 -5 -1 -14zM159 88q34 -45 89 -45q42 0 77 27t57 68l33 207
q1 6 1 19q0 47 -29 83t-83 36q-52 0 -92.5 -38.5t-63.5 -102t-23 -133.5q0 -76 34 -121zM324 729h82l70 -162h-14l-105 111l-141 -111h-14z" />
    <glyph glyph-name="adieresis.ss01" horiz-adv-x="551" 
d="M457 79q0 -19 11 -27.5t34 -10.5l23 -1l-2 -14l-146 -41h-14l14 118q-30 -57 -72 -87.5t-94 -30.5q-51 0 -92 25.5t-64.5 73t-23.5 109.5q0 92 35 166t97 115.5t139 41.5q99 0 146 -68l63 68h14l-67 -423q-1 -5 -1 -14zM159 88q34 -45 89 -45q42 0 77 27t57 68l33 207
q1 6 1 19q0 47 -29 83t-83 36q-52 0 -92.5 -38.5t-63.5 -102t-23 -133.5q0 -76 34 -121zM219 690q20 19 47 19q25 0 41 -16t16 -39q0 -26 -19.5 -44.5t-46.5 -18.5q-25 0 -41.5 15.5t-16.5 38.5q0 26 20 45zM395 690q20 19 47 19q25 0 41 -16t16 -39q0 -26 -19.5 -44.5
t-47.5 -18.5q-25 0 -41 15.5t-16 38.5q0 26 20 45z" />
    <glyph glyph-name="agrave.ss01" horiz-adv-x="551" 
d="M457 79q0 -19 11 -27.5t34 -10.5l23 -1l-2 -14l-146 -41h-14l14 118q-30 -57 -72 -87.5t-94 -30.5q-51 0 -92 25.5t-64.5 73t-23.5 109.5q0 92 35 166t97 115.5t139 41.5q99 0 146 -68l63 68h14l-67 -423q-1 -5 -1 -14zM159 88q34 -45 89 -45q42 0 77 27t57 68l33 207
q1 6 1 19q0 47 -29 83t-83 36q-52 0 -92.5 -38.5t-63.5 -102t-23 -133.5q0 -76 34 -121zM291 728l66 -162h-14l-146 162h94z" />
    <glyph glyph-name="amacron.ss01" horiz-adv-x="551" 
d="M457 79q0 -19 11 -27.5t34 -10.5l23 -1l-2 -14l-146 -41h-14l14 118q-30 -57 -72 -87.5t-94 -30.5q-51 0 -92 25.5t-64.5 73t-23.5 109.5q0 92 35 166t97 115.5t139 41.5q99 0 146 -68l63 68h14l-67 -423q-1 -5 -1 -14zM159 88q34 -45 89 -45q42 0 77 27t57 68l33 207
q1 6 1 19q0 47 -29 83t-83 36q-52 0 -92.5 -38.5t-63.5 -102t-23 -133.5q0 -76 34 -121zM213 621h256l-4 -33h-257z" />
    <glyph glyph-name="aogonek.ss01" horiz-adv-x="551" 
d="M457 79q0 -19 11 -27.5t34 -10.5l23 -1l-2 -13l1 -1q-56 -41 -80.5 -72t-29.5 -64q-1 -5 -1 -14q0 -23 13.5 -36.5t39.5 -13.5q20 0 47 9l4 -10q-47 -37 -104 -37q-32 0 -53.5 17.5t-21.5 47.5q0 88 154 164l-115 -32h-14l14 118q-30 -57 -72 -87.5t-94 -30.5
q-51 0 -92 25.5t-64.5 73t-23.5 109.5q0 92 35 166t97 115.5t139 41.5q99 0 146 -68l63 68h14l-67 -423q-1 -5 -1 -14zM159 88q34 -45 89 -45q42 0 77 27t57 68l33 207q1 6 1 19q0 47 -29 83t-83 36q-52 0 -92.5 -38.5t-63.5 -102t-23 -133.5q0 -76 34 -121z" />
    <glyph glyph-name="aring.ss01" horiz-adv-x="551" 
d="M457 79q0 -19 11 -27.5t34 -10.5l23 -1l-2 -14l-146 -41h-14l14 118q-30 -57 -72 -87.5t-94 -30.5q-51 0 -92 25.5t-64.5 73t-23.5 109.5q0 92 35 166t97 115.5t139 41.5q99 0 146 -68l63 68h14l-67 -423q-1 -5 -1 -14zM159 88q34 -45 89 -45q42 0 77 27t57 68l33 207
q1 6 1 19q0 47 -29 83t-83 36q-52 0 -92.5 -38.5t-63.5 -102t-23 -133.5q0 -76 34 -121zM280.5 711q31.5 29 76.5 29q40 0 62.5 -23t22.5 -59q0 -43 -31.5 -72t-76.5 -29q-39 0 -62 23t-23 59q0 43 31.5 72zM299 602.5q15 -16.5 40 -16.5q28 0 48.5 20t20.5 50
q0 24 -14.5 39.5t-40.5 15.5q-28 0 -48.5 -19.5t-20.5 -48.5q0 -24 15 -40.5z" />
    <glyph glyph-name="aringacute.ss01" horiz-adv-x="551" 
d="M457 79q0 -19 11 -27.5t34 -10.5l23 -1l-2 -14l-146 -41h-14l14 118q-30 -57 -72 -87.5t-94 -30.5q-51 0 -92 25.5t-64.5 73t-23.5 109.5q0 92 35 166t97 115.5t139 41.5q99 0 146 -68l63 68h14l-67 -423q-1 -5 -1 -14zM159 88q34 -45 89 -45q42 0 77 27t57 68l33 207
q1 6 1 19q0 47 -29 83t-83 36q-52 0 -92.5 -38.5t-63.5 -102t-23 -133.5q0 -76 34 -121zM277.5 708q28.5 28 70.5 32l78 139h95l-149 -140q33 -4 51.5 -26.5t18.5 -54.5q0 -43 -31.5 -72t-76.5 -29q-39 0 -62 23t-23 59q0 41 28.5 69zM299 602.5q15 -16.5 40 -16.5
q28 0 48.5 20t20.5 50q0 24 -14.5 39.5t-40.5 15.5q-28 0 -48.5 -19.5t-20.5 -48.5q0 -24 15 -40.5z" />
    <glyph glyph-name="atilde.ss01" horiz-adv-x="551" 
d="M457 79q0 -19 11 -27.5t34 -10.5l23 -1l-2 -14l-146 -41h-14l14 118q-30 -57 -72 -87.5t-94 -30.5q-51 0 -92 25.5t-64.5 73t-23.5 109.5q0 92 35 166t97 115.5t139 41.5q99 0 146 -68l63 68h14l-67 -423q-1 -5 -1 -14zM159 88q34 -45 89 -45q42 0 77 27t57 68l33 207
q1 6 1 19q0 47 -29 83t-83 36q-52 0 -92.5 -38.5t-63.5 -102t-23 -133.5q0 -76 34 -121zM228.5 659.5q27.5 28.5 63.5 28.5q17 0 32.5 -7t38.5 -21q21 -13 35 -19.5t27 -6.5q38 0 60 51h14q-12 -49 -40 -78t-64 -29q-17 0 -33 7t-37 21q-22 14 -35 20t-27 6q-38 0 -61 -52
l-13 1q12 50 39.5 78.5z" />
    <glyph glyph-name="ae.ss01" horiz-adv-x="862" 
d="M76.5 41q-46.5 56 -46.5 151q0 91 35.5 165t99.5 116.5t146 42.5q60 0 103 -26.5t57 -68.5q38 45 91 70t115 25q76 0 117.5 -30.5t41.5 -77.5t-36 -77.5t-93.5 -48.5t-149.5 -37l-70 -15q1 -80 39.5 -127t105.5 -47q49 0 93.5 21.5t75.5 64.5l11 -6q-29 -72 -86 -111
t-132 -39q-49 0 -87.5 18.5t-64.5 52.5l-1 -5l-70 -67h-14l18 114q-30 -54 -76 -84t-98 -30q-78 0 -124.5 56zM155 87.5q30 -44.5 83 -44.5q43 0 82.5 27.5t60.5 67.5l34 211q2 14 2 21q0 47 -30.5 80t-83.5 33q-51 0 -92 -38.5t-63.5 -101.5t-22.5 -134q0 -77 30 -121.5z
M556 273q88 21 140 51.5t52 85.5q0 31 -24 54.5t-64 23.5q-47 0 -84.5 -31.5t-60.5 -84.5t-27 -114z" />
    <glyph glyph-name="aeacute.ss01" horiz-adv-x="862" 
d="M76.5 41q-46.5 56 -46.5 151q0 91 35.5 165t99.5 116.5t146 42.5q60 0 103 -26.5t57 -68.5q38 45 91 70t115 25q76 0 117.5 -30.5t41.5 -77.5t-36 -77.5t-93.5 -48.5t-149.5 -37l-70 -15q1 -80 39.5 -127t105.5 -47q49 0 93.5 21.5t75.5 64.5l11 -6q-29 -72 -86 -111
t-132 -39q-49 0 -87.5 18.5t-64.5 52.5l-1 -5l-70 -67h-14l18 114q-30 -54 -76 -84t-98 -30q-78 0 -124.5 56zM155 87.5q30 -44.5 83 -44.5q43 0 82.5 27.5t60.5 67.5l34 211q2 14 2 21q0 47 -30.5 80t-83.5 33q-51 0 -92 -38.5t-63.5 -101.5t-22.5 -134q0 -77 30 -121.5z
M572 728h95l-172 -162h-14zM556 273q88 21 140 51.5t52 85.5q0 31 -24 54.5t-64 23.5q-47 0 -84.5 -31.5t-60.5 -84.5t-27 -114z" />
    <glyph glyph-name="g.ss02" horiz-adv-x="546" 
d="M65.5 -183.5q-58.5 28.5 -72.5 79.5l88 40q1 -54 38 -87.5t88 -33.5q58 0 97.5 40t50.5 115l22 141q-30 -56 -73 -86.5t-95 -30.5q-81 0 -130 55.5t-49 148.5q0 87 35.5 160t97.5 115.5t139 42.5q50 0 85 -16.5t60 -49.5l64 66h14l-83 -522q-14 -96 -78 -151t-167 -55
q-73 0 -131.5 28.5zM158 96q33 -45 87 -45q43 0 79.5 26.5t57.5 68.5l31 193q1 6 1 20q0 50 -28 87.5t-81 37.5q-51 0 -92.5 -39t-64.5 -101.5t-23 -128.5q0 -74 33 -119z" />
    <glyph glyph-name="gbreve.ss02" horiz-adv-x="547" 
d="M65.5 -183.5q-58.5 28.5 -72.5 79.5l88 40q1 -54 38 -87.5t88 -33.5q58 0 97.5 40t50.5 115l22 141q-30 -56 -73 -86.5t-95 -30.5q-81 0 -130 55.5t-49 148.5q0 87 35.5 160t97.5 115.5t139 42.5q50 0 85 -16.5t60 -49.5l64 66h14l-83 -522q-14 -96 -78 -151t-167 -55
q-73 0 -131.5 28.5zM158 96q33 -45 87 -45q43 0 79.5 26.5t57.5 68.5l31 193q1 6 1 20q0 50 -28 87.5t-81 37.5q-51 0 -92.5 -39t-64.5 -101.5t-23 -128.5q0 -74 33 -119zM244 728q-4 -54 23 -77t71 -23q45 0 80 23t48 77h14q-26 -163 -151 -163q-103 0 -103 113q0 26 4 50
h14z" />
    <glyph glyph-name="gcircumflex.ss02" horiz-adv-x="547" 
d="M65.5 -183.5q-58.5 28.5 -72.5 79.5l88 40q1 -54 38 -87.5t88 -33.5q58 0 97.5 40t50.5 115l22 141q-30 -56 -73 -86.5t-95 -30.5q-81 0 -130 55.5t-49 148.5q0 87 35.5 160t97.5 115.5t139 42.5q50 0 85 -16.5t60 -49.5l64 66h14l-83 -522q-14 -96 -78 -151t-167 -55
q-73 0 -131.5 28.5zM158 96q33 -45 87 -45q43 0 79.5 26.5t57.5 68.5l31 193q1 6 1 20q0 50 -28 87.5t-81 37.5q-51 0 -92.5 -39t-64.5 -101.5t-23 -128.5q0 -74 33 -119zM316 729h82l70 -162h-14l-105 111l-141 -111h-14z" />
    <glyph glyph-name="uni0123.ss02" horiz-adv-x="547" 
d="M65.5 -183.5q-58.5 28.5 -72.5 79.5l88 40q1 -54 38 -87.5t88 -33.5q58 0 97.5 40t50.5 115l22 141q-30 -56 -73 -86.5t-95 -30.5q-81 0 -130 55.5t-49 148.5q0 87 35.5 160t97.5 115.5t139 42.5q50 0 85 -16.5t60 -49.5l64 66h14l-83 -522q-14 -96 -78 -151t-167 -55
q-73 0 -131.5 28.5zM158 96q33 -45 87 -45q43 0 79.5 26.5t57.5 68.5l31 193q1 6 1 20q0 50 -28 87.5t-81 37.5q-51 0 -92.5 -39t-64.5 -101.5t-23 -128.5q0 -74 33 -119zM388 733l9 -7q-19 -25 -30.5 -61t-11.5 -69q0 -16 3 -30l-75 -7q-6 97 105 174z" />
    <glyph glyph-name="gdotaccent.ss02" horiz-adv-x="546" 
d="M65.5 -183.5q-58.5 28.5 -72.5 79.5l88 40q1 -54 38 -87.5t88 -33.5q58 0 97.5 40t50.5 115l22 141q-30 -56 -73 -86.5t-95 -30.5q-81 0 -130 55.5t-49 148.5q0 87 35.5 160t97.5 115.5t139 42.5q50 0 85 -16.5t60 -49.5l64 66h14l-83 -522q-14 -96 -78 -151t-167 -55
q-73 0 -131.5 28.5zM158 96q33 -45 87 -45q43 0 79.5 26.5t57.5 68.5l31 193q1 6 1 20q0 50 -28 87.5t-81 37.5q-51 0 -92.5 -39t-64.5 -101.5t-23 -128.5q0 -74 33 -119zM309 693q20 19 48 19q25 0 41.5 -16t16.5 -40q0 -26 -20 -45t-48 -19q-25 0 -41.5 16t-16.5 39
q0 27 20 46z" />
    <glyph glyph-name="g.ss03" horiz-adv-x="506" 
d="M10 -181.5q-52 30.5 -52 85.5q0 52 33.5 85.5t79.5 50.5l29 184q-36 39 -36 98q0 55 30 99.5t82 69.5t116 25q50 0 87 -15h158l-5 -28h-106q47 -42 47 -110q0 -55 -30 -99t-82 -69t-115 -25q-73 0 -121 33l-18 -111h167q73 0 128 -25t55 -95q0 -55 -38.5 -96.5
t-107 -64.5t-154.5 -23q-95 0 -147 30.5zM79.5 -158.5q44.5 -27.5 114.5 -27.5q53 0 99.5 16t74 45.5t27.5 68.5q0 47 -38 62.5t-99 15.5l-174 1q-21 -20 -35 -47t-14 -57q0 -50 44.5 -77.5zM180.5 232q27.5 -34 75.5 -34q36 0 65 23t46 62t17 83q0 54 -27 87.5t-75 33.5
q-36 0 -65.5 -23t-46.5 -61.5t-17 -82.5q0 -54 27.5 -88z" />
    <glyph glyph-name="gbreve.ss03" horiz-adv-x="506" 
d="M10 -181.5q-52 30.5 -52 85.5q0 52 33.5 85.5t79.5 50.5l29 184q-36 39 -36 98q0 55 30 99.5t82 69.5t116 25q50 0 87 -15h158l-5 -28h-106q47 -42 47 -110q0 -55 -30 -99t-82 -69t-115 -25q-73 0 -121 33l-18 -111h167q73 0 128 -25t55 -95q0 -55 -38.5 -96.5
t-107 -64.5t-154.5 -23q-95 0 -147 30.5zM79.5 -158.5q44.5 -27.5 114.5 -27.5q53 0 99.5 16t74 45.5t27.5 68.5q0 47 -38 62.5t-99 15.5l-174 1q-21 -20 -35 -47t-14 -57q0 -50 44.5 -77.5zM180.5 232q27.5 -34 75.5 -34q36 0 65 23t46 62t17 83q0 54 -27 87.5t-75 33.5
q-36 0 -65.5 -23t-46.5 -61.5t-17 -82.5q0 -54 27.5 -88zM219 728q-4 -54 23 -77t71 -23q45 0 80 23t48 77h14q-26 -163 -151 -163q-103 0 -103 113q0 26 4 50h14z" />
    <glyph glyph-name="gcircumflex.ss03" horiz-adv-x="506" 
d="M10 -181.5q-52 30.5 -52 85.5q0 52 33.5 85.5t79.5 50.5l29 184q-36 39 -36 98q0 55 30 99.5t82 69.5t116 25q50 0 87 -15h158l-5 -28h-106q47 -42 47 -110q0 -55 -30 -99t-82 -69t-115 -25q-73 0 -121 33l-18 -111h167q73 0 128 -25t55 -95q0 -55 -38.5 -96.5
t-107 -64.5t-154.5 -23q-95 0 -147 30.5zM79.5 -158.5q44.5 -27.5 114.5 -27.5q53 0 99.5 16t74 45.5t27.5 68.5q0 47 -38 62.5t-99 15.5l-174 1q-21 -20 -35 -47t-14 -57q0 -50 44.5 -77.5zM180.5 232q27.5 -34 75.5 -34q36 0 65 23t46 62t17 83q0 54 -27 87.5t-75 33.5
q-36 0 -65.5 -23t-46.5 -61.5t-17 -82.5q0 -54 27.5 -88zM291 729h82l70 -162h-14l-105 111l-141 -111h-14z" />
    <glyph glyph-name="uni0123.ss03" horiz-adv-x="506" 
d="M10 -181.5q-52 30.5 -52 85.5q0 52 33.5 85.5t79.5 50.5l29 184q-36 39 -36 98q0 55 30 99.5t82 69.5t116 25q50 0 87 -15h158l-5 -28h-106q47 -42 47 -110q0 -55 -30 -99t-82 -69t-115 -25q-73 0 -121 33l-18 -111h167q73 0 128 -25t55 -95q0 -55 -38.5 -96.5
t-107 -64.5t-154.5 -23q-95 0 -147 30.5zM79.5 -158.5q44.5 -27.5 114.5 -27.5q53 0 99.5 16t74 45.5t27.5 68.5q0 47 -38 62.5t-99 15.5l-174 1q-21 -20 -35 -47t-14 -57q0 -50 44.5 -77.5zM180.5 232q27.5 -34 75.5 -34q36 0 65 23t46 62t17 83q0 54 -27 87.5t-75 33.5
q-36 0 -65.5 -23t-46.5 -61.5t-17 -82.5q0 -54 27.5 -88zM363 733l9 -7q-19 -25 -30.5 -61t-11.5 -69q0 -16 3 -30l-75 -7q-6 97 105 174z" />
    <glyph glyph-name="gdotaccent.ss03" horiz-adv-x="506" 
d="M10 -181.5q-52 30.5 -52 85.5q0 52 33.5 85.5t79.5 50.5l29 184q-36 39 -36 98q0 55 30 99.5t82 69.5t116 25q50 0 87 -15h158l-5 -28h-106q47 -42 47 -110q0 -55 -30 -99t-82 -69t-115 -25q-73 0 -121 33l-18 -111h167q73 0 128 -25t55 -95q0 -55 -38.5 -96.5
t-107 -64.5t-154.5 -23q-95 0 -147 30.5zM79.5 -158.5q44.5 -27.5 114.5 -27.5q53 0 99.5 16t74 45.5t27.5 68.5q0 47 -38 62.5t-99 15.5l-174 1q-21 -20 -35 -47t-14 -57q0 -50 44.5 -77.5zM180.5 232q27.5 -34 75.5 -34q36 0 65 23t46 62t17 83q0 54 -27 87.5t-75 33.5
q-36 0 -65.5 -23t-46.5 -61.5t-17 -82.5q0 -54 27.5 -88zM271 693q20 19 48 19q25 0 41.5 -16t16.5 -40q0 -26 -20 -45t-48 -19q-25 0 -41.5 16t-16.5 39q0 27 20 46z" />
    <glyph glyph-name="g.ss04" horiz-adv-x="546" 
d="M25 -169h307l44 272q-31 -58 -78.5 -88t-103.5 -30q-73 0 -118.5 56.5t-45.5 155.5q0 87 35.5 160t98 116t141.5 43q95 0 142 -68l62 63h14l-103 -656q-4 -23 -21 -37.5t-41 -14.5h-338zM155 88q30 -45 83 -45q43 0 82.5 27.5t60.5 67.5l34 211l1 14q0 47 -28.5 83.5
t-82.5 36.5q-52 0 -93 -38.5t-64 -100.5t-23 -132q0 -79 30 -124z" />
    <glyph glyph-name="gbreve.ss04" horiz-adv-x="546" 
d="M25 -169h307l44 272q-31 -58 -78.5 -88t-103.5 -30q-73 0 -118.5 56.5t-45.5 155.5q0 87 35.5 160t98 116t141.5 43q95 0 142 -68l62 63h14l-103 -656q-4 -23 -21 -37.5t-41 -14.5h-338zM155 88q30 -45 83 -45q43 0 82.5 27.5t60.5 67.5l34 211l1 14q0 47 -28.5 83.5
t-82.5 36.5q-52 0 -93 -38.5t-64 -100.5t-23 -132q0 -79 30 -124zM235 728q-4 -54 23 -77t71 -23q45 0 80 23t48 77h14q-26 -163 -151 -163q-103 0 -103 113q0 26 4 50h14z" />
    <glyph glyph-name="gcircumflex.ss04" horiz-adv-x="546" 
d="M25 -169h307l44 272q-31 -58 -78.5 -88t-103.5 -30q-73 0 -118.5 56.5t-45.5 155.5q0 87 35.5 160t98 116t141.5 43q95 0 142 -68l62 63h14l-103 -656q-4 -23 -21 -37.5t-41 -14.5h-338zM155 88q30 -45 83 -45q43 0 82.5 27.5t60.5 67.5l34 211l1 14q0 47 -28.5 83.5
t-82.5 36.5q-52 0 -93 -38.5t-64 -100.5t-23 -132q0 -79 30 -124zM307 729h82l70 -162h-14l-105 111l-141 -111h-14z" />
    <glyph glyph-name="uni0123.ss04" horiz-adv-x="546" 
d="M25 -169h307l44 272q-31 -58 -78.5 -88t-103.5 -30q-73 0 -118.5 56.5t-45.5 155.5q0 87 35.5 160t98 116t141.5 43q95 0 142 -68l62 63h14l-103 -656q-4 -23 -21 -37.5t-41 -14.5h-338zM155 88q30 -45 83 -45q43 0 82.5 27.5t60.5 67.5l34 211l1 14q0 47 -28.5 83.5
t-82.5 36.5q-52 0 -93 -38.5t-64 -100.5t-23 -132q0 -79 30 -124zM379 733l9 -7q-19 -25 -30.5 -61t-11.5 -69q0 -16 3 -30l-75 -7q-6 97 105 174z" />
    <glyph glyph-name="gdotaccent.ss04" horiz-adv-x="546" 
d="M25 -169h307l44 272q-31 -58 -78.5 -88t-103.5 -30q-73 0 -118.5 56.5t-45.5 155.5q0 87 35.5 160t98 116t141.5 43q95 0 142 -68l62 63h14l-103 -656q-4 -23 -21 -37.5t-41 -14.5h-338zM155 88q30 -45 83 -45q43 0 82.5 27.5t60.5 67.5l34 211l1 14q0 47 -28.5 83.5
t-82.5 36.5q-52 0 -93 -38.5t-64 -100.5t-23 -132q0 -79 30 -124zM288 693q20 19 48 19q25 0 41.5 -16t16.5 -40q0 -26 -20 -45t-48 -19q-25 0 -41.5 16t-16.5 39q0 27 20 46z" />
    <glyph glyph-name="k.ss05" horiz-adv-x="524" 
d="M139 612q0 19 -11 28t-34 11h-23l2 14l151 41h14l-67 -420l231 162l17 13q34 25 54.5 36.5t42.5 11.5q4 0 16 -2l-19 -75q-12 6 -34 6q-41 0 -74 -23l-155 -106l175 -252q15 -23 30 -32.5t46 -10.5l-2 -14l-128 -10l-201 286l-44 -276h-83l95 599q1 5 1 13z" />
    <glyph glyph-name="kgreenlandic.ss05" horiz-adv-x="521" 
d="M169 275l-43 -275h-83l64 409q1 5 1 14q0 19 -10.5 27.5t-33.5 10.5h-24l2 14l151 41h14l-36 -229l229 161q7 5 31.5 23.5t44.5 28t37 9.5q6 0 16 -2l-18 -75q-12 6 -34 6q-41 0 -74 -23l-156 -106l176 -252q15 -23 30 -32.5t46 -10.5l-2 -14l-128 -10z" />
    <glyph glyph-name="r.ss06" horiz-adv-x="337" 
d="M116 486.5q17 14.5 41 14.5h211l-5 -28h-182l-74 -473h-82l70 449q4 23 21 37.5z" />
    <glyph glyph-name="racute.ss06" horiz-adv-x="337" 
d="M116 486.5q17 14.5 41 14.5h211l-5 -28h-182l-74 -473h-82l70 449q4 23 21 37.5zM308 728h95l-172 -162h-14z" />
    <glyph glyph-name="rcaron.ss06" horiz-adv-x="337" 
d="M116 486.5q17 14.5 41 14.5h211l-5 -28h-182l-74 -473h-82l70 449q4 23 21 37.5zM145 728l105 -111l141 111h14l-122 -162h-82l-70 162h14z" />
    <glyph glyph-name="uni0157.ss06" horiz-adv-x="337" 
d="M116 486.5q17 14.5 41 14.5h211l-5 -28h-182l-74 -473h-82l70 449q4 23 21 37.5zM19.5 -147q11.5 36 11.5 69q0 16 -3 30l75 7q6 -97 -105 -174l-9 7q19 25 30.5 61z" />
    <glyph glyph-name="t.ss07" horiz-adv-x="285" 
d="M51.5 14.5q-12.5 14.5 -8.5 38.5l66 420h-54l2 14l143 125h14l-17 -111h113l-5 -28h-113l-70 -445h113l-5 -28h-143q-23 0 -35.5 14.5z" />
    <glyph glyph-name="tbar.ss07" horiz-adv-x="292" 
d="M67.5 14.5q-12.5 14.5 -8.5 38.5l36 227h-88l4 28h88l26 165h-54l2 14l143 125h14l-17 -111h113l-5 -28h-113l-26 -165h107l-4 -28h-107l-40 -252h113l-5 -28h-143q-23 0 -35.5 14.5z" />
    <glyph glyph-name="tcaron.ss07" horiz-adv-x="285" 
d="M51.5 14.5q-12.5 14.5 -8.5 38.5l66 420h-54l2 14l143 125h14l-17 -111h113l-5 -28h-113l-70 -445h113l-5 -28h-143q-23 0 -35.5 14.5zM332 765h84l-135 -201h-14z" />
    <glyph glyph-name="uni0163.ss07" horiz-adv-x="285" 
d="M51.5 14.5q-12.5 14.5 -8.5 38.5l66 420h-54l2 14l143 125h14l-17 -111h113l-5 -28h-113l-70 -445h113l-5 -28h-84l-27 -55q27 -5 43 -21.5t16 -45.5q0 -42 -33 -66t-85 -24q-19 0 -46 5l2 14q10 -1 28 -1q34 2 55 18t21 41q0 38 -52 48l60 87h-41q-23 0 -35.5 14.5z" />
    <glyph glyph-name="uni021B.ss07" horiz-adv-x="285" 
d="M51.5 14.5q-12.5 14.5 -8.5 38.5l66 420h-54l2 14l143 125h14l-17 -111h113l-5 -28h-113l-70 -445h113l-5 -28h-143q-23 0 -35.5 14.5zM87.5 -147q11.5 36 11.5 69q0 16 -3 30l75 7q6 -97 -105 -174l-9 7q19 25 30.5 61z" />
    <glyph glyph-name="y.ss08" horiz-adv-x="457" 
d="M12 -186l175 193l-113 427q-8 28 -22 40t-45 13l2 14l132 11l104 -411l151 268q9 14 9 33q0 21 -13.5 40t-34.5 34l49 43q47 -27 47 -76q0 -33 -20 -66l-219 -376l-114 -198h-90z" />
    <glyph glyph-name="yacute.ss08" horiz-adv-x="457" 
d="M12 -186l175 193l-113 427q-8 28 -22 40t-45 13l2 14l132 11l104 -411l151 268q9 14 9 33q0 21 -13.5 40t-34.5 34l49 43q47 -27 47 -76q0 -33 -20 -66l-219 -376l-114 -198h-90zM339 728h95l-172 -162h-14z" />
    <glyph glyph-name="ycircumflex.ss08" horiz-adv-x="457" 
d="M12 -186l175 193l-113 427q-8 28 -22 40t-45 13l2 14l132 11l104 -411l151 268q9 14 9 33q0 21 -13.5 40t-34.5 34l49 43q47 -27 47 -76q0 -33 -20 -66l-219 -376l-114 -198h-90zM263 729h82l70 -162h-14l-105 111l-141 -111h-14z" />
    <glyph glyph-name="ydieresis.ss08" horiz-adv-x="457" 
d="M12 -186l175 193l-113 427q-8 28 -22 40t-45 13l2 14l132 11l104 -411l151 268q9 14 9 33q0 21 -13.5 40t-34.5 34l49 43q47 -27 47 -76q0 -33 -20 -66l-219 -376l-114 -198h-90zM158.5 690q19.5 19 47.5 19q24 0 40.5 -16t16.5 -39q0 -26 -20 -44.5t-47 -18.5
q-25 0 -41 15.5t-16 38.5q0 26 19.5 45zM334 690q20 19 47 19q25 0 41 -16t16 -39q0 -26 -19.5 -44.5t-47.5 -18.5q-25 0 -41 15.5t-16 38.5q0 26 20 45z" />
    <glyph glyph-name="ygrave.ss08" horiz-adv-x="457" 
d="M12 -186l175 193l-113 427q-8 28 -22 40t-45 13l2 14l132 11l104 -411l151 268q9 14 9 33q0 21 -13.5 40t-34.5 34l49 43q47 -27 47 -76q0 -33 -20 -66l-219 -376l-114 -198h-90zM231 728l66 -162h-14l-146 162h94z" />
    <glyph glyph-name="y.ss09" horiz-adv-x="553" 
d="M74.5 -183q-60.5 29 -78.5 84l82 37q3 -56 43 -89t94 -33q59 0 97 40t50 115l19 121q-89 -107 -190 -107q-56 0 -89.5 33.5t-33.5 87.5q0 19 2 29l42 266q4 22 4 35q0 34 -30 34q-12 0 -24 -7t-30 -25l-10 9q46 69 107 69q33 0 52 -17.5t19 -51.5q0 -17 -5 -50l-41 -254
q-2 -14 -2 -20q0 -36 21 -58t58 -22q79 0 155 80l60 378h83l-82 -516q-16 -97 -79 -147t-157 -50q-76 0 -136.5 29z" />
    <glyph glyph-name="yacute.ss09" horiz-adv-x="553" 
d="M74.5 -183q-60.5 29 -78.5 84l82 37q3 -56 43 -89t94 -33q59 0 97 40t50 115l19 121q-89 -107 -190 -107q-56 0 -89.5 33.5t-33.5 87.5q0 19 2 29l42 266q4 22 4 35q0 34 -30 34q-12 0 -24 -7t-30 -25l-10 9q46 69 107 69q33 0 52 -17.5t19 -51.5q0 -17 -5 -50l-41 -254
q-2 -14 -2 -20q0 -36 21 -58t58 -22q79 0 155 80l60 378h83l-82 -516q-16 -97 -79 -147t-157 -50q-76 0 -136.5 29zM400 728h95l-172 -162h-14z" />
    <glyph glyph-name="ycircumflex.ss09" horiz-adv-x="553" 
d="M74.5 -183q-60.5 29 -78.5 84l82 37q3 -56 43 -89t94 -33q59 0 97 40t50 115l19 121q-89 -107 -190 -107q-56 0 -89.5 33.5t-33.5 87.5q0 19 2 29l42 266q4 22 4 35q0 34 -30 34q-12 0 -24 -7t-30 -25l-10 9q46 69 107 69q33 0 52 -17.5t19 -51.5q0 -17 -5 -50l-41 -254
q-2 -14 -2 -20q0 -36 21 -58t58 -22q79 0 155 80l60 378h83l-82 -516q-16 -97 -79 -147t-157 -50q-76 0 -136.5 29zM324 729h82l70 -162h-14l-105 111l-141 -111h-14z" />
    <glyph glyph-name="ydieresis.ss09" horiz-adv-x="553" 
d="M74.5 -183q-60.5 29 -78.5 84l82 37q3 -56 43 -89t94 -33q59 0 97 40t50 115l19 121q-89 -107 -190 -107q-56 0 -89.5 33.5t-33.5 87.5q0 19 2 29l42 266q4 22 4 35q0 34 -30 34q-12 0 -24 -7t-30 -25l-10 9q46 69 107 69q33 0 52 -17.5t19 -51.5q0 -17 -5 -50l-41 -254
q-2 -14 -2 -20q0 -36 21 -58t58 -22q79 0 155 80l60 378h83l-82 -516q-16 -97 -79 -147t-157 -50q-76 0 -136.5 29zM219.5 690q19.5 19 46.5 19q25 0 41 -16t16 -39q0 -26 -19.5 -44.5t-46.5 -18.5q-25 0 -41 15.5t-16 38.5q0 26 19.5 45zM395 690q20 19 47 19q25 0 41 -16
t16 -39q0 -26 -19.5 -44.5t-47.5 -18.5q-25 0 -41 15.5t-16 38.5q0 26 20 45z" />
    <glyph glyph-name="ygrave.ss09" horiz-adv-x="553" 
d="M74.5 -183q-60.5 29 -78.5 84l82 37q3 -56 43 -89t94 -33q59 0 97 40t50 115l19 121q-89 -107 -190 -107q-56 0 -89.5 33.5t-33.5 87.5q0 19 2 29l42 266q4 22 4 35q0 34 -30 34q-12 0 -24 -7t-30 -25l-10 9q46 69 107 69q33 0 52 -17.5t19 -51.5q0 -17 -5 -50l-41 -254
q-2 -14 -2 -20q0 -36 21 -58t58 -22q79 0 155 80l60 378h83l-82 -516q-16 -97 -79 -147t-157 -50q-76 0 -136.5 29zM291 728l66 -162h-14l-146 162h94z" />
    <glyph glyph-name="y.ss10" horiz-adv-x="553" 
d="M32 -169h307l42 260q-44 -53 -92.5 -79.5t-97.5 -26.5q-56 0 -89.5 33.5t-33.5 87.5q0 19 2 29l42 266q4 22 4 35q0 34 -30 34q-12 0 -24 -7t-30 -25l-10 9q46 69 107 69q33 0 52 -17.5t19 -51.5q0 -17 -5 -50l-41 -254q-2 -14 -2 -20q0 -36 21 -58t58 -22q80 0 155 82
l60 376h83l-103 -646q-4 -23 -21 -37.5t-40 -14.5h-338z" />
    <glyph glyph-name="yacute.ss10" horiz-adv-x="553" 
d="M32 -169h307l42 260q-44 -53 -92.5 -79.5t-97.5 -26.5q-56 0 -89.5 33.5t-33.5 87.5q0 19 2 29l42 266q4 22 4 35q0 34 -30 34q-12 0 -24 -7t-30 -25l-10 9q46 69 107 69q33 0 52 -17.5t19 -51.5q0 -17 -5 -50l-41 -254q-2 -14 -2 -20q0 -36 21 -58t58 -22q80 0 155 82
l60 376h83l-103 -646q-4 -23 -21 -37.5t-40 -14.5h-338zM396 728h95l-172 -162h-14z" />
    <glyph glyph-name="ycircumflex.ss10" horiz-adv-x="553" 
d="M32 -169h307l42 260q-44 -53 -92.5 -79.5t-97.5 -26.5q-56 0 -89.5 33.5t-33.5 87.5q0 19 2 29l42 266q4 22 4 35q0 34 -30 34q-12 0 -24 -7t-30 -25l-10 9q46 69 107 69q33 0 52 -17.5t19 -51.5q0 -17 -5 -50l-41 -254q-2 -14 -2 -20q0 -36 21 -58t58 -22q80 0 155 82
l60 376h83l-103 -646q-4 -23 -21 -37.5t-40 -14.5h-338zM321 729h82l70 -162h-14l-105 111l-141 -111h-14z" />
    <glyph glyph-name="ydieresis.ss10" horiz-adv-x="553" 
d="M32 -169h307l42 260q-44 -53 -92.5 -79.5t-97.5 -26.5q-56 0 -89.5 33.5t-33.5 87.5q0 19 2 29l42 266q4 22 4 35q0 34 -30 34q-12 0 -24 -7t-30 -25l-10 9q46 69 107 69q33 0 52 -17.5t19 -51.5q0 -17 -5 -50l-41 -254q-2 -14 -2 -20q0 -36 21 -58t58 -22q80 0 155 82
l60 376h83l-103 -646q-4 -23 -21 -37.5t-40 -14.5h-338zM216 690q20 19 47 19q24 0 40.5 -16t16.5 -39q0 -26 -20 -44.5t-47 -18.5q-25 0 -41 15.5t-16 38.5q0 26 20 45zM391.5 690q19.5 19 47.5 19q24 0 40.5 -16t16.5 -39q0 -26 -20 -44.5t-47 -18.5q-25 0 -41 15.5
t-16 38.5q0 26 19.5 45z" />
    <glyph glyph-name="ygrave.ss10" horiz-adv-x="553" 
d="M32 -169h307l42 260q-44 -53 -92.5 -79.5t-97.5 -26.5q-56 0 -89.5 33.5t-33.5 87.5q0 19 2 29l42 266q4 22 4 35q0 34 -30 34q-12 0 -24 -7t-30 -25l-10 9q46 69 107 69q33 0 52 -17.5t19 -51.5q0 -17 -5 -50l-41 -254q-2 -14 -2 -20q0 -36 21 -58t58 -22q80 0 155 82
l60 376h83l-103 -646q-4 -23 -21 -37.5t-40 -14.5h-338zM288 728l66 -162h-14l-146 162h94z" />
    <glyph glyph-name="F_T" horiz-adv-x="1106" 
d="M68 32q23 16 30 57l78 491q2 14 2 20q0 27 -18.5 40t-61.5 14l2 14h1033l-2 -175h-14q-6 78 -39 112.5t-108 34.5h-73l-87 -551q-2 -14 -2 -20q0 -29 18.5 -41t60.5 -14l-2 -14h-270l2 14q49 2 72 18t30 57l88 551h-74q-76 0 -119 -34.5t-73 -112.5h-14l45 147h-296
l-45 -284h136q45 0 64 22t30 74h14l-35 -219h-14q3 20 3 36q0 31 -14.5 46t-51.5 15h-137l-38 -241q-2 -14 -2 -19q0 -32 23 -43t78 -13l-2 -14h-291l2 14q49 2 72 18z" />
    <glyph glyph-name="T_T" horiz-adv-x="1009" 
d="M214 32q23 16 30 57l88 551l-87 -1q-70 -2 -110 -36t-69 -110h-14l53 175h931l-3 -175h-14q-6 76 -35.5 109.5t-98.5 36.5l-86 1l-87 -551q-2 -14 -2 -19q0 -29 18.5 -41.5t61.5 -14.5l-2 -14h-270l2 14q49 2 72.5 18t29.5 57l87 551h-287l-87 -551q-2 -14 -2 -20
q0 -29 18.5 -41t60.5 -14l-2 -14h-270l2 14q49 2 72 18z" />
    </font>
</defs>
</svg>
